<svg width="1440" height="661" viewBox="0 0 1440 661" fill="none" xmlns="http://www.w3.org/2000/svg">
<g clip-path="url(#clip0_1033_97)">
<path d="M1534 422.046L-48.385 630.075L-99 648V-121.377L1523.88 -136L1534 422.046Z" fill="url(#paint0_linear_1033_97)"/>
<path opacity="0.6" d="M696.527 385.287C714.057 372.934 737.547 373.275 754.712 386.129L1018.33 583.559C1035.5 596.414 1042.43 618.859 1035.51 639.156L929.21 950.885C922.288 971.182 903.084 984.714 881.642 984.404L552.32 979.633C530.878 979.323 512.074 965.24 505.744 944.751L408.515 630.074C402.184 609.585 409.766 587.35 427.296 574.997L696.527 385.287Z" stroke="white" stroke-opacity="0.45"/>
<path opacity="0.6" d="M698.681 162.815C716.21 150.462 739.7 150.803 756.865 163.657L1188.14 486.643C1205.3 499.498 1212.24 521.943 1205.32 542.24L1031.41 1052.21C1024.49 1072.51 1005.29 1086.04 983.843 1085.73L445.089 1077.93C423.647 1077.62 404.843 1063.53 398.513 1043.05L239.451 528.249C233.12 507.76 240.703 485.524 258.233 473.172L698.681 162.815Z" stroke="white" stroke-opacity="0.45"/>
<path opacity="0.6" d="M701.539 -43.975C719.069 -56.3273 742.559 -55.987 759.724 -43.1322L1346.14 396.039C1363.3 408.894 1370.24 431.339 1363.32 451.636L1126.85 1145.06C1119.93 1165.36 1100.73 1178.89 1079.28 1178.58L346.727 1167.97C325.284 1167.66 306.48 1153.57 300.15 1133.08L83.8696 433.102C77.5389 412.613 85.1213 390.378 102.651 378.026L701.539 -43.975Z" stroke="white" stroke-opacity="0.45"/>
</g>
<defs>
<linearGradient id="paint0_linear_1033_97" x1="689.901" y1="-297.5" x2="715.348" y2="648.058" gradientUnits="userSpaceOnUse">
<stop stop-color="#010205"/>
<stop offset="0.62" stop-color="#5D4FB6"/>
</linearGradient>
<clipPath id="clip0_1033_97">
<rect width="1560" height="704" fill="white" transform="translate(-40 -43)"/>
</clipPath>
</defs>
</svg>
