<svg width="526" height="345" viewBox="0 0 526 345" fill="none" xmlns="http://www.w3.org/2000/svg">
<rect width="345.215" height="55.2802" rx="27.6401" transform="matrix(0.893055 -0.449947 0.577698 0.816251 -4 155.329)" fill="#5D4FB6"/>
<rect width="345.215" height="55.2802" rx="27.6401" transform="matrix(0.893055 -0.449947 0.577698 0.816251 62.167 178.832)" fill="#5D4FB6"/>
<rect width="345.906" height="55.1501" rx="27.5751" transform="matrix(0.899008 -0.437931 0.564725 0.825279 65.0811 231.798)" fill="#5D4FB6"/>
<rect width="350.131" height="54.3419" rx="27.1709" transform="matrix(0.933857 -0.357647 0.473773 0.880647 173.282 223.977)" fill="#5D4FB6"/>
<rect width="350.131" height="54.3419" rx="27.1709" transform="matrix(0.933857 -0.357647 0.473773 0.880647 110.549 304.144)" fill="#5D4FB6"/>
<path d="M107 156.152V150.968H113.384V156.152H107ZM115.4 175.064H120.68C120.712 176.024 120.584 176.984 120.296 177.944C120.008 178.904 119.544 179.8 118.904 180.632C118.296 181.496 117.528 182.248 116.6 182.888C115.672 183.56 114.584 184.072 113.336 184.424C112.088 184.808 110.68 185 109.112 185C107.224 185 105.56 184.744 104.12 184.232C102.712 183.72 101.512 183 100.52 182.072C99.56 181.144 98.84 180.056 98.36 178.808C97.88 177.528 97.64 176.152 97.64 174.68C97.64 172.632 98.088 170.904 98.984 169.496C99.88 168.088 101.08 167 102.584 166.232C104.088 165.464 105.784 165 107.672 164.84V160.616H112.904V168.68H110.696C108.072 168.68 106.152 169.192 104.936 170.216C103.72 171.24 103.112 172.68 103.112 174.536C103.112 176.36 103.672 177.768 104.792 178.76C105.944 179.752 107.448 180.248 109.304 180.248C110.584 180.248 111.672 180.024 112.568 179.576C113.496 179.128 114.184 178.52 114.632 177.752C115.112 176.952 115.368 176.056 115.4 175.064ZM130.371 161.096H153.219V165.752H130.371V161.096ZM152.451 147.896H157.875V179H152.451V147.896ZM125.523 147.896H130.995V179H125.523V147.896ZM173.815 179.528C171.639 179.528 169.639 179 167.815 177.944C166.023 176.888 164.583 175.432 163.495 173.576C162.439 171.688 161.911 169.528 161.911 167.096C161.911 164.6 162.455 162.424 163.543 160.568C164.631 158.68 166.103 157.208 167.959 156.152C169.815 155.096 171.895 154.568 174.199 154.568C176.759 154.568 178.791 155.128 180.295 156.248C181.799 157.368 182.871 158.872 183.511 160.76C184.151 162.648 184.471 164.76 184.471 167.096C184.471 168.408 184.279 169.8 183.895 171.272C183.511 172.712 182.903 174.056 182.071 175.304C181.271 176.552 180.183 177.576 178.807 178.376C177.463 179.144 175.799 179.528 173.815 179.528ZM175.447 175.112C177.239 175.112 178.759 174.776 180.007 174.104C181.287 173.4 182.247 172.44 182.887 171.224C183.559 170.008 183.895 168.632 183.895 167.096C183.895 165.4 183.559 163.96 182.887 162.776C182.215 161.56 181.255 160.632 180.007 159.992C178.759 159.32 177.239 158.984 175.447 158.984C172.887 158.984 170.903 159.736 169.495 161.24C168.087 162.744 167.383 164.696 167.383 167.096C167.383 168.664 167.719 170.056 168.391 171.272C169.095 172.488 170.055 173.432 171.271 174.104C172.487 174.776 173.879 175.112 175.447 175.112ZM183.895 155.096H189.271V179H184.279C184.279 179 184.247 178.696 184.183 178.088C184.119 177.48 184.055 176.744 183.991 175.88C183.927 174.984 183.895 174.136 183.895 173.336V155.096ZM209.491 179.528C207.507 179.528 205.827 179.144 204.451 178.376C203.107 177.576 202.019 176.552 201.187 175.304C200.387 174.056 199.795 172.712 199.411 171.272C199.059 169.8 198.883 168.408 198.883 167.096C198.883 165.336 199.059 163.704 199.411 162.2C199.763 160.696 200.339 159.384 201.139 158.264C201.971 157.112 203.059 156.216 204.403 155.576C205.779 154.904 207.475 154.568 209.491 154.568C211.795 154.568 213.827 155.096 215.587 156.152C217.379 157.208 218.787 158.68 219.811 160.568C220.867 162.424 221.395 164.6 221.395 167.096C221.395 169.528 220.867 171.688 219.811 173.576C218.755 175.432 217.331 176.888 215.539 177.944C213.747 179 211.731 179.528 209.491 179.528ZM207.859 175.112C209.491 175.112 210.899 174.776 212.083 174.104C213.299 173.432 214.243 172.488 214.915 171.272C215.587 170.056 215.923 168.664 215.923 167.096C215.923 164.696 215.219 162.744 213.811 161.24C212.403 159.704 210.419 158.936 207.859 158.936C206.099 158.936 204.579 159.272 203.299 159.944C202.051 160.616 201.091 161.56 200.419 162.776C199.779 163.96 199.459 165.4 199.459 167.096C199.459 168.632 199.779 170.008 200.419 171.224C201.091 172.44 202.051 173.4 203.299 174.104C204.547 174.776 206.067 175.112 207.859 175.112ZM199.459 145.496V173.336C199.459 174.2 199.411 175.176 199.315 176.264C199.219 177.352 199.123 178.264 199.027 179H194.083V145.496H199.459ZM225.118 145.496H230.446V179H225.118V145.496ZM246.135 179.528C243.959 179.528 241.959 179 240.135 177.944C238.343 176.888 236.903 175.432 235.815 173.576C234.759 171.688 234.231 169.528 234.231 167.096C234.231 164.6 234.775 162.424 235.863 160.568C236.951 158.68 238.423 157.208 240.279 156.152C242.135 155.096 244.215 154.568 246.519 154.568C249.079 154.568 251.111 155.128 252.615 156.248C254.119 157.368 255.191 158.872 255.831 160.76C256.471 162.648 256.791 164.76 256.791 167.096C256.791 168.408 256.599 169.8 256.215 171.272C255.831 172.712 255.223 174.056 254.391 175.304C253.591 176.552 252.503 177.576 251.127 178.376C249.783 179.144 248.119 179.528 246.135 179.528ZM247.767 175.112C249.559 175.112 251.079 174.776 252.327 174.104C253.607 173.4 254.567 172.44 255.207 171.224C255.879 170.008 256.215 168.632 256.215 167.096C256.215 165.4 255.879 163.96 255.207 162.776C254.535 161.56 253.575 160.632 252.327 159.992C251.079 159.32 249.559 158.984 247.767 158.984C245.207 158.984 243.223 159.736 241.815 161.24C240.407 162.744 239.703 164.696 239.703 167.096C239.703 168.664 240.039 170.056 240.711 171.272C241.415 172.488 242.375 173.432 243.591 174.104C244.807 174.776 246.199 175.112 247.767 175.112ZM256.215 155.096H261.591V179H256.599C256.599 179 256.567 178.696 256.503 178.088C256.439 177.48 256.375 176.744 256.311 175.88C256.247 174.984 256.215 174.136 256.215 173.336V155.096ZM266.008 155.096H271.336V179H266.008V155.096ZM281.416 154.568C282.792 154.568 284.056 154.76 285.208 155.144C286.392 155.528 287.4 156.12 288.232 156.92C289.096 157.688 289.752 158.648 290.2 159.8C290.68 160.952 290.92 162.312 290.92 163.88V179H285.592V164.936C285.592 162.984 285.112 161.544 284.152 160.616C283.224 159.656 281.752 159.176 279.736 159.176C278.2 159.176 276.792 159.512 275.512 160.184C274.264 160.824 273.24 161.672 272.44 162.728C271.64 163.752 271.176 164.888 271.048 166.136L271 163.544C271.16 162.36 271.512 161.24 272.056 160.184C272.6 159.096 273.32 158.136 274.216 157.304C275.112 156.44 276.168 155.768 277.384 155.288C278.6 154.808 279.944 154.568 281.416 154.568ZM300.472 154.568C301.88 154.568 303.16 154.76 304.312 155.144C305.464 155.528 306.456 156.12 307.288 156.92C308.152 157.688 308.824 158.648 309.304 159.8C309.784 160.952 310.024 162.312 310.024 163.88V179H304.648V164.936C304.648 162.984 304.168 161.544 303.208 160.616C302.28 159.656 300.808 159.176 298.792 159.176C297.256 159.176 295.848 159.512 294.568 160.184C293.32 160.824 292.296 161.672 291.496 162.728C290.728 163.752 290.28 164.888 290.152 166.136L290.056 163.448C290.216 162.296 290.584 161.192 291.16 160.136C291.736 159.048 292.472 158.088 293.368 157.256C294.264 156.424 295.304 155.768 296.488 155.288C297.704 154.808 299.032 154.568 300.472 154.568ZM327.163 179.528C324.507 179.528 322.123 179.048 320.011 178.088C317.899 177.128 316.235 175.72 315.019 173.864C313.803 172.008 313.195 169.752 313.195 167.096C313.195 164.472 313.803 162.232 315.019 160.376C316.235 158.488 317.899 157.048 320.011 156.056C322.123 155.064 324.507 154.568 327.163 154.568C329.819 154.568 332.187 155.064 334.267 156.056C336.347 157.048 337.979 158.488 339.163 160.376C340.379 162.232 340.987 164.472 340.987 167.096C340.987 169.752 340.379 172.008 339.163 173.864C337.979 175.72 336.347 177.128 334.267 178.088C332.187 179.048 329.819 179.528 327.163 179.528ZM327.163 175.16C328.699 175.16 330.107 174.856 331.387 174.248C332.667 173.64 333.675 172.728 334.411 171.512C335.179 170.296 335.563 168.824 335.563 167.096C335.563 165.368 335.179 163.896 334.411 162.68C333.675 161.464 332.667 160.536 331.387 159.896C330.139 159.224 328.731 158.888 327.163 158.888C325.595 158.888 324.171 159.208 322.891 159.848C321.611 160.488 320.571 161.416 319.771 162.632C319.003 163.848 318.619 165.336 318.619 167.096C318.619 168.824 319.003 170.296 319.771 171.512C320.539 172.728 321.563 173.64 322.843 174.248C324.155 174.856 325.595 175.16 327.163 175.16ZM343.259 171.128H348.203C348.459 172.344 349.115 173.336 350.171 174.104C351.227 174.84 352.651 175.208 354.443 175.208C355.595 175.208 356.491 175.08 357.131 174.824C357.803 174.568 358.267 174.216 358.523 173.768C358.811 173.32 358.955 172.808 358.955 172.232C358.955 171.528 358.747 170.984 358.331 170.6C357.947 170.216 357.371 169.896 356.603 169.64C355.835 169.384 354.875 169.16 353.723 168.968C352.539 168.68 351.371 168.36 350.219 168.008C349.067 167.656 348.027 167.224 347.099 166.712C346.171 166.168 345.435 165.496 344.891 164.696C344.379 163.864 344.123 162.856 344.123 161.672C344.123 160.584 344.363 159.608 344.843 158.744C345.355 157.848 346.059 157.096 346.955 156.488C347.851 155.88 348.907 155.416 350.123 155.096C351.339 154.744 352.667 154.568 354.107 154.568C356.187 154.568 357.915 154.904 359.291 155.576C360.699 156.248 361.755 157.192 362.459 158.408C363.195 159.624 363.563 161.016 363.563 162.584H358.859C358.603 161.304 358.107 160.376 357.371 159.8C356.635 159.224 355.531 158.936 354.059 158.936C352.587 158.936 351.467 159.192 350.699 159.704C349.931 160.216 349.547 160.92 349.547 161.816C349.547 162.488 349.787 163.032 350.267 163.448C350.779 163.832 351.499 164.168 352.427 164.456C353.355 164.744 354.443 165.032 355.691 165.32C356.843 165.64 357.931 165.976 358.955 166.328C359.979 166.648 360.891 167.064 361.691 167.576C362.523 168.056 363.179 168.696 363.659 169.496C364.139 170.296 364.379 171.288 364.379 172.472C364.379 173.944 363.979 175.208 363.179 176.264C362.411 177.32 361.291 178.136 359.819 178.712C358.347 179.256 356.571 179.528 354.491 179.528C352.667 179.528 351.083 179.32 349.739 178.904C348.427 178.488 347.323 177.944 346.427 177.272C345.563 176.6 344.891 175.88 344.411 175.112C343.931 174.344 343.595 173.608 343.403 172.904C343.243 172.2 343.195 171.608 343.259 171.128ZM375.254 169.352V161.24H377.462C380.054 161.24 381.958 160.728 383.174 159.704C384.422 158.68 385.046 157.24 385.046 155.384C385.046 153.592 384.47 152.2 383.318 151.208C382.198 150.216 380.71 149.72 378.854 149.72C377.574 149.72 376.47 149.944 375.542 150.392C374.646 150.84 373.958 151.464 373.478 152.264C372.998 153.032 372.758 153.912 372.758 154.904H367.43C367.398 153.944 367.526 152.984 367.814 152.024C368.134 151.064 368.598 150.152 369.206 149.288C369.846 148.424 370.63 147.672 371.558 147.032C372.486 146.392 373.574 145.896 374.822 145.544C376.07 145.16 377.478 144.968 379.046 144.968C380.934 144.968 382.582 145.224 383.99 145.736C385.43 146.248 386.63 146.968 387.59 147.896C388.55 148.824 389.27 149.912 389.75 151.16C390.262 152.408 390.518 153.784 390.518 155.288C390.518 157.304 390.07 159.032 389.174 160.472C388.278 161.88 387.078 162.968 385.574 163.736C384.07 164.504 382.39 164.968 380.534 165.128V169.352H375.254ZM374.774 179V173.816H381.158V179H374.774Z" fill="white"/>
</svg>
