<svg width="51" height="33" viewBox="0 0 51 33" fill="none" xmlns="http://www.w3.org/2000/svg">
<path d="M7.40416 32.395C7.19416 32.065 6.71416 31.855 5.96416 31.765C5.24416 31.675 4.35916 31.66 3.30916 31.72C2.88916 31.78 2.48416 31.75 2.09416 31.63C1.70416 31.54 1.38916 31.375 1.14916 31.135C0.93916 30.925 0.86416 30.7 0.92416 30.46C0.95416 30.1 1.25416 29.815 1.82416 29.605C2.42416 29.395 3.36916 29.275 4.65916 29.245L7.04416 29.2L7.49416 28.3C7.61416 27.97 7.76416 27.505 7.94416 26.905C8.12416 26.305 8.31916 25.66 8.52916 24.97C8.64916 24.55 8.82916 23.98 9.06916 23.26C9.30916 22.54 9.56416 21.775 9.83416 20.965C10.1042 20.155 10.3442 19.435 10.5542 18.805C10.7642 18.145 10.8992 17.68 10.9592 17.41C11.0792 17.14 11.2442 16.69 11.4542 16.06C11.6642 15.4 11.8592 14.74 12.0392 14.08C12.2492 13.39 12.3842 12.895 12.4442 12.595C13.2242 10.225 13.7342 8.545 13.9742 7.555C14.2142 6.535 14.2742 6.01 14.1542 5.98C14.0342 5.98 13.7342 5.995 13.2542 6.025C12.8042 6.055 12.2942 6.1 11.7242 6.16C11.1842 6.19 10.6892 6.235 10.2392 6.295C9.81916 6.355 9.56416 6.415 9.47416 6.475C9.32416 6.685 9.06916 6.73 8.70916 6.61C8.34916 6.49 8.12416 6.28 8.03416 5.98C8.00416 5.71 7.98916 5.5 7.98916 5.35C8.01916 5.2 8.10916 5.08 8.25916 4.99C8.46916 4.81 8.87416 4.615 9.47416 4.405C10.0742 4.165 10.7492 3.955 11.4992 3.775C12.2792 3.595 13.0142 3.46 13.7042 3.37C14.2142 3.31 14.7242 3.205 15.2342 3.055C15.7442 2.875 16.1492 2.665 16.4492 2.425C16.7192 2.335 16.9742 2.26 17.2142 2.2C17.4842 2.14 17.7542 2.125 18.0242 2.155C18.2642 2.305 18.6692 2.38 19.2392 2.38C19.8392 2.38 20.4692 2.365 21.1292 2.335C22.8092 2.185 23.9342 2.14 24.5042 2.2C25.1042 2.26 25.5092 2.5 25.7192 2.92C25.8692 3.49 25.8992 3.94 25.8092 4.27C25.7192 4.57 25.4192 4.705 24.9092 4.675C24.6392 4.735 24.1442 4.795 23.4242 4.855C22.7342 4.885 21.9992 4.915 21.2192 4.945C19.0892 5.125 17.9492 5.335 17.7992 5.575C17.6792 5.695 17.5742 5.815 17.4842 5.935C17.4242 6.055 17.3342 6.19 17.2142 6.34C17.2442 6.46 17.1692 6.85 16.9892 7.51C16.8392 8.14 16.6442 8.785 16.4042 9.445C16.2842 9.835 16.1042 10.39 15.8642 11.11C15.6242 11.83 15.3692 12.58 15.0992 13.36C14.8592 14.11 14.6342 14.8 14.4242 15.43C14.2142 16.03 14.0642 16.435 13.9742 16.645C13.8542 16.915 13.7492 17.215 13.6592 17.545C13.5992 17.845 13.5542 18.07 13.5242 18.22C13.1042 19.69 12.7292 20.935 12.3992 21.955C12.0992 22.975 11.8142 23.875 11.5442 24.655C11.3042 25.405 11.0792 26.14 10.8692 26.86C10.6592 27.55 10.4342 28.315 10.1942 29.155C10.1942 29.155 10.4192 29.14 10.8692 29.11C11.3492 29.05 11.9792 28.99 12.7592 28.93C14.1692 28.78 15.1742 28.69 15.7742 28.66C16.4042 28.63 16.8242 28.675 17.0342 28.795C17.2442 28.885 17.3942 29.065 17.4842 29.335C18.0842 30.145 18.1592 30.7 17.7092 31C17.2592 31.3 16.1942 31.435 14.5142 31.405C12.9542 31.465 11.7542 31.51 10.9142 31.54C10.1042 31.6 9.53416 31.675 9.20416 31.765C8.90416 31.855 8.72416 32.005 8.66416 32.215C8.66416 32.455 8.54416 32.575 8.30416 32.575C8.06416 32.575 7.76416 32.515 7.40416 32.395ZM26.4567 10.975C26.1567 11.005 25.9617 11.005 25.8717 10.975C25.7817 10.945 25.6317 10.84 25.4217 10.66C25.3917 10.45 25.4217 10.255 25.5117 10.075C25.6017 9.895 25.7217 9.7 25.8717 9.49C26.2317 8.89 26.6367 8.185 27.0867 7.375C27.5667 6.535 27.8817 5.89 28.0317 5.44C28.0317 5.32 28.0467 5.215 28.0767 5.125C27.5667 5.215 27.0417 5.035 26.5017 4.585C25.9317 4.045 25.7367 3.505 25.9167 2.965C26.1267 2.395 26.6217 1.84 27.4017 1.3C27.9417 0.969999 28.3317 0.789999 28.5717 0.759998C28.8417 0.729998 29.2467 0.834999 29.7867 1.075C30.2967 1.375 30.6417 1.72 30.8217 2.11C31.0317 2.47 31.0617 2.845 30.9117 3.235C30.8217 3.925 30.6567 4.57 30.4167 5.17C30.2067 5.77 30.0117 6.355 29.8317 6.925C29.6517 7.585 29.3517 8.2 28.9317 8.77C28.5117 9.34 28.0467 9.925 27.5367 10.525C27.5667 10.645 27.4767 10.72 27.2667 10.75C27.0567 10.78 26.7867 10.855 26.4567 10.975ZM46.8502 29.11C46.7002 29.05 46.4752 28.9 46.1752 28.66C45.8752 28.42 45.6202 28.015 45.4102 27.445C45.2002 26.845 45.0952 26.02 45.0952 24.97C45.1252 24.07 45.1402 23.365 45.1402 22.855C45.1702 22.345 45.0652 22.09 44.8252 22.09C44.5852 22.09 44.1202 22.33 43.4302 22.81C42.7702 23.26 42.0052 23.875 41.1352 24.655C40.2652 25.435 39.3802 26.305 38.4802 27.265C38.1802 27.595 37.8802 27.91 37.5802 28.21C37.3102 28.48 37.0402 28.66 36.7702 28.75C36.5002 28.81 36.1852 28.705 35.8252 28.435L35.3302 28.03C35.1802 27.88 35.0902 27.73 35.0602 27.58C35.0302 27.4 35.0452 27.205 35.1052 26.995L36.1402 24.025C36.6202 22.945 36.9502 22.165 37.1302 21.685C37.3102 21.175 37.4002 20.86 37.4002 20.74C37.4002 20.59 37.3552 20.53 37.2652 20.56C37.0252 20.59 36.6652 20.74 36.1852 21.01C35.7052 21.25 35.3902 21.49 35.2402 21.73C35.1202 21.73 34.9402 21.865 34.7002 22.135C34.4602 22.405 34.1602 22.66 33.8002 22.9C33.5902 23.26 33.1702 23.725 32.5402 24.295C31.9402 24.865 31.3402 25.45 30.7402 26.05C30.3502 26.38 29.9602 26.785 29.5702 27.265C29.2102 27.745 28.8952 28.165 28.6252 28.525C28.3852 28.885 28.2202 29.065 28.1302 29.065C27.7402 29.065 27.3802 28.96 27.0502 28.75C26.7502 28.54 26.5252 28.195 26.3752 27.715C26.1352 27.205 26.1352 26.5 26.3752 25.6C26.6152 24.67 26.8852 23.47 27.1852 22C27.3052 21.55 27.3802 21.22 27.4102 21.01C27.4402 20.8 27.4852 20.59 27.5452 20.38C27.6352 20.14 27.7702 19.78 27.9502 19.3C28.1602 18.82 28.4752 18.1 28.8952 17.14C29.1052 16.57 29.2252 16.15 29.2552 15.88C29.3152 15.58 29.3452 15.37 29.3452 15.25C29.3452 14.95 29.4202 14.695 29.5702 14.485C29.7502 14.275 29.9602 14.125 30.2002 14.035C30.4402 13.945 30.6652 13.93 30.8752 13.99C31.2052 14.05 31.4902 14.215 31.7302 14.485C32.0002 14.755 32.1502 15.13 32.1802 15.61C32.2102 15.97 32.1802 16.3 32.0902 16.6C32.0002 16.87 31.9102 17.125 31.8202 17.365L31.3252 18.58C31.1752 18.91 30.9802 19.39 30.7402 20.02C30.5002 20.65 30.2902 21.235 30.1102 21.775C29.9302 22.285 29.8402 22.585 29.8402 22.675C29.8702 22.765 29.9752 22.75 30.1552 22.63C30.3352 22.48 30.5602 22.285 30.8302 22.045C31.1302 21.775 31.4302 21.52 31.7302 21.28C32.3602 20.68 33.0652 20.11 33.8452 19.57C34.6552 19 35.4202 18.52 36.1402 18.13C36.8602 17.74 37.4152 17.485 37.8052 17.365C38.3152 17.365 38.6602 17.455 38.8402 17.635C39.0502 17.815 39.3952 18.145 39.8752 18.625C40.0852 18.835 40.2052 19.105 40.2352 19.435C40.2652 19.765 40.2502 20.08 40.1902 20.38C40.1602 20.5 40.0702 20.8 39.9202 21.28C39.7702 21.73 39.6202 22.165 39.4702 22.585C39.3502 23.005 39.2902 23.215 39.2902 23.215C39.2902 23.215 39.4552 23.065 39.7852 22.765C40.1452 22.465 40.5352 22.15 40.9552 21.82C41.3752 21.46 41.6902 21.19 41.9002 21.01C43.0702 20.11 44.0902 19.54 44.9602 19.3C45.8302 19.06 46.5352 19.375 47.0752 20.245C47.4352 20.575 47.6152 20.935 47.6152 21.325C47.6452 21.715 47.6602 22.39 47.6602 23.35C47.6902 23.74 47.7202 24.205 47.7502 24.745C47.7802 25.285 47.8102 25.78 47.8402 26.23C47.9002 26.65 47.9602 26.905 48.0202 26.995C48.1102 27.115 48.2752 27.22 48.5152 27.31C48.7852 27.37 49.1302 27.43 49.5502 27.49C50.0002 27.55 50.2702 27.745 50.3602 28.075C50.4502 28.405 50.2552 28.72 49.7752 29.02C49.3252 29.29 48.8302 29.41 48.2902 29.38C47.7502 29.35 47.2702 29.26 46.8502 29.11Z" fill="#F2EB21"/>
</svg>
