<svg width="383" height="333" viewBox="0 0 383 333" fill="none" xmlns="http://www.w3.org/2000/svg">
<rect width="219.117" height="37.6674" rx="18.8337" transform="matrix(0.6861 -0.727507 0.738941 0.67377 31.4795 198.147)" fill="#5D4FB6"/>
<rect width="219.117" height="37.6674" rx="18.8337" transform="matrix(0.6861 -0.727507 0.738941 0.67377 75.1299 202.835)" fill="#5D4FB6"/>
<rect width="219.171" height="37.658" rx="18.829" transform="matrix(0.696634 -0.717426 0.728851 0.684672 87.4551 238.582)" fill="#5D4FB6"/>
<rect width="219.499" height="37.6005" rx="18.8002" transform="matrix(0.762459 -0.647037 0.657932 0.753077 149.57 214.59)" fill="#5D4FB6"/>
<rect width="219.499" height="37.6005" rx="18.8002" transform="matrix(0.762459 -0.647037 0.657932 0.753077 128.706 280.261)" fill="#5D4FB6"/>
<path d="M76.75 161.34V157.56H81.405V161.34H76.75ZM82.875 175.13H86.725C86.7483 175.83 86.655 176.53 86.445 177.23C86.235 177.93 85.8967 178.583 85.43 179.19C84.9867 179.82 84.4267 180.368 83.75 180.835C83.0733 181.325 82.28 181.698 81.37 181.955C80.46 182.235 79.4333 182.375 78.29 182.375C76.9133 182.375 75.7 182.188 74.65 181.815C73.6233 181.442 72.7483 180.917 72.025 180.24C71.325 179.563 70.8 178.77 70.45 177.86C70.1 176.927 69.925 175.923 69.925 174.85C69.925 173.357 70.2517 172.097 70.905 171.07C71.5583 170.043 72.4333 169.25 73.53 168.69C74.6267 168.13 75.8633 167.792 77.24 167.675V164.595H81.055V170.475H79.445C77.5317 170.475 76.1317 170.848 75.245 171.595C74.3583 172.342 73.915 173.392 73.915 174.745C73.915 176.075 74.3233 177.102 75.14 177.825C75.98 178.548 77.0767 178.91 78.43 178.91C79.3633 178.91 80.1567 178.747 80.81 178.42C81.4867 178.093 81.9883 177.65 82.315 177.09C82.665 176.507 82.8517 175.853 82.875 175.13ZM93.7912 164.945H110.451V168.34H93.7912V164.945ZM109.891 155.32H113.846V178H109.891V155.32ZM90.2562 155.32H94.2462V178H90.2562V155.32ZM125.469 178.385C123.882 178.385 122.424 178 121.094 177.23C119.787 176.46 118.737 175.398 117.944 174.045C117.174 172.668 116.789 171.093 116.789 169.32C116.789 167.5 117.186 165.913 117.979 164.56C118.772 163.183 119.846 162.11 121.199 161.34C122.552 160.57 124.069 160.185 125.749 160.185C127.616 160.185 129.097 160.593 130.194 161.41C131.291 162.227 132.072 163.323 132.539 164.7C133.006 166.077 133.239 167.617 133.239 169.32C133.239 170.277 133.099 171.292 132.819 172.365C132.539 173.415 132.096 174.395 131.489 175.305C130.906 176.215 130.112 176.962 129.109 177.545C128.129 178.105 126.916 178.385 125.469 178.385ZM126.659 175.165C127.966 175.165 129.074 174.92 129.984 174.43C130.917 173.917 131.617 173.217 132.084 172.33C132.574 171.443 132.819 170.44 132.819 169.32C132.819 168.083 132.574 167.033 132.084 166.17C131.594 165.283 130.894 164.607 129.984 164.14C129.074 163.65 127.966 163.405 126.659 163.405C124.792 163.405 123.346 163.953 122.319 165.05C121.292 166.147 120.779 167.57 120.779 169.32C120.779 170.463 121.024 171.478 121.514 172.365C122.027 173.252 122.727 173.94 123.614 174.43C124.501 174.92 125.516 175.165 126.659 175.165ZM132.819 160.57H136.739V178H133.099C133.099 178 133.076 177.778 133.029 177.335C132.982 176.892 132.936 176.355 132.889 175.725C132.842 175.072 132.819 174.453 132.819 173.87V160.57ZM151.483 178.385C150.036 178.385 148.811 178.105 147.808 177.545C146.828 176.962 146.034 176.215 145.428 175.305C144.844 174.395 144.413 173.415 144.133 172.365C143.876 171.292 143.748 170.277 143.748 169.32C143.748 168.037 143.876 166.847 144.133 165.75C144.389 164.653 144.809 163.697 145.393 162.88C145.999 162.04 146.793 161.387 147.773 160.92C148.776 160.43 150.013 160.185 151.483 160.185C153.163 160.185 154.644 160.57 155.928 161.34C157.234 162.11 158.261 163.183 159.008 164.56C159.778 165.913 160.163 167.5 160.163 169.32C160.163 171.093 159.778 172.668 159.008 174.045C158.238 175.398 157.199 176.46 155.893 177.23C154.586 178 153.116 178.385 151.483 178.385ZM150.293 175.165C151.483 175.165 152.509 174.92 153.373 174.43C154.259 173.94 154.948 173.252 155.438 172.365C155.928 171.478 156.173 170.463 156.173 169.32C156.173 167.57 155.659 166.147 154.633 165.05C153.606 163.93 152.159 163.37 150.293 163.37C149.009 163.37 147.901 163.615 146.968 164.105C146.058 164.595 145.358 165.283 144.868 166.17C144.401 167.033 144.168 168.083 144.168 169.32C144.168 170.44 144.401 171.443 144.868 172.33C145.358 173.217 146.058 173.917 146.968 174.43C147.878 174.92 148.986 175.165 150.293 175.165ZM144.168 153.57V173.87C144.168 174.5 144.133 175.212 144.063 176.005C143.993 176.798 143.923 177.463 143.853 178H140.248V153.57H144.168ZM162.878 153.57H166.763V178H162.878V153.57ZM178.203 178.385C176.616 178.385 175.158 178 173.828 177.23C172.521 176.46 171.471 175.398 170.678 174.045C169.908 172.668 169.523 171.093 169.523 169.32C169.523 167.5 169.919 165.913 170.713 164.56C171.506 163.183 172.579 162.11 173.933 161.34C175.286 160.57 176.803 160.185 178.483 160.185C180.349 160.185 181.831 160.593 182.928 161.41C184.024 162.227 184.806 163.323 185.273 164.7C185.739 166.077 185.973 167.617 185.973 169.32C185.973 170.277 185.833 171.292 185.553 172.365C185.273 173.415 184.829 174.395 184.223 175.305C183.639 176.215 182.846 176.962 181.843 177.545C180.863 178.105 179.649 178.385 178.203 178.385ZM179.393 175.165C180.699 175.165 181.808 174.92 182.718 174.43C183.651 173.917 184.351 173.217 184.818 172.33C185.308 171.443 185.553 170.44 185.553 169.32C185.553 168.083 185.308 167.033 184.818 166.17C184.328 165.283 183.628 164.607 182.718 164.14C181.808 163.65 180.699 163.405 179.393 163.405C177.526 163.405 176.079 163.953 175.053 165.05C174.026 166.147 173.513 167.57 173.513 169.32C173.513 170.463 173.758 171.478 174.248 172.365C174.761 173.252 175.461 173.94 176.348 174.43C177.234 174.92 178.249 175.165 179.393 175.165ZM185.553 160.57H189.473V178H185.833C185.833 178 185.809 177.778 185.763 177.335C185.716 176.892 185.669 176.355 185.623 175.725C185.576 175.072 185.553 174.453 185.553 173.87V160.57ZM192.693 160.57H196.578V178H192.693V160.57ZM203.928 160.185C204.932 160.185 205.853 160.325 206.693 160.605C207.557 160.885 208.292 161.317 208.898 161.9C209.528 162.46 210.007 163.16 210.333 164C210.683 164.84 210.858 165.832 210.858 166.975V178H206.973V167.745C206.973 166.322 206.623 165.272 205.923 164.595C205.247 163.895 204.173 163.545 202.703 163.545C201.583 163.545 200.557 163.79 199.623 164.28C198.713 164.747 197.967 165.365 197.383 166.135C196.8 166.882 196.462 167.71 196.368 168.62L196.333 166.73C196.45 165.867 196.707 165.05 197.103 164.28C197.5 163.487 198.025 162.787 198.678 162.18C199.332 161.55 200.102 161.06 200.988 160.71C201.875 160.36 202.855 160.185 203.928 160.185ZM217.823 160.185C218.85 160.185 219.783 160.325 220.623 160.605C221.463 160.885 222.187 161.317 222.793 161.9C223.423 162.46 223.913 163.16 224.263 164C224.613 164.84 224.788 165.832 224.788 166.975V178H220.868V167.745C220.868 166.322 220.518 165.272 219.818 164.595C219.142 163.895 218.068 163.545 216.598 163.545C215.478 163.545 214.452 163.79 213.518 164.28C212.608 164.747 211.862 165.365 211.278 166.135C210.718 166.882 210.392 167.71 210.298 168.62L210.228 166.66C210.345 165.82 210.613 165.015 211.033 164.245C211.453 163.452 211.99 162.752 212.643 162.145C213.297 161.538 214.055 161.06 214.918 160.71C215.805 160.36 216.773 160.185 217.823 160.185ZM237.285 178.385C235.349 178.385 233.61 178.035 232.07 177.335C230.53 176.635 229.317 175.608 228.43 174.255C227.544 172.902 227.1 171.257 227.1 169.32C227.1 167.407 227.544 165.773 228.43 164.42C229.317 163.043 230.53 161.993 232.07 161.27C233.61 160.547 235.349 160.185 237.285 160.185C239.222 160.185 240.949 160.547 242.465 161.27C243.982 161.993 245.172 163.043 246.035 164.42C246.922 165.773 247.365 167.407 247.365 169.32C247.365 171.257 246.922 172.902 246.035 174.255C245.172 175.608 243.982 176.635 242.465 177.335C240.949 178.035 239.222 178.385 237.285 178.385ZM237.285 175.2C238.405 175.2 239.432 174.978 240.365 174.535C241.299 174.092 242.034 173.427 242.57 172.54C243.13 171.653 243.41 170.58 243.41 169.32C243.41 168.06 243.13 166.987 242.57 166.1C242.034 165.213 241.299 164.537 240.365 164.07C239.455 163.58 238.429 163.335 237.285 163.335C236.142 163.335 235.104 163.568 234.17 164.035C233.237 164.502 232.479 165.178 231.895 166.065C231.335 166.952 231.055 168.037 231.055 169.32C231.055 170.58 231.335 171.653 231.895 172.54C232.455 173.427 233.202 174.092 234.135 174.535C235.092 174.978 236.142 175.2 237.285 175.2ZM249.022 172.26H252.627C252.814 173.147 253.292 173.87 254.062 174.43C254.832 174.967 255.871 175.235 257.177 175.235C258.017 175.235 258.671 175.142 259.137 174.955C259.627 174.768 259.966 174.512 260.152 174.185C260.362 173.858 260.467 173.485 260.467 173.065C260.467 172.552 260.316 172.155 260.012 171.875C259.732 171.595 259.312 171.362 258.752 171.175C258.192 170.988 257.492 170.825 256.652 170.685C255.789 170.475 254.937 170.242 254.097 169.985C253.257 169.728 252.499 169.413 251.822 169.04C251.146 168.643 250.609 168.153 250.212 167.57C249.839 166.963 249.652 166.228 249.652 165.365C249.652 164.572 249.827 163.86 250.177 163.23C250.551 162.577 251.064 162.028 251.717 161.585C252.371 161.142 253.141 160.803 254.027 160.57C254.914 160.313 255.882 160.185 256.932 160.185C258.449 160.185 259.709 160.43 260.712 160.92C261.739 161.41 262.509 162.098 263.022 162.985C263.559 163.872 263.827 164.887 263.827 166.03H260.397C260.211 165.097 259.849 164.42 259.312 164C258.776 163.58 257.971 163.37 256.897 163.37C255.824 163.37 255.007 163.557 254.447 163.93C253.887 164.303 253.607 164.817 253.607 165.47C253.607 165.96 253.782 166.357 254.132 166.66C254.506 166.94 255.031 167.185 255.707 167.395C256.384 167.605 257.177 167.815 258.087 168.025C258.927 168.258 259.721 168.503 260.467 168.76C261.214 168.993 261.879 169.297 262.462 169.67C263.069 170.02 263.547 170.487 263.897 171.07C264.247 171.653 264.422 172.377 264.422 173.24C264.422 174.313 264.131 175.235 263.547 176.005C262.987 176.775 262.171 177.37 261.097 177.79C260.024 178.187 258.729 178.385 257.212 178.385C255.882 178.385 254.727 178.233 253.747 177.93C252.791 177.627 251.986 177.23 251.332 176.74C250.702 176.25 250.212 175.725 249.862 175.165C249.512 174.605 249.267 174.068 249.127 173.555C249.011 173.042 248.976 172.61 249.022 172.26ZM272.352 170.965V165.05H273.962C275.852 165.05 277.24 164.677 278.127 163.93C279.037 163.183 279.492 162.133 279.492 160.78C279.492 159.473 279.072 158.458 278.232 157.735C277.415 157.012 276.33 156.65 274.977 156.65C274.044 156.65 273.239 156.813 272.562 157.14C271.909 157.467 271.407 157.922 271.057 158.505C270.707 159.065 270.532 159.707 270.532 160.43H266.647C266.624 159.73 266.717 159.03 266.927 158.33C267.16 157.63 267.499 156.965 267.942 156.335C268.409 155.705 268.98 155.157 269.657 154.69C270.334 154.223 271.127 153.862 272.037 153.605C272.947 153.325 273.974 153.185 275.117 153.185C276.494 153.185 277.695 153.372 278.722 153.745C279.772 154.118 280.647 154.643 281.347 155.32C282.047 155.997 282.572 156.79 282.922 157.7C283.295 158.61 283.482 159.613 283.482 160.71C283.482 162.18 283.155 163.44 282.502 164.49C281.849 165.517 280.974 166.31 279.877 166.87C278.78 167.43 277.555 167.768 276.202 167.885V170.965H272.352ZM272.002 178V174.22H276.657V178H272.002Z" fill="white"/>
</svg>
