<svg width="430" height="670" viewBox="0 0 430 670" fill="none" xmlns="http://www.w3.org/2000/svg">
<g clip-path="url(#clip0_920_17)">
<rect width="437" height="670" fill="url(#paint0_linear_920_17)"/>
<path opacity="0.6" d="M194.527 513.287C212.057 500.934 235.547 501.275 252.712 514.129L516.334 711.559C533.499 724.414 540.434 746.859 533.512 767.156L427.21 1078.89C420.288 1099.18 401.084 1112.71 379.642 1112.4L50.3205 1107.63C28.878 1107.32 10.0742 1093.24 3.74354 1072.75L-93.4853 758.074C-99.816 737.585 -92.2336 715.35 -74.7037 702.997L194.527 513.287Z" stroke="white" stroke-opacity="0.45"/>
<path opacity="0.6" d="M196.681 290.815C214.21 278.462 237.7 278.803 254.865 291.657L686.139 614.643C703.304 627.498 710.239 649.943 703.317 670.24L529.411 1180.21C522.489 1200.51 503.286 1214.04 481.843 1213.73L-56.9105 1205.93C-78.353 1205.62 -97.1568 1191.53 -103.487 1171.05L-262.549 656.249C-268.88 635.76 -261.297 613.524 -243.767 601.172L196.681 290.815Z" stroke="white" stroke-opacity="0.45"/>
<path opacity="0.6" d="M199.539 84.025C217.069 71.6727 240.559 72.013 257.724 84.8678L844.137 524.039C861.302 536.894 868.237 559.339 861.316 579.636L624.851 1273.06C617.93 1293.36 598.726 1306.89 577.283 1306.58L-155.273 1295.97C-176.716 1295.66 -195.52 1281.57 -201.85 1261.08L-418.13 561.102C-424.461 540.613 -416.879 518.378 -399.349 506.026L199.539 84.025Z" stroke="white" stroke-opacity="0.45"/>
</g>
<defs>
<linearGradient id="paint0_linear_920_17" x1="218.5" y1="-267" x2="218.5" y2="670" gradientUnits="userSpaceOnUse">
<stop offset="0.035" stop-color="#010205"/>
<stop offset="0.61" stop-color="#5D4FB6"/>
</linearGradient>
<clipPath id="clip0_920_17">
<rect width="437" height="670" fill="white"/>
</clipPath>
</defs>
</svg>
