<svg width="1440" height="659" viewBox="0 0 1440 659" fill="none" xmlns="http://www.w3.org/2000/svg">
<g clip-path="url(#clip0_898_47)">
<path d="M0 0H1440V559C1440 614.228 1395.23 659 1340 659H100C44.7715 659 0 614.228 0 559V0Z" fill="#010205"/>
<g clip-path="url(#clip1_898_47)">
<path d="M0 0H1440V570C1440 625.228 1395.23 670 1340 670H100C44.7715 670 0 625.228 0 570V0Z" fill="url(#paint0_linear_898_47)"/>
<path opacity="0.6" d="M695.527 385.287C713.057 372.934 736.547 373.275 753.712 386.129L1017.33 583.559C1034.5 596.414 1041.43 618.859 1034.51 639.156L928.21 950.885C921.288 971.182 902.084 984.714 880.642 984.404L551.32 979.633C529.878 979.323 511.074 965.24 504.744 944.751L407.515 630.074C401.184 609.585 408.766 587.35 426.296 574.997L695.527 385.287Z" stroke="white" stroke-opacity="0.45"/>
<path opacity="0.6" d="M697.681 162.815C715.21 150.462 738.7 150.803 755.865 163.657L1187.14 486.643C1204.3 499.498 1211.24 521.943 1204.32 542.24L1030.41 1052.21C1023.49 1072.51 1004.29 1086.04 982.843 1085.73L444.089 1077.93C422.647 1077.62 403.843 1063.53 397.513 1043.05L238.451 528.249C232.12 507.76 239.703 485.524 257.233 473.172L697.681 162.815Z" stroke="white" stroke-opacity="0.45"/>
<path opacity="0.6" d="M700.539 -43.975C718.069 -56.3273 741.559 -55.987 758.724 -43.1322L1345.14 396.039C1362.3 408.894 1369.24 431.339 1362.32 451.636L1125.85 1145.06C1118.93 1165.36 1099.73 1178.89 1078.28 1178.58L345.727 1167.97C324.284 1167.66 305.48 1153.57 299.15 1133.08L82.8696 433.102C76.5389 412.613 84.1213 390.378 101.651 378.026L700.539 -43.975Z" stroke="white" stroke-opacity="0.45"/>
</g>
</g>
<defs>
<linearGradient id="paint0_linear_898_47" x1="720" y1="-267" x2="720" y2="670" gradientUnits="userSpaceOnUse">
<stop offset="0.035" stop-color="#010205"/>
<stop offset="0.61" stop-color="#5D4FB6"/>
</linearGradient>
<clipPath id="clip0_898_47">
<path d="M0 0H1440V559C1440 614.228 1395.23 659 1340 659H100C44.7715 659 0 614.228 0 559V0Z" fill="white"/>
</clipPath>
<clipPath id="clip1_898_47">
<path d="M0 0H1440V570C1440 625.228 1395.23 670 1340 670H100C44.7715 670 0 625.228 0 570V0Z" fill="white"/>
</clipPath>
</defs>
</svg>
