<svg width="51" height="42" viewBox="0 0 51 42" fill="none" xmlns="http://www.w3.org/2000/svg">
<path d="M6.32648 34.25C5.78648 34.1 5.35148 33.965 5.02148 33.845C4.69149 33.755 4.52649 33.71 4.52649 33.71C4.58648 33.56 4.55648 33.425 4.43648 33.305C4.34648 33.185 4.13648 33.11 3.80648 33.08C3.35648 32.81 2.93648 32.465 2.54648 32.045C2.18648 31.655 1.88648 31.265 1.64648 30.875C1.40648 30.485 1.22648 30.155 1.10648 29.885C0.896485 29.435 0.791485 29.165 0.791485 29.075C0.821485 28.955 1.00148 28.82 1.33148 28.67C1.66148 28.43 1.90148 28.355 2.05148 28.445C2.23148 28.535 2.44148 28.835 2.68148 29.345C3.07148 30.035 3.73148 30.56 4.66148 30.92C5.62148 31.28 6.68649 31.445 7.85649 31.415C9.05648 31.355 10.1965 31.085 11.2765 30.605C12.3865 30.155 13.0765 29.69 13.3465 29.21C13.6465 28.7 13.5415 28.055 13.0315 27.275C12.9415 27.035 12.8365 26.84 12.7165 26.69C12.5965 26.54 12.4015 26.345 12.1315 26.105C11.8915 25.865 11.4865 25.475 10.9165 24.935C10.4665 24.725 10.0465 24.53 9.65648 24.35C9.29648 24.17 8.90649 23.975 8.48649 23.765C8.00649 23.525 7.42148 23.18 6.73148 22.73C6.07148 22.25 5.44148 21.725 4.84149 21.155C4.24148 20.585 3.80648 20.06 3.53648 19.58C3.05648 19.13 2.69648 18.515 2.45648 17.735C2.21648 16.925 2.12648 16.07 2.18648 15.17C2.24648 14.27 2.47148 13.46 2.86148 12.74C3.04148 12.32 3.34148 11.81 3.76148 11.21C4.21148 10.58 4.70648 9.95 5.24648 9.32C5.78648 8.69 6.31148 8.12 6.82149 7.61C7.33148 7.1 7.75148 6.74 8.08148 6.53C8.32149 6.29 8.57649 6.05 8.84648 5.81C9.11648 5.54 9.25148 5.405 9.25148 5.405C9.28149 5.255 9.32649 5.18 9.38649 5.18C9.47649 5.18 9.52149 5.18 9.52149 5.18C9.67149 5.09 10.0015 4.94 10.5115 4.73C11.0215 4.52 11.5765 4.13 12.1765 3.56C14.1865 2.6 15.8215 1.895 17.0815 1.445C18.3415 0.995 19.3765 0.77 20.1865 0.77C20.9365 0.799999 21.6115 0.979999 22.2115 1.31C22.8415 1.61 23.3515 2.015 23.7415 2.525C24.1615 3.035 24.4165 3.65 24.5065 4.37C24.7165 5.09 24.6565 5.93 24.3265 6.89C23.9965 7.82 23.5015 8.705 22.8415 9.545C22.2115 10.355 21.5215 10.97 20.7715 11.39C19.9315 11.75 19.3615 11.915 19.0615 11.885C18.7915 11.825 18.6715 11.51 18.7015 10.94C18.7015 10.7 18.7765 10.415 18.9265 10.085C19.1065 9.755 19.5715 9.17 20.3215 8.33C21.2815 6.92 21.8665 5.795 22.0765 4.955C22.2865 4.115 22.0915 3.65 21.4915 3.56C21.3115 3.5 20.9815 3.5 20.5015 3.56C20.0515 3.62 19.5415 3.71 18.9715 3.83C18.4315 3.92 17.9665 4.025 17.5765 4.145C17.1865 4.235 16.9915 4.31 16.9915 4.37C16.9915 4.37 16.9915 4.415 16.9915 4.505C16.9915 4.595 16.9315 4.625 16.8115 4.595C16.7515 4.595 16.4965 4.715 16.0465 4.955C15.5965 5.195 15.0565 5.51 14.4265 5.9C13.7965 6.29 13.1665 6.68 12.5365 7.07C11.9065 7.46 11.3665 7.805 10.9165 8.105C10.4965 8.375 10.2715 8.54 10.2415 8.6C10.1815 8.93 9.83649 9.23 9.20649 9.5C8.60648 9.86 8.05148 10.385 7.54149 11.075C7.06149 11.765 6.52148 12.62 5.92148 13.64C5.41148 14.33 5.05149 15.08 4.84149 15.89C4.63149 16.67 4.63149 17.3 4.84149 17.78C4.99148 18.26 5.45648 18.875 6.23648 19.625C7.01649 20.375 7.99149 21.095 9.16148 21.785C10.1815 22.355 11.0965 22.925 11.9065 23.495C12.7165 24.035 13.3765 24.56 13.8865 25.07C14.4265 25.58 14.7865 26.03 14.9665 26.42C15.3265 26.93 15.5815 27.455 15.7315 27.995C15.9115 28.505 16.0015 29 16.0015 29.48C16.0315 29.96 15.9865 30.395 15.8665 30.785C15.6565 31.265 15.2815 31.76 14.7415 32.27C14.2315 32.78 13.7965 33.02 13.4365 32.99C13.1065 33.08 12.8515 33.185 12.6715 33.305C12.5215 33.425 12.3415 33.53 12.1315 33.62C11.9215 33.74 11.4715 33.86 10.7815 33.98C10.1215 34.1 9.38649 34.175 8.57649 34.205C7.76648 34.265 7.01648 34.28 6.32648 34.25ZM23.9468 31.325C23.5568 31.325 23.2418 31.25 23.0018 31.1C22.7918 30.95 22.5218 30.74 22.1918 30.47C21.6218 29.87 21.2168 29.3 20.9768 28.76C20.7368 28.19 20.6618 27.65 20.7518 27.14C20.8418 26.9 20.8718 26.675 20.8418 26.465C20.8418 26.225 20.8418 26.105 20.8418 26.105C20.6918 25.955 20.6468 25.865 20.7068 25.835C20.7668 25.775 20.8268 25.685 20.8868 25.565C21.0668 25.565 21.1268 25.4 21.0668 25.07C21.0068 24.83 21.1268 24.305 21.4268 23.495C21.7268 22.685 22.1018 21.92 22.5518 21.2C22.7318 20.9 23.0018 20.51 23.3618 20.03C23.7218 19.52 24.1118 19.025 24.5318 18.545C24.9818 18.035 25.3868 17.63 25.7468 17.33C26.4968 16.7 27.1568 16.235 27.7268 15.935C28.2968 15.635 28.9118 15.41 29.5718 15.26C30.2318 15.11 30.6818 15.035 30.9218 15.035C31.1918 15.035 31.5518 15.275 32.0018 15.755C32.6918 16.055 33.1868 16.415 33.4868 16.835C33.8168 17.255 34.0268 17.87 34.1168 18.68C34.2068 19.58 34.1318 20.615 33.8918 21.785C33.6818 22.925 32.9768 24.35 31.7768 26.06C31.0268 27.14 30.3368 27.95 29.7068 28.49C29.0768 29 28.3268 29.51 27.4568 30.02C26.8268 30.44 26.2568 30.755 25.7468 30.965C25.2368 31.145 24.6368 31.265 23.9468 31.325ZM28.2668 26.555C28.9868 25.745 29.5568 24.98 29.9768 24.26C30.4268 23.54 30.8468 22.625 31.2368 21.515C31.3568 21.185 31.4318 20.78 31.4618 20.3C31.4918 19.79 31.4768 19.325 31.4168 18.905C31.3868 18.455 31.2818 18.2 31.1018 18.14C30.7418 17.93 30.3068 17.87 29.7968 17.96C29.2868 18.02 28.7318 18.305 28.1318 18.815C27.2018 19.595 26.3918 20.57 25.7018 21.74C25.0118 22.88 24.3368 24.185 23.6768 25.655C23.2268 26.735 23.1218 27.605 23.3618 28.265C23.6318 28.895 24.1868 29.12 25.0268 28.94C25.8968 28.73 26.9768 27.935 28.2668 26.555ZM35.3216 40.955C34.6016 41.165 33.8066 41.195 32.9366 41.045C32.0966 40.925 31.3616 40.67 30.7316 40.28C30.0716 39.89 29.6966 39.455 29.6066 38.975C29.5766 38.795 29.6366 38.6 29.7866 38.39C29.9066 38.18 30.0716 38.03 30.2816 37.94C30.4616 37.88 30.6266 37.94 30.7766 38.12C31.0166 38.27 31.4516 38.45 32.0816 38.66C32.7116 38.9 33.4166 38.945 34.1966 38.795C34.8866 38.645 35.5616 38.24 36.2216 37.58C36.9116 36.92 37.4666 36.305 37.8866 35.735C38.1266 35.375 38.5316 34.73 39.1016 33.8C39.6716 32.87 40.2566 31.85 40.8566 30.74C41.4866 29.6 42.0116 28.55 42.4316 27.59C42.5216 27.35 42.6266 27.065 42.7466 26.735C42.8666 26.405 43.0166 26.135 43.1966 25.925C43.3766 25.565 43.5266 25.235 43.6466 24.935C43.7966 24.605 43.8866 24.38 43.9166 24.26C43.9466 24.11 44.0816 23.81 44.3216 23.36C44.5616 22.91 44.7866 22.46 44.9966 22.01C45.1466 21.56 45.3716 20.9 45.6716 20.03C45.9716 19.16 46.2716 18.455 46.5716 17.915C46.9316 17.225 47.2166 16.67 47.4266 16.25C47.6666 15.8 47.9216 15.53 48.1916 15.44C48.4616 15.23 48.6416 15.125 48.7316 15.125C48.8516 15.125 49.0766 15.215 49.4066 15.395C49.7666 15.755 49.9916 16.115 50.0816 16.475C50.1716 16.805 50.1266 17.225 49.9466 17.735C49.7966 18.215 49.4966 18.875 49.0466 19.715C48.8066 20.435 48.5366 21.095 48.2366 21.695C47.9666 22.265 47.7566 22.64 47.6066 22.82C47.4566 23.18 47.2766 23.585 47.0666 24.035C46.8866 24.455 46.7216 24.845 46.5716 25.205C46.0316 26.405 45.5666 27.38 45.1766 28.13C44.7866 28.88 44.4416 29.57 44.1416 30.2C43.8416 30.83 43.5266 31.565 43.1966 32.405C42.5066 33.515 41.8316 34.565 41.1716 35.555C40.5416 36.575 39.8666 37.52 39.1466 38.39C38.8466 38.66 38.4716 38.975 38.0216 39.335C37.5716 39.695 37.1066 40.025 36.6266 40.325C36.1766 40.625 35.7416 40.835 35.3216 40.955ZM41.3966 30.155C40.9466 30.095 40.4966 29.825 40.0466 29.345C39.6266 28.865 39.2966 28.355 39.0566 27.815C38.8166 27.275 38.7266 26.885 38.7866 26.645C38.7866 26.495 38.7866 26.375 38.7866 26.285C38.7866 26.195 38.7866 26.15 38.7866 26.15C38.6066 26.15 38.4416 25.925 38.2916 25.475C38.1716 25.025 38.0816 24.44 38.0216 23.72C37.9616 23 37.9166 22.235 37.8866 21.425C37.8866 20.615 37.9166 19.85 37.9766 19.13C38.0966 18.62 38.1566 18.065 38.1566 17.465C38.1566 16.835 38.1716 16.34 38.2016 15.98C38.1716 15.5 38.2166 15.185 38.3366 15.035C38.4566 14.855 38.5766 14.72 38.6966 14.63C39.5366 14.27 40.0916 14.495 40.3616 15.305C40.6616 16.085 40.7366 17.555 40.5866 19.715C40.5266 20.915 40.5266 22.115 40.5866 23.315C40.6466 24.515 40.8116 25.565 41.0816 26.465C41.3816 27.365 41.7866 27.98 42.2966 28.31C42.5066 28.43 42.6116 28.595 42.6116 28.805C42.6116 29.015 42.5516 29.24 42.4316 29.48C42.3116 29.69 42.1466 29.87 41.9366 30.02C41.7566 30.14 41.5766 30.185 41.3966 30.155Z" fill="#F2EB21"/>
</svg>
