<svg width="103" height="45" viewBox="0 0 103 45" fill="none" xmlns="http://www.w3.org/2000/svg">
<g clip-path="url(#clip0_1042_123)">
<g clip-path="url(#clip1_1042_123)">
<path opacity="0.6" d="M24.8476 4.9165H18.3198C14.7146 4.9165 11.792 7.83908 11.792 11.4443C11.792 15.0495 14.7146 17.9721 18.3198 17.9721H24.8476V4.9165Z" fill="#515253"/>
<path opacity="0.4" d="M24.8476 17.9717H18.3198C14.7146 17.9717 11.792 20.8943 11.792 24.4994C11.792 28.1047 14.7146 31.0273 18.3198 31.0273H24.8476V17.9717Z" fill="#515253"/>
<path d="M37.9013 24.4994C37.9013 28.1047 34.9787 31.0273 31.3734 31.0273C27.7683 31.0273 24.8457 28.1047 24.8457 24.4994C24.8457 20.8943 27.7683 17.9717 31.3734 17.9717C34.9787 17.9717 37.9013 20.8943 37.9013 24.4994Z" fill="#515253"/>
<path opacity="0.2" d="M18.3198 31.0283H24.8476V37.556C24.8476 41.1613 21.925 44.0839 18.3198 44.0839C14.7146 44.0839 11.792 41.1613 11.792 37.556C11.792 33.9509 14.7146 31.0283 18.3198 31.0283Z" fill="#515253"/>
<path opacity="0.8" d="M24.8457 4.9165H31.3734C34.9787 4.9165 37.9013 7.83908 37.9013 11.4443C37.9013 15.0495 34.9787 17.9721 31.3734 17.9721H24.8457V4.9165Z" fill="#515253"/>
</g>
<path d="M55.2663 29V15.9752H63.1083V18.155H57.4461V21.4022H62.0229V23.573H57.4461V29H55.2663ZM64.0117 17.748V15.7491H66.1915V17.748H64.0117ZM64.0117 29V19.2314H66.1915V29H64.0117ZM72.1029 33.613C71.5602 33.613 71.0386 33.5285 70.5381 33.3597C70.0436 33.1909 69.5974 32.9466 69.1994 32.627C68.8014 32.3135 68.4758 31.9336 68.2226 31.4874L70.2305 30.4924C70.4175 30.8482 70.6798 31.1105 71.0175 31.2793C71.3612 31.4542 71.726 31.5416 72.1119 31.5416C72.5642 31.5416 72.9682 31.4602 73.3239 31.2974C73.6797 31.1407 73.9541 30.9055 74.147 30.5919C74.346 30.2844 74.4395 29.8985 74.4274 29.4342V26.6573H74.6988V19.2314H76.6073V29.4703C76.6073 29.7176 76.5952 29.9527 76.5711 30.1759C76.553 30.405 76.5198 30.6281 76.4716 30.8452C76.3269 31.4783 76.0495 31.9969 75.6395 32.4009C75.2294 32.811 74.7199 33.1155 74.1109 33.3145C73.5079 33.5135 72.8385 33.613 72.1029 33.613ZM71.9129 29.2714C71.0144 29.2714 70.2305 29.0452 69.5612 28.593C68.8919 28.1407 68.3733 27.5257 68.0055 26.7478C67.6376 25.9699 67.4537 25.0926 67.4537 24.1157C67.4537 23.1268 67.6376 22.2464 68.0055 21.4746C68.3793 20.6967 68.907 20.0846 69.5884 19.6384C70.2697 19.1862 71.0717 18.96 71.9943 18.96C72.9229 18.96 73.7008 19.1862 74.3279 19.6384C74.9611 20.0846 75.4405 20.6967 75.7661 21.4746C76.0917 22.2524 76.2545 23.1328 76.2545 24.1157C76.2545 25.0865 76.0917 25.9639 75.7661 26.7478C75.4405 27.5257 74.9551 28.1407 74.3098 28.593C73.6646 29.0452 72.8657 29.2714 71.9129 29.2714ZM72.2476 27.3176C72.8325 27.3176 73.3028 27.185 73.6586 26.9196C74.0204 26.6483 74.2827 26.2714 74.4455 25.789C74.6144 25.3066 74.6988 24.7488 74.6988 24.1157C74.6988 23.4765 74.6144 22.9187 74.4455 22.4424C74.2827 21.96 74.0264 21.5861 73.6767 21.3208C73.327 21.0494 72.8747 20.9138 72.3199 20.9138C71.735 20.9138 71.2526 21.0585 70.8727 21.3479C70.4929 21.6313 70.2125 22.0173 70.0316 22.5057C69.8507 22.9881 69.7602 23.5248 69.7602 24.1157C69.7602 24.7127 69.8476 25.2554 70.0225 25.7438C70.2034 26.2262 70.4778 26.6091 70.8456 26.8925C71.2134 27.1759 71.6808 27.3176 72.2476 27.3176ZM89.9706 29V23.0665C89.9706 22.3971 89.8047 21.8756 89.4731 21.5017C89.1414 21.1218 88.6922 20.9319 88.1254 20.9319C87.7756 20.9319 87.4621 21.0133 87.1847 21.1761C86.9073 21.3329 86.6872 21.568 86.5244 21.8816C86.3616 22.1891 86.2802 22.5569 86.2802 22.9851L85.3124 22.4152C85.3063 21.7399 85.4571 21.1459 85.7646 20.6334C86.0782 20.1148 86.5003 19.7108 87.0309 19.4213C87.5616 19.1319 88.1525 18.9872 88.8037 18.9872C89.8831 18.9872 90.7092 19.3128 91.2821 19.964C91.861 20.6093 92.1504 21.4595 92.1504 22.5147V29H89.9706ZM78.2211 29V19.2314H80.1477V22.2615H80.419V29H78.2211ZM84.1094 29V23.0936C84.1094 22.4122 83.9436 21.8816 83.6119 21.5017C83.2803 21.1218 82.828 20.9319 82.2552 20.9319C81.7004 20.9319 81.2542 21.1218 80.9165 21.5017C80.5849 21.8816 80.419 22.376 80.419 22.9851L79.4422 22.3338C79.4422 21.7007 79.599 21.1308 79.9125 20.6243C80.2261 20.1178 80.6482 19.7198 81.1788 19.4304C81.7155 19.1349 82.3155 18.9872 82.9788 18.9872C83.7084 18.9872 84.3174 19.144 84.8059 19.4575C85.3003 19.7651 85.6681 20.1872 85.9093 20.7238C86.1566 21.2545 86.2802 21.8544 86.2802 22.5238V29H84.1094ZM96.3367 29.2714C95.6312 29.2714 95.0342 29.1387 94.5458 28.8734C94.0573 28.602 93.6865 28.2432 93.4332 27.797C93.186 27.3508 93.0624 26.8593 93.0624 26.3227C93.0624 25.8523 93.1408 25.4302 93.2976 25.0564C93.4543 24.6765 93.6955 24.3509 94.0212 24.0795C94.3468 23.8021 94.7689 23.576 95.2875 23.4011C95.6794 23.2745 96.1377 23.1599 96.6623 23.0574C97.1929 22.9549 97.7658 22.8615 98.3808 22.777C99.0019 22.6866 99.6502 22.5901 100.326 22.4876L99.5477 22.9308C99.5537 22.2554 99.4029 21.758 99.0954 21.4384C98.7879 21.1188 98.2693 20.959 97.5397 20.959C97.0995 20.959 96.6744 21.0615 96.2643 21.2665C95.8543 21.4715 95.5679 21.8243 95.405 22.3248L93.4151 21.7007C93.6563 20.8746 94.1146 20.2113 94.79 19.7108C95.4714 19.2103 96.3879 18.96 97.5397 18.96C98.408 18.96 99.1708 19.1018 99.828 19.3852C100.491 19.6686 100.983 20.1329 101.302 20.7781C101.477 21.1218 101.583 21.4746 101.619 21.8364C101.655 22.1921 101.673 22.5811 101.673 23.0032V29H99.7647V26.8835L100.081 27.2272C99.6411 27.9327 99.1256 28.4513 98.5346 28.7829C97.9497 29.1085 97.2171 29.2714 96.3367 29.2714ZM96.7708 27.5347C97.2653 27.5347 97.6874 27.4473 98.0371 27.2724C98.3869 27.0975 98.6643 26.8835 98.8693 26.6302C99.0803 26.3769 99.222 26.1388 99.2944 25.9157C99.409 25.6383 99.4723 25.3217 99.4843 24.9659C99.5024 24.6041 99.5115 24.3117 99.5115 24.0886L100.181 24.2876C99.5235 24.3901 98.9597 24.4805 98.4894 24.5589C98.019 24.6373 97.615 24.7127 97.2774 24.785C96.9397 24.8514 96.6412 24.9267 96.3819 25.0112C96.1286 25.1016 95.9146 25.2071 95.7397 25.3277C95.5648 25.4483 95.4292 25.587 95.3327 25.7438C95.2422 25.9006 95.197 26.0845 95.197 26.2955C95.197 26.5367 95.2573 26.7508 95.3779 26.9377C95.4985 27.1186 95.6734 27.2634 95.9025 27.3719C96.1377 27.4804 96.4271 27.5347 96.7708 27.5347Z" fill="#515253"/>
</g>
<defs>
<clipPath id="clip0_1042_123">
<rect width="103" height="45" fill="white"/>
</clipPath>
<clipPath id="clip1_1042_123">
<rect width="44" height="44" fill="white" transform="translate(0 0.5)"/>
</clipPath>
</defs>
</svg>
