<svg width="103" height="45" viewBox="0 0 103 45" fill="none" xmlns="http://www.w3.org/2000/svg">
<g clip-path="url(#clip0_1042_123)">
<g clip-path="url(#clip1_1042_123)">
<path opacity="0.6" d="M24.8476 4.9165H18.3198C14.7146 4.9165 11.792 7.83908 11.792 11.4443C11.792 15.0495 14.7146 17.9721 18.3198 17.9721H24.8476V4.9165Z" fill="#515253"/>
<path opacity="0.4" d="M24.8476 17.9717H18.3198C14.7146 17.9717 11.792 20.8943 11.792 24.4994C11.792 28.1047 14.7146 31.0273 18.3198 31.0273H24.8476V17.9717Z" fill="#515253"/>
<path d="M37.9013 24.4994C37.9013 28.1047 34.9787 31.0273 31.3734 31.0273C27.7683 31.0273 24.8457 28.1047 24.8457 24.4994C24.8457 20.8943 27.7683 17.9717 31.3734 17.9717C34.9787 17.9717 37.9013 20.8943 37.9013 24.4994Z" fill="#515253"/>
<path opacity="0.2" d="M18.3198 31.0283H24.8476V37.556C24.8476 41.1613 21.925 44.0839 18.3198 44.0839C14.7146 44.0839 11.792 41.1613 11.792 37.556C11.792 33.9509 14.7146 31.0283 18.3198 31.0283Z" fill="#515253"/>
<path opacity="0.8" d="M24.8457 4.9165H31.3734C34.9787 4.9165 37.9013 7.83908 37.9013 11.4443C37.9013 15.0495 34.9787 17.9721 31.3734 17.9721H24.8457V4.9165Z" fill="#515253"/>
</g>
<path d="M64.3941 15.5737V17.1505H57.0893V20.1754H63.0748V21.6879H57.0893V26H55.255V15.5737H64.3941ZM67.1581 14.5922V16.3138H65.0181V14.5922H67.1581ZM65.179 17.9872H66.9811V26H65.179V17.9872ZM71.8878 24.7611C71.1369 24.7611 70.4558 24.627 69.8444 24.3588C69.2437 24.0907 68.7663 23.6991 68.4124 23.1842C68.0691 22.6694 67.8975 22.0526 67.8975 21.3339C67.8975 20.6152 68.0638 19.9931 68.3963 19.4675C68.7395 18.9419 69.2115 18.5342 69.8122 18.2446C70.4236 17.955 71.1155 17.8102 71.8878 17.8102C72.1131 17.8102 72.3276 17.8263 72.5314 17.8585C72.7459 17.8906 72.9497 17.9335 73.1428 17.9872L76.8918 18.0033V19.4996C76.3769 19.5104 75.8567 19.4406 75.3311 19.2905C74.8162 19.1296 74.3603 18.9633 73.9634 18.7917L73.9151 18.6951C74.2799 18.8775 74.607 19.1028 74.8966 19.3709C75.197 19.6284 75.433 19.9233 75.6046 20.2559C75.7762 20.5884 75.862 20.9638 75.862 21.3822C75.862 22.0901 75.6904 22.6962 75.3472 23.2003C75.0146 23.7045 74.548 24.0907 73.9473 24.3588C73.3574 24.627 72.6709 24.7611 71.8878 24.7611ZM74.4622 29.2663V28.8962C74.4622 28.3706 74.3067 28.0005 73.9956 27.786C73.6845 27.5715 73.2501 27.4642 72.6923 27.4642H70.5202C70.0911 27.4642 69.721 27.4266 69.4099 27.3516C69.1096 27.2872 68.8683 27.1853 68.6859 27.0459C68.5035 26.9171 68.3695 26.7616 68.2836 26.5792C68.1978 26.4076 68.1549 26.2145 68.1549 26C68.1549 25.5709 68.2836 25.2491 68.5411 25.0346C68.8093 24.8201 69.1579 24.6806 69.5869 24.6163C70.0267 24.5519 70.488 24.5412 70.9707 24.5841L71.8878 24.7611C71.2549 24.7825 70.7722 24.8415 70.4397 24.9381C70.1179 25.0239 69.957 25.2009 69.957 25.469C69.957 25.6299 70.0214 25.7586 70.1501 25.8552C70.2788 25.9517 70.4612 26 70.6971 26H72.9819C73.6363 26 74.2101 26.0751 74.7036 26.2253C75.197 26.3862 75.5778 26.649 75.8459 27.0137C76.1248 27.3891 76.2643 27.8986 76.2643 28.5422V29.2663H74.4622ZM71.8878 23.3612C72.3169 23.3612 72.6977 23.2808 73.0302 23.1199C73.3627 22.959 73.6255 22.7284 73.8186 22.428C74.0117 22.1277 74.1082 21.763 74.1082 21.3339C74.1082 20.9048 74.0117 20.5348 73.8186 20.2237C73.6255 19.9126 73.3627 19.6766 73.0302 19.5157C72.6977 19.3548 72.3169 19.2744 71.8878 19.2744C71.4695 19.2744 71.0887 19.3548 70.7454 19.5157C70.4129 19.6766 70.1501 19.9126 69.957 20.2237C69.7639 20.524 69.6674 20.8941 69.6674 21.3339C69.6674 21.763 69.7639 22.1277 69.957 22.428C70.1501 22.7284 70.4129 22.959 70.7454 23.1199C71.0779 23.2808 71.4587 23.3612 71.8878 23.3612ZM77.5204 17.9872H79.3064V26H77.5204V17.9872ZM82.6853 17.8102C83.1466 17.8102 83.5703 17.8745 83.9564 18.0033C84.3533 18.132 84.6912 18.3304 84.9701 18.5986C85.2597 18.856 85.4796 19.1778 85.6298 19.564C85.7907 19.9502 85.8711 20.406 85.8711 20.9316V26H84.0852V21.2856C84.0852 20.6313 83.9243 20.1486 83.6025 19.8375C83.2914 19.5157 82.798 19.3548 82.1222 19.3548C81.6073 19.3548 81.1353 19.4675 80.7063 19.6927C80.2879 19.9073 79.9447 20.1915 79.6765 20.5455C79.4083 20.8887 79.2528 21.2695 79.2099 21.6879L79.1938 20.819C79.2474 20.4221 79.3654 20.0467 79.5478 19.6927C79.7301 19.328 79.9715 19.0062 80.2718 18.7273C80.5722 18.4377 80.9262 18.2124 81.3338 18.0515C81.7414 17.8906 82.1919 17.8102 82.6853 17.8102ZM89.0731 17.8102C89.545 17.8102 89.9741 17.8745 90.3603 18.0033C90.7464 18.132 91.0789 18.3304 91.3578 18.5986C91.6475 18.856 91.8727 19.1778 92.0336 19.564C92.1945 19.9502 92.275 20.406 92.275 20.9316V26H90.4729V21.2856C90.4729 20.6313 90.312 20.1486 89.9902 19.8375C89.6791 19.5157 89.1857 19.3548 88.5099 19.3548C87.995 19.3548 87.5231 19.4675 87.094 19.6927C86.6756 19.9073 86.3324 20.1915 86.0642 20.5455C85.8068 20.8887 85.6566 21.2695 85.6137 21.6879L85.5815 20.7868C85.6352 20.4007 85.7585 20.0306 85.9516 19.6766C86.1447 19.3119 86.3914 18.9901 86.6917 18.7112C86.9921 18.4323 87.3407 18.2124 87.7376 18.0515C88.1452 17.8906 88.5904 17.8102 89.0731 17.8102ZM97.0064 26.177C96.277 26.177 95.6066 26 94.9952 25.646C94.3945 25.292 93.9118 24.804 93.5471 24.1818C93.1931 23.549 93.0161 22.8249 93.0161 22.0097C93.0161 21.173 93.1985 20.4436 93.5632 19.8214C93.9279 19.1886 94.4213 18.6951 95.0435 18.3412C95.6656 17.9872 96.3628 17.8102 97.1352 17.8102C97.9933 17.8102 98.6744 17.9979 99.1786 18.3733C99.6827 18.7488 100.042 19.2529 100.257 19.8858C100.471 20.5187 100.578 21.2266 100.578 22.0097C100.578 22.4495 100.514 22.9161 100.385 23.4095C100.257 23.8922 100.053 24.3427 99.7739 24.7611C99.5057 25.1794 99.141 25.5227 98.6798 25.7908C98.2293 26.0483 97.6715 26.177 97.0064 26.177ZM97.5535 24.6967C98.1542 24.6967 98.6637 24.5841 99.082 24.3588C99.5111 24.1228 99.8329 23.801 100.047 23.3934C100.273 22.9858 100.385 22.5246 100.385 22.0097C100.385 21.4412 100.273 20.9585 100.047 20.5616C99.8222 20.154 99.5004 19.8429 99.082 19.6284C98.6637 19.4031 98.1542 19.2905 97.5535 19.2905C96.6954 19.2905 96.0303 19.5425 95.5583 20.0467C95.0864 20.5509 94.8504 21.2052 94.8504 22.0097C94.8504 22.5353 94.963 23.0019 95.1883 23.4095C95.4243 23.8171 95.7461 24.1336 96.1537 24.3588C96.5613 24.5841 97.0279 24.6967 97.5535 24.6967ZM100.385 17.9872H102.187V26H100.514C100.514 26 100.503 25.8981 100.482 25.6943C100.46 25.4905 100.439 25.2438 100.418 24.9541C100.396 24.6538 100.385 24.3695 100.385 24.1014V17.9872Z" fill="#515253"/>
</g>
<defs>
<clipPath id="clip0_1042_123">
<rect width="103" height="45" fill="white"/>
</clipPath>
<clipPath id="clip1_1042_123">
<rect width="44" height="44" fill="white" transform="translate(0 0.5)"/>
</clipPath>
</defs>
</svg>
