<svg width="800" height="800" viewBox="0 0 800 800" fill="none" xmlns="http://www.w3.org/2000/svg">
<path fill-rule="evenodd" clip-rule="evenodd" d="M726 408.392C726.03 386.477 724.12 364.598 720.299 343H408V466.864H586.87C579.475 506.839 555.582 542.146 520.729 564.598V645H627.483C689.989 589.03 726 506.261 726 408.392Z" fill="#4285F4"/>
<path fill-rule="evenodd" clip-rule="evenodd" d="M407.245 722C496.723 722 572.061 693.504 627 644.385L520.114 564.001C490.368 583.56 452.054 594.723 407.245 594.723C320.763 594.723 247.357 538.188 221.11 462H111V544.84C167.281 653.448 281.907 721.99 407.245 722Z" fill="#34A853"/>
<path fill-rule="evenodd" clip-rule="evenodd" d="M220 462.09C206.161 422.136 206.161 378.864 220 338.91V256H110.205C63.2651 346.915 63.2651 454.085 110.205 545L220 462.09Z" fill="#FBBC04"/>
<path fill-rule="evenodd" clip-rule="evenodd" d="M407.775 206.29C455.143 205.537 500.913 222.863 535.197 254.517L630 162.75C569.884 108.098 490.242 78.0916 407.775 79.021C282.213 79.026 167.381 147.569 111 256.165L221.307 339C247.601 262.821 321.138 206.29 407.775 206.29Z" fill="#EA4335"/>
</svg>
