<svg width="233" height="54" viewBox="0 0 233 54" fill="none" xmlns="http://www.w3.org/2000/svg">
<path d="M3.45016 0.580078C2.53073 0.979914 1.7468 1.6375 1.19312 2.47335C0.639435 3.30919 0.339705 4.28752 0.330156 5.29008L0.000155641 48.4401C-0.00511756 49.1203 0.123652 49.795 0.379111 50.4254C0.63457 51.0559 1.01172 51.6299 1.48901 52.1147C1.96631 52.5994 2.53441 52.9853 3.16088 53.2505C3.78734 53.5157 4.4599 53.6548 5.14016 53.6601L29.3702 53.8501C-2.99984 41.2501 3.45016 0.580078 3.45016 0.580078Z" fill="#010205"/>
<path d="M45.6504 15.0899C40.3104 15.4899 41.9504 14.8899 36.6504 14.9799C33.9004 14.9799 31.0504 15.5699 28.9304 17.4399C27.7139 18.5959 26.7534 19.9941 26.1109 21.5444C25.4684 23.0946 25.1582 24.7624 25.2004 26.4399C25.0983 28.1993 25.6569 29.9334 26.7668 31.3023C27.8767 32.6712 29.4579 33.5762 31.2004 33.8399C31.9738 33.9763 32.7556 34.0598 33.5404 34.0899C34.5862 34.0956 35.6018 33.7391 36.4148 33.0811C37.2277 32.4231 37.788 31.504 38.0004 30.4799L39.5004 23.4799C40.8689 23.496 42.2167 23.8155 43.4468 24.4154C44.6769 25.0154 45.7585 25.8808 46.6137 26.9493C47.4689 28.0178 48.0763 29.2628 48.3922 30.5944C48.7081 31.926 48.7245 33.3112 48.4404 34.6499C48.4357 34.6697 48.4357 34.6902 48.4404 34.7099C47.9894 36.8401 46.95 38.801 45.4404 40.3699C48.1665 40.3224 50.8861 40.0885 53.5804 39.6699L53.8004 11.1899C52.9266 12.4899 51.7028 13.5161 50.2704 14.1499C48.7889 14.7026 47.23 15.0198 45.6504 15.0899Z" fill="#5D4FB6"/>
<path d="M12.2702 24.1501C12.511 22.2418 12.988 20.3708 13.6902 18.5801C13.8202 18.2701 13.9402 17.9601 14.0802 17.6601L14.1402 17.5401C14.2669 17.2401 14.4069 16.9501 14.5602 16.6701C18.4602 8.96009 26.6402 4.23009 37.1002 4.36009C37.6202 4.36009 38.1002 4.36009 38.6202 4.42009L53.7302 4.61009C53.4837 3.46176 52.8549 2.43102 51.9467 1.6863C51.0385 0.941574 49.9046 0.526916 48.7302 0.510088L5.5502 0.150088C4.82773 0.143943 4.11211 0.290475 3.4502 0.580088C3.9202 4.15009 5.8102 14.7201 12.2702 24.1501Z" fill="#5D4FB6"/>
<path d="M40.34 43.5201C37.4631 44.146 34.5333 44.4976 31.59 44.5701C19.65 44.4201 11.93 37.3401 12.05 27.1501C12.0671 26.1467 12.1406 25.1452 12.27 24.1501C5.81001 14.7201 3.92001 4.15008 3.45001 0.580078C3.45001 0.580078 -2.99999 41.2501 29.37 53.8501L48.29 54.0001C49.6648 54.0081 50.9865 53.4703 51.9652 52.5047C52.9439 51.5392 53.4994 50.2248 53.51 48.8501L53.58 39.7001C50.8858 40.1186 48.1661 40.3525 45.44 40.4001C44.0494 41.8772 42.2883 42.9546 40.34 43.5201Z" fill="#010205"/>
<path opacity="0.15" d="M51.7802 1.53027C52.2403 2.35163 52.4782 3.27884 52.4702 4.22027L52.2002 39.5603L52.1302 49.0803C52.1203 50.1148 51.8134 51.1246 51.2461 51.9898C50.6788 52.8549 49.875 53.5388 48.9302 53.9603C50.1865 53.8141 51.3462 53.2142 52.1914 52.2732C53.0367 51.3323 53.5092 50.115 53.5202 48.8503L53.5902 39.7003L53.8502 5.70027C53.8537 4.89202 53.6684 4.09412 53.309 3.37015C52.9496 2.64618 52.4261 2.01616 51.7802 1.53027Z" fill="#010205"/>
<path style="mix-blend-mode:overlay" opacity="0.62" d="M27.5004 53.8303H29.3404C-2.9996 41.2403 3.4204 0.570312 3.4204 0.570312C2.81377 0.841092 2.26404 1.22454 1.8004 1.70031C1.1604 7.15031 -1.6996 42.1503 27.5004 53.8303Z" fill="url(#paint0_linear_922_16)"/>
<path d="M69.47 32.3919C68.3407 32.3919 67.3213 32.2232 66.412 31.8859C65.5173 31.5486 64.7473 31.0646 64.102 30.4339C63.4567 29.8032 62.9653 29.0406 62.628 28.1459C62.2907 27.2366 62.122 26.2319 62.122 25.1319C62.122 24.0026 62.3053 22.9832 62.672 22.0739C63.0387 21.1499 63.5593 20.3579 64.234 19.6979C64.9087 19.0232 65.708 18.5099 66.632 18.1579C67.556 17.8059 68.5753 17.6299 69.69 17.6299C70.9367 17.6299 72.0293 17.8426 72.968 18.2679C73.9213 18.6932 74.684 19.2946 75.256 20.0719C75.828 20.8346 76.1653 21.7439 76.268 22.7999H74.354C74.1633 22.1252 73.8553 21.5459 73.43 21.0619C73.0047 20.5779 72.4767 20.2039 71.846 19.9399C71.2153 19.6759 70.4967 19.5439 69.69 19.5439C68.59 19.5439 67.6367 19.7859 66.83 20.2699C66.0233 20.7392 65.3927 21.3992 64.938 22.2499C64.4833 23.0859 64.256 24.0466 64.256 25.1319C64.256 26.2026 64.454 27.1412 64.85 27.9479C65.2607 28.7399 65.8547 29.3632 66.632 29.8179C67.424 30.2579 68.3773 30.4779 69.492 30.4779C70.3573 30.4779 71.1127 30.3312 71.758 30.0379C72.418 29.7299 72.9533 29.3046 73.364 28.7619C73.7893 28.2046 74.0827 27.5372 74.244 26.7599L75.344 26.6279C75.124 28.5199 74.4933 29.9572 73.452 30.9399C72.4107 31.9079 71.0833 32.3919 69.47 32.3919ZM74.86 32.1499C74.86 31.6806 74.8747 31.1452 74.904 30.5439C74.948 29.9279 74.992 29.3119 75.036 28.6959C75.0947 28.0652 75.146 27.5006 75.19 27.0019H69.844V25.2859H76.818V32.1499H74.86ZM83.204 32.3699C82.2654 32.3699 81.4074 32.1279 80.63 31.6439C79.8527 31.1599 79.2367 30.4926 78.782 29.6419C78.3273 28.7766 78.1 27.7866 78.1 26.6719C78.1 25.5572 78.3273 24.5746 78.782 23.7239C79.2513 22.8586 79.8893 22.1839 80.696 21.6999C81.5027 21.2012 82.4047 20.9519 83.402 20.9519C84.502 20.9519 85.3527 21.2086 85.954 21.7219C86.57 22.2352 86.9954 22.9246 87.23 23.7899C87.4794 24.6552 87.604 25.6159 87.604 26.6719C87.604 27.2586 87.5307 27.8819 87.384 28.5419C87.2374 29.2019 87.0027 29.8252 86.68 30.4119C86.3574 30.9986 85.91 31.4752 85.338 31.8419C84.766 32.1939 84.0547 32.3699 83.204 32.3699ZM83.798 30.5439C84.5753 30.5439 85.228 30.3752 85.756 30.0379C86.2987 29.6859 86.702 29.2166 86.966 28.6299C87.23 28.0432 87.362 27.3906 87.362 26.6719C87.362 25.8946 87.2227 25.2126 86.944 24.6259C86.68 24.0392 86.2767 23.5846 85.734 23.2619C85.206 22.9392 84.5607 22.7779 83.798 22.7779C82.654 22.7779 81.7667 23.1446 81.136 23.8779C80.52 24.6112 80.212 25.5426 80.212 26.6719C80.212 27.4346 80.366 28.1092 80.674 28.6959C80.982 29.2679 81.4 29.7226 81.928 30.0599C82.4707 30.3826 83.094 30.5439 83.798 30.5439ZM87.362 21.1719H89.474V32.1499H87.538C87.538 32.1499 87.5234 32.0179 87.494 31.7539C87.4647 31.4752 87.4354 31.1452 87.406 30.7639C87.3767 30.3826 87.362 30.0452 87.362 29.7519V21.1719ZM97.7778 32.3699C96.9125 32.3699 96.1938 32.1939 95.6218 31.8419C95.0645 31.4752 94.6171 30.9986 94.2798 30.4119C93.9571 29.8252 93.7225 29.2019 93.5758 28.5419C93.4291 27.8819 93.3558 27.2586 93.3558 26.6719C93.3558 25.8799 93.4218 25.1392 93.5538 24.4499C93.7005 23.7606 93.9351 23.1519 94.2578 22.6239C94.5805 22.0959 95.0278 21.6852 95.5998 21.3919C96.1718 21.0986 96.8978 20.9519 97.7778 20.9519C98.7605 20.9519 99.6331 21.2012 100.396 21.6999C101.173 22.1839 101.782 22.8586 102.222 23.7239C102.662 24.5746 102.882 25.5572 102.882 26.6719C102.882 27.7866 102.654 28.7766 102.2 29.6419C101.745 30.4926 101.129 31.1599 100.352 31.6439C99.5891 32.1279 98.7311 32.3699 97.7778 32.3699ZM97.1838 30.5439C97.8878 30.5439 98.5038 30.3826 99.0318 30.0599C99.5745 29.7226 99.9925 29.2679 100.286 28.6959C100.594 28.1092 100.748 27.4346 100.748 26.6719C100.748 25.5426 100.432 24.6112 99.8018 23.8779C99.1858 23.1446 98.3131 22.7779 97.1838 22.7779C96.4211 22.7779 95.7685 22.9392 95.2258 23.2619C94.6978 23.5846 94.2945 24.0392 94.0158 24.6259C93.7371 25.2126 93.5978 25.8946 93.5978 26.6719C93.5978 27.3906 93.7298 28.0432 93.9938 28.6299C94.2725 29.2166 94.6758 29.6859 95.2038 30.0379C95.7465 30.3752 96.4065 30.5439 97.1838 30.5439ZM93.5978 16.7719V29.7519C93.5978 30.0892 93.5758 30.4926 93.5318 30.9619C93.5025 31.4312 93.4731 31.8272 93.4438 32.1499H91.5078V16.7719H93.5978ZM104.176 21.1719H106.288V32.1499H104.176V21.1719ZM110.006 23.0419C109.243 23.0419 108.59 23.2179 108.048 23.5699C107.52 23.9219 107.094 24.3546 106.772 24.8679C106.464 25.3812 106.258 25.8726 106.156 26.3419L106.134 25.0879C106.148 24.9412 106.185 24.7139 106.244 24.4059C106.317 24.0832 106.442 23.7239 106.618 23.3279C106.794 22.9319 107.028 22.5579 107.322 22.2059C107.615 21.8392 107.982 21.5386 108.422 21.3039C108.862 21.0692 109.39 20.9519 110.006 20.9519V23.0419ZM113.56 16.6399V18.9059H110.942V16.6399H113.56ZM111.206 21.1719H113.296V32.1499H111.206V21.1719ZM123.862 28.5859H125.864C125.747 29.3046 125.468 29.9499 125.028 30.5219C124.588 31.0939 124.009 31.5486 123.29 31.8859C122.572 32.2232 121.728 32.3919 120.76 32.3919C119.616 32.3919 118.597 32.1499 117.702 31.6659C116.808 31.1819 116.104 30.5146 115.59 29.6639C115.077 28.8132 114.82 27.8232 114.82 26.6939C114.82 25.5499 115.07 24.5526 115.568 23.7019C116.067 22.8366 116.756 22.1619 117.636 21.6779C118.516 21.1939 119.521 20.9519 120.65 20.9519C121.838 20.9519 122.836 21.1866 123.642 21.6559C124.449 22.1252 125.043 22.8219 125.424 23.7459C125.82 24.6552 125.982 25.7919 125.908 27.1559H116.91C116.984 27.8159 117.182 28.4026 117.504 28.9159C117.842 29.4292 118.282 29.8326 118.824 30.1259C119.382 30.4192 120.02 30.5659 120.738 30.5659C121.545 30.5659 122.22 30.3826 122.762 30.0159C123.305 29.6492 123.672 29.1726 123.862 28.5859ZM120.672 22.7559C119.719 22.7559 118.927 23.0126 118.296 23.5259C117.666 24.0246 117.248 24.6919 117.042 25.5279H123.796C123.738 24.6332 123.415 23.9512 122.828 23.4819C122.242 22.9979 121.523 22.7559 120.672 22.7559ZM127.472 16.7719H129.584V32.1499H127.472V16.7719ZM136.254 32.3699C135.315 32.3699 134.457 32.1279 133.68 31.6439C132.903 31.1599 132.287 30.4926 131.832 29.6419C131.377 28.7766 131.15 27.7866 131.15 26.6719C131.15 25.5572 131.377 24.5746 131.832 23.7239C132.301 22.8586 132.939 22.1839 133.746 21.6999C134.553 21.2012 135.455 20.9519 136.452 20.9519C137.552 20.9519 138.403 21.2086 139.004 21.7219C139.62 22.2352 140.045 22.9246 140.28 23.7899C140.529 24.6552 140.654 25.6159 140.654 26.6719C140.654 27.2586 140.581 27.8819 140.434 28.5419C140.287 29.2019 140.053 29.8252 139.73 30.4119C139.407 30.9986 138.96 31.4752 138.388 31.8419C137.816 32.1939 137.105 32.3699 136.254 32.3699ZM136.848 30.5439C137.625 30.5439 138.278 30.3752 138.806 30.0379C139.349 29.6859 139.752 29.2166 140.016 28.6299C140.28 28.0432 140.412 27.3906 140.412 26.6719C140.412 25.8946 140.273 25.2126 139.994 24.6259C139.73 24.0392 139.327 23.5846 138.784 23.2619C138.256 22.9392 137.611 22.7779 136.848 22.7779C135.704 22.7779 134.817 23.1446 134.186 23.8779C133.57 24.6112 133.262 25.5426 133.262 26.6719C133.262 27.4346 133.416 28.1092 133.724 28.6959C134.032 29.2679 134.45 29.7226 134.978 30.0599C135.521 30.3826 136.144 30.5439 136.848 30.5439ZM140.412 21.1719H142.524V32.1499H140.588C140.588 32.1499 140.573 32.0179 140.544 31.7539C140.515 31.4752 140.485 31.1452 140.456 30.7639C140.427 30.3826 140.412 30.0452 140.412 29.7519V21.1719ZM150.487 28.6079V26.7159H158.143V28.6079H150.487ZM147.385 32.1499L153.215 17.8719H155.459L161.333 32.1499H159.045L153.941 19.2579H154.733L149.651 32.1499H147.385ZM166.633 30.4339C165.724 30.4339 164.888 30.2506 164.125 29.8839C163.362 29.5172 162.754 28.9819 162.299 28.2779C161.859 27.5739 161.639 26.7232 161.639 25.7259C161.639 24.7432 161.859 23.8999 162.299 23.1959C162.739 22.4772 163.333 21.9272 164.081 21.5459C164.844 21.1499 165.694 20.9519 166.633 20.9519C166.912 20.9519 167.176 20.9739 167.425 21.0179C167.674 21.0472 167.916 21.0986 168.151 21.1719H172.947V23.1519C172.287 23.1519 171.62 23.0419 170.945 22.8219C170.285 22.6019 169.706 22.3672 169.207 22.1179L169.141 22.0079C169.64 22.2719 170.072 22.5946 170.439 22.9759C170.806 23.3426 171.084 23.7606 171.275 24.2299C171.48 24.6846 171.583 25.1979 171.583 25.7699C171.583 26.7379 171.363 27.5739 170.923 28.2779C170.498 28.9819 169.904 29.5172 169.141 29.8839C168.393 30.2506 167.557 30.4339 166.633 30.4339ZM169.999 36.5939V36.0879C169.999 35.3399 169.794 34.8046 169.383 34.4819C168.972 34.1592 168.371 33.9979 167.579 33.9979H165.005C164.462 33.9979 164 33.9539 163.619 33.8659C163.238 33.7779 162.922 33.6459 162.673 33.4699C162.424 33.3086 162.24 33.1032 162.123 32.8539C162.006 32.6192 161.947 32.3552 161.947 32.0619C161.947 31.4899 162.123 31.0572 162.475 30.7639C162.827 30.4706 163.274 30.2872 163.817 30.2139C164.36 30.1259 164.91 30.1186 165.467 30.1919L166.633 30.4339C165.797 30.4779 165.159 30.5586 164.719 30.6759C164.279 30.7932 164.059 31.0426 164.059 31.4239C164.059 31.6439 164.147 31.8199 164.323 31.9519C164.499 32.0839 164.748 32.1499 165.071 32.1499H167.755C168.591 32.1499 169.332 32.2526 169.977 32.4579C170.637 32.6779 171.15 33.0372 171.517 33.5359C171.898 34.0492 172.089 34.7459 172.089 35.6259V36.5939H169.999ZM166.633 28.6519C167.161 28.6519 167.638 28.5419 168.063 28.3219C168.503 28.0872 168.855 27.7572 169.119 27.3319C169.383 26.8919 169.515 26.3639 169.515 25.7479C169.515 25.1172 169.383 24.5819 169.119 24.1419C168.87 23.6872 168.525 23.3499 168.085 23.1299C167.645 22.8952 167.161 22.7779 166.633 22.7779C166.105 22.7779 165.614 22.8952 165.159 23.1299C164.719 23.3499 164.367 23.6799 164.103 24.1199C163.839 24.5599 163.707 25.1026 163.707 25.7479C163.707 26.3639 163.839 26.8919 164.103 27.3319C164.367 27.7572 164.719 28.0872 165.159 28.3219C165.599 28.5419 166.09 28.6519 166.633 28.6519ZM184.433 32.1499H182.343V21.1719H184.433V32.1499ZM182.453 26.9799L182.475 27.6399C182.461 27.8306 182.409 28.1166 182.321 28.4979C182.248 28.8646 182.116 29.2679 181.925 29.7079C181.749 30.1479 181.5 30.5732 181.177 30.9839C180.869 31.3946 180.473 31.7319 179.989 31.9959C179.505 32.2599 178.919 32.3919 178.229 32.3919C177.76 32.3919 177.276 32.3259 176.777 32.1939C176.293 32.0619 175.846 31.8419 175.435 31.5339C175.025 31.2259 174.695 30.8079 174.445 30.2799C174.196 29.7372 174.071 29.0626 174.071 28.2559V21.1719H176.183V27.8159C176.183 28.4906 176.286 29.0186 176.491 29.3999C176.711 29.7812 177.019 30.0526 177.415 30.2139C177.811 30.3752 178.259 30.4559 178.757 30.4559C179.52 30.4559 180.158 30.2726 180.671 29.9059C181.199 29.5246 181.61 29.0699 181.903 28.5419C182.197 27.9992 182.38 27.4786 182.453 26.9799ZM188.848 16.6399V18.9059H186.23V16.6399H188.848ZM186.494 21.1719H188.584V32.1499H186.494V21.1719ZM190.9 16.7719H193.012V32.1499H190.9V16.7719ZM199.682 32.3699C198.743 32.3699 197.885 32.1279 197.108 31.6439C196.331 31.1599 195.715 30.4926 195.26 29.6419C194.805 28.7766 194.578 27.7866 194.578 26.6719C194.578 25.5572 194.805 24.5746 195.26 23.7239C195.729 22.8586 196.367 22.1839 197.174 21.6999C197.981 21.2012 198.883 20.9519 199.88 20.9519C200.98 20.9519 201.831 21.2086 202.432 21.7219C203.048 22.2352 203.473 22.9246 203.708 23.7899C203.957 24.6552 204.082 25.6159 204.082 26.6719C204.082 27.2586 204.009 27.8819 203.862 28.5419C203.715 29.2019 203.481 29.8252 203.158 30.4119C202.835 30.9986 202.388 31.4752 201.816 31.8419C201.244 32.1939 200.533 32.3699 199.682 32.3699ZM200.276 30.5439C201.053 30.5439 201.706 30.3752 202.234 30.0379C202.777 29.6859 203.18 29.2166 203.444 28.6299C203.708 28.0432 203.84 27.3906 203.84 26.6719C203.84 25.8946 203.701 25.2126 203.422 24.6259C203.158 24.0392 202.755 23.5846 202.212 23.2619C201.684 22.9392 201.039 22.7779 200.276 22.7779C199.132 22.7779 198.245 23.1446 197.614 23.8779C196.998 24.6112 196.69 25.5426 196.69 26.6719C196.69 27.4346 196.844 28.1092 197.152 28.6959C197.46 29.2679 197.878 29.7226 198.406 30.0599C198.949 30.3826 199.572 30.5439 200.276 30.5439ZM203.84 21.1719H205.952V32.1499H204.016C204.016 32.1499 204.001 32.0179 203.972 31.7539C203.943 31.4752 203.913 31.1452 203.884 30.7639C203.855 30.3826 203.84 30.0452 203.84 29.7519V21.1719ZM207.827 21.1719H209.939V32.1499H207.827V21.1719ZM213.657 23.0419C212.894 23.0419 212.241 23.2179 211.699 23.5699C211.171 23.9219 210.745 24.3546 210.423 24.8679C210.115 25.3812 209.909 25.8726 209.807 26.3419L209.785 25.0879C209.799 24.9412 209.836 24.7139 209.895 24.4059C209.968 24.0832 210.093 23.7239 210.269 23.3279C210.445 22.9319 210.679 22.5579 210.973 22.2059C211.266 21.8392 211.633 21.5386 212.073 21.3039C212.513 21.0692 213.041 20.9519 213.657 20.9519V23.0419Z" fill="#010205"/>
<defs>
<linearGradient id="paint0_linear_922_16" x1="4.82664" y1="30.3926" x2="21.5898" y2="25.7658" gradientUnits="userSpaceOnUse">
<stop stop-color="#5D4FB6"/>
</linearGradient>
</defs>
</svg>
