<svg width="133" height="45" viewBox="0 0 133 45" fill="none" xmlns="http://www.w3.org/2000/svg">
<g clip-path="url(#clip0_1042_144)">
<g clip-path="url(#clip1_1042_144)">
<path d="M21.6978 35.1246C21.6978 35.1246 21.6978 17.6404 22.2783 17.6421C22.7272 17.6421 23.311 40.1955 23.311 40.1955C22.5078 40.101 21.6978 36.4847 21.6978 35.1246ZM32.95 17.8446C31.3992 11.0676 28.0023 5.24061 23.3178 0.743426L23.306 0.733301C22.7356 -0.137449 22.2142 -1.13645 21.7957 -2.18945L21.7552 -2.3042C21.7568 -2.27045 21.7568 -2.22995 21.7568 -2.18945C21.7568 -1.23601 21.3299 -0.383824 20.6566 0.188238L20.6515 0.191613C14.6204 5.31149 10.783 12.8563 10.6565 21.2989V21.3208C10.6548 21.4254 10.6548 21.5486 10.6548 21.6718C10.6548 30.0367 14.6795 37.4617 20.8979 42.1159L20.9637 42.1631L21.1105 42.2694C21.3817 44.2764 21.6134 46.2879 21.8058 48.3039H22.82C23.1001 45.7879 23.4781 43.5857 23.9725 41.4257L23.8949 41.829C24.5632 41.3649 25.147 40.884 25.6921 40.3626L25.687 40.3676C30.4137 35.9852 33.3635 29.7414 33.3635 22.8109C33.3635 22.7079 33.3635 22.6067 33.3618 22.5037V22.5189C33.3567 20.8635 33.2065 19.2452 32.9213 17.6741L32.9467 17.8412L32.95 17.8446Z" fill="#515253"/>
</g>
<path d="M55.2663 29V15.9752H57.2291L61.7335 25.2011L66.2379 15.9752H68.2007V29H66.1655V20.6515L62.1676 29H61.2993L57.3105 20.6515V29H55.2663ZM74.1517 29.2714C73.1748 29.2714 72.3216 29.0513 71.592 28.6111C70.8623 28.1709 70.2955 27.5649 69.8915 26.793C69.4935 26.0151 69.2945 25.1227 69.2945 24.1157C69.2945 23.0906 69.4995 22.1921 69.9096 21.4203C70.3196 20.6484 70.8895 20.0454 71.6191 19.6113C72.3487 19.1771 73.1929 18.96 74.1517 18.96C75.1346 18.96 75.9908 19.1801 76.7205 19.6203C77.4501 20.0605 78.0169 20.6696 78.4209 21.4474C78.8249 22.2193 79.0269 23.1087 79.0269 24.1157C79.0269 25.1287 78.8219 26.0242 78.4119 26.8021C78.0079 27.5739 77.4411 28.1799 76.7114 28.6201C75.9818 29.0543 75.1286 29.2714 74.1517 29.2714ZM74.1517 27.2272C75.02 27.2272 75.6652 26.9377 76.0873 26.3589C76.5094 25.78 76.7205 25.0323 76.7205 24.1157C76.7205 23.169 76.5064 22.4152 76.0783 21.8544C75.6502 21.2876 75.008 21.0042 74.1517 21.0042C73.5668 21.0042 73.0844 21.1369 72.7045 21.4022C72.3306 21.6615 72.0533 22.0263 71.8724 22.4966C71.6915 22.961 71.601 23.5006 71.601 24.1157C71.601 25.0624 71.8151 25.8192 72.2432 26.386C72.6774 26.9468 73.3135 27.2272 74.1517 27.2272ZM86.8719 29V24.2966C86.8719 23.9891 86.8508 23.6484 86.8086 23.2745C86.7664 22.9007 86.6669 22.5419 86.5101 22.1982C86.3594 21.8484 86.1302 21.562 85.8227 21.3389C85.5212 21.1158 85.1112 21.0042 84.5926 21.0042C84.3152 21.0042 84.0408 21.0494 83.7695 21.1399C83.4981 21.2303 83.2509 21.3871 83.0278 21.6102C82.8107 21.8273 82.6359 22.1288 82.5032 22.5147C82.3705 22.8946 82.3042 23.3831 82.3042 23.98L81.0108 23.4283C81.0108 22.5961 81.1706 21.8424 81.4902 21.167C81.8158 20.4917 82.2921 19.955 82.9193 19.557C83.5464 19.153 84.3182 18.951 85.2348 18.951C85.9584 18.951 86.5554 19.0716 87.0257 19.3128C87.496 19.554 87.8699 19.8615 88.1473 20.2354C88.4247 20.6093 88.6297 21.0072 88.7623 21.4293C88.895 21.8514 88.9794 22.2524 89.0156 22.6323C89.0578 23.0062 89.0789 23.3107 89.0789 23.5459V29H86.8719ZM80.0972 29V19.2314H82.0419V22.2615H82.3042V29H80.0972ZM94.6412 33.613C94.0985 33.613 93.5769 33.5285 93.0764 33.3597C92.5819 33.1909 92.1357 32.9466 91.7377 32.627C91.3397 32.3135 91.0141 31.9336 90.7609 31.4874L92.7688 30.4924C92.9558 30.8482 93.2181 31.1105 93.5558 31.2793C93.8995 31.4542 94.2643 31.5416 94.6502 31.5416C95.1025 31.5416 95.5065 31.4602 95.8622 31.2974C96.218 31.1407 96.4924 30.9055 96.6853 30.5919C96.8843 30.2844 96.9778 29.8985 96.9657 29.4342V26.6573H97.2371V19.2314H99.1456V29.4703C99.1456 29.7176 99.1335 29.9527 99.1094 30.1759C99.0913 30.405 99.0581 30.6281 99.0099 30.8452C98.8652 31.4783 98.5878 31.9969 98.1778 32.4009C97.7677 32.811 97.2582 33.1155 96.6492 33.3145C96.0462 33.5135 95.3768 33.613 94.6412 33.613ZM94.4512 29.2714C93.5527 29.2714 92.7688 29.0452 92.0995 28.593C91.4302 28.1407 90.9116 27.5257 90.5438 26.7478C90.1759 25.9699 89.992 25.0926 89.992 24.1157C89.992 23.1268 90.1759 22.2464 90.5438 21.4746C90.9176 20.6967 91.4453 20.0846 92.1267 19.6384C92.808 19.1862 93.61 18.96 94.5326 18.96C95.4612 18.96 96.2391 19.1862 96.8662 19.6384C97.4994 20.0846 97.9788 20.6967 98.3044 21.4746C98.63 22.2524 98.7928 23.1328 98.7928 24.1157C98.7928 25.0865 98.63 25.9639 98.3044 26.7478C97.9788 27.5257 97.4934 28.1407 96.8481 28.593C96.2029 29.0452 95.404 29.2714 94.4512 29.2714ZM94.7859 27.3176C95.3708 27.3176 95.8411 27.185 96.1969 26.9196C96.5587 26.6483 96.821 26.2714 96.9838 25.789C97.1527 25.3066 97.2371 24.7488 97.2371 24.1157C97.2371 23.4765 97.1527 22.9187 96.9838 22.4424C96.821 21.96 96.5647 21.5861 96.215 21.3208C95.8653 21.0494 95.413 20.9138 94.8582 20.9138C94.2733 20.9138 93.7909 21.0585 93.411 21.3479C93.0312 21.6313 92.7508 22.0173 92.5699 22.5057C92.389 22.9881 92.2985 23.5248 92.2985 24.1157C92.2985 24.7127 92.3859 25.2554 92.5608 25.7438C92.7417 26.2262 93.0161 26.6091 93.3839 26.8925C93.7517 27.1759 94.2191 27.3176 94.7859 27.3176ZM105.092 29.2714C104.115 29.2714 103.262 29.0513 102.532 28.6111C101.803 28.1709 101.236 27.5649 100.832 26.793C100.434 26.0151 100.235 25.1227 100.235 24.1157C100.235 23.0906 100.44 22.1921 100.85 21.4203C101.26 20.6484 101.83 20.0454 102.559 19.6113C103.289 19.1771 104.133 18.96 105.092 18.96C106.075 18.96 106.931 19.1801 107.661 19.6203C108.39 20.0605 108.957 20.6696 109.361 21.4474C109.765 22.2193 109.967 23.1087 109.967 24.1157C109.967 25.1287 109.762 26.0242 109.352 26.8021C108.948 27.5739 108.381 28.1799 107.652 28.6201C106.922 29.0543 106.069 29.2714 105.092 29.2714ZM105.092 27.2272C105.96 27.2272 106.605 26.9377 107.028 26.3589C107.45 25.78 107.661 25.0323 107.661 24.1157C107.661 23.169 107.447 22.4152 107.019 21.8544C106.59 21.2876 105.948 21.0042 105.092 21.0042C104.507 21.0042 104.025 21.1369 103.645 21.4022C103.271 21.6615 102.994 22.0263 102.813 22.4966C102.632 22.961 102.541 23.5006 102.541 24.1157C102.541 25.0624 102.755 25.8192 103.183 26.386C103.618 26.9468 104.254 27.2272 105.092 27.2272ZM111.056 29V15.9752H115.207C115.316 15.9752 115.53 15.9782 115.849 15.9842C116.175 15.9903 116.489 16.0114 116.79 16.0476C117.821 16.1802 118.693 16.548 119.404 17.151C120.122 17.748 120.664 18.5108 121.032 19.4394C121.4 20.3681 121.584 21.3841 121.584 22.4876C121.584 23.5911 121.4 24.6071 121.032 25.5358C120.664 26.4644 120.122 27.2302 119.404 27.8332C118.693 28.4302 117.821 28.795 116.79 28.9276C116.495 28.9638 116.184 28.9849 115.858 28.991C115.533 28.997 115.316 29 115.207 29H111.056ZM113.272 26.9468H115.207C115.388 26.9468 115.617 26.9408 115.895 26.9287C116.178 26.9166 116.428 26.8895 116.645 26.8473C117.26 26.7327 117.761 26.4584 118.147 26.0242C118.533 25.59 118.816 25.0624 118.997 24.4413C119.184 23.8202 119.277 23.169 119.277 22.4876C119.277 21.7821 119.184 21.1188 118.997 20.4977C118.81 19.8766 118.521 19.355 118.129 18.9329C117.743 18.5108 117.248 18.2425 116.645 18.1279C116.428 18.0797 116.178 18.0525 115.895 18.0465C115.617 18.0344 115.388 18.0284 115.207 18.0284H113.272V26.9468ZM122.818 29V15.9752H127.982C128.863 15.9752 129.583 16.1531 130.144 16.5089C130.711 16.8586 131.13 17.3078 131.401 17.8566C131.679 18.4053 131.817 18.9721 131.817 19.557C131.817 20.2746 131.646 20.8836 131.302 21.3841C130.964 21.8846 130.503 22.2223 129.918 22.3971V21.9449C130.738 22.1318 131.359 22.5208 131.781 23.1117C132.209 23.7026 132.423 24.375 132.423 25.1287C132.423 25.9006 132.276 26.5759 131.98 27.1548C131.685 27.7337 131.245 28.1859 130.66 28.5116C130.081 28.8372 129.363 29 128.507 29H122.818ZM125.025 26.9468H128.236C128.615 26.9468 128.956 26.8714 129.258 26.7207C129.559 26.5639 129.794 26.3468 129.963 26.0694C130.138 25.786 130.225 25.4513 130.225 25.0654C130.225 24.7157 130.15 24.4021 129.999 24.1247C129.849 23.8474 129.628 23.6273 129.339 23.4645C129.05 23.2956 128.703 23.2112 128.299 23.2112H125.025V26.9468ZM125.025 21.1761H127.955C128.269 21.1761 128.549 21.1158 128.796 20.9952C129.044 20.8746 129.24 20.6967 129.384 20.4615C129.529 20.2263 129.601 19.9369 129.601 19.5932C129.601 19.1409 129.457 18.7641 129.167 18.4626C128.878 18.1611 128.474 18.0103 127.955 18.0103H125.025V21.1761Z" fill="#515253"/>
</g>
<defs>
<clipPath id="clip0_1042_144">
<rect width="133" height="45" fill="white"/>
</clipPath>
<clipPath id="clip1_1042_144">
<rect width="44" height="44" fill="white" transform="translate(0 0.5)"/>
</clipPath>
</defs>
</svg>
