<svg width="133" height="45" viewBox="0 0 133 45" fill="none" xmlns="http://www.w3.org/2000/svg">
<g clip-path="url(#clip0_1042_144)">
<g clip-path="url(#clip1_1042_144)">
<path d="M21.6978 35.1245C21.6978 35.1245 21.6978 17.6404 22.2783 17.642C22.7272 17.642 23.311 40.1955 23.311 40.1955C22.5078 40.101 21.6978 36.4847 21.6978 35.1245ZM32.95 17.8445C31.3992 11.0676 28.0023 5.24061 23.3178 0.743426L23.306 0.733301C22.7356 -0.137449 22.2142 -1.13645 21.7957 -2.18945L21.7552 -2.3042C21.7568 -2.27045 21.7568 -2.22995 21.7568 -2.18945C21.7568 -1.23601 21.3299 -0.383824 20.6566 0.188238L20.6515 0.191613C14.6204 5.31149 10.783 12.8563 10.6565 21.2989V21.3208C10.6548 21.4254 10.6548 21.5486 10.6548 21.6718C10.6548 30.0367 14.6795 37.4617 20.8979 42.1159L20.9637 42.1631L21.1105 42.2694C21.3817 44.2764 21.6134 46.2879 21.8058 48.3039H22.82C23.1001 45.7879 23.4781 43.5857 23.9725 41.4257L23.8949 41.829C24.5632 41.3649 25.147 40.884 25.6921 40.3626L25.687 40.3676C30.4137 35.9852 33.3635 29.7414 33.3635 22.8109C33.3635 22.7079 33.3635 22.6067 33.3618 22.5037V22.5189C33.3567 20.8635 33.2065 19.2452 32.9213 17.6741L32.9467 17.8412L32.95 17.8445Z" fill="#515253"/>
</g>
<path d="M62.5921 25.0507H61.7715L67.3064 15.5737H69.1246V26H67.3064V18.1963L67.7248 18.309L63.1874 26H61.1922L56.6549 18.3412L57.0893 18.2124V26H55.255V15.5737H57.0893L62.5921 25.0507ZM74.8298 26.177C73.9394 26.177 73.1403 26.0161 72.4324 25.6943C71.7244 25.3725 71.1666 24.9005 70.759 24.2784C70.3514 23.6562 70.1476 22.9 70.1476 22.0097C70.1476 21.1301 70.3514 20.3792 70.759 19.7571C71.1666 19.1242 71.7244 18.6415 72.4324 18.309C73.1403 17.9765 73.9394 17.8102 74.8298 17.8102C75.7201 17.8102 76.5138 17.9765 77.2111 18.309C77.9083 18.6415 78.4554 19.1242 78.8523 19.7571C79.2599 20.3792 79.4637 21.1301 79.4637 22.0097C79.4637 22.9 79.2599 23.6562 78.8523 24.2784C78.4554 24.9005 77.9083 25.3725 77.2111 25.6943C76.5138 26.0161 75.7201 26.177 74.8298 26.177ZM74.8298 24.7128C75.3446 24.7128 75.8166 24.6109 76.2457 24.4071C76.6747 24.2033 77.0126 23.8976 77.2594 23.49C77.5168 23.0823 77.6455 22.5889 77.6455 22.0097C77.6455 21.4304 77.5168 20.937 77.2594 20.5294C77.0126 20.1218 76.6747 19.8107 76.2457 19.5962C75.8273 19.3709 75.3554 19.2583 74.8298 19.2583C74.3042 19.2583 73.8268 19.3656 73.3978 19.5801C72.9687 19.7946 72.6201 20.1057 72.3519 20.5133C72.0945 20.9209 71.9657 21.4197 71.9657 22.0097C71.9657 22.5889 72.0945 23.0823 72.3519 23.49C72.6093 23.8976 72.9526 24.2033 73.3817 24.4071C73.8215 24.6109 74.3042 24.7128 74.8298 24.7128ZM80.2576 17.9872H82.0436V26H80.2576V17.9872ZM85.4225 17.8102C85.8838 17.8102 86.3075 17.8745 86.6936 18.0033C87.0905 18.132 87.4284 18.3304 87.7073 18.5986C87.9969 18.856 88.2168 19.1778 88.367 19.564C88.5279 19.9502 88.6083 20.406 88.6083 20.9316V26H86.8223V21.2856C86.8223 20.6313 86.6614 20.1486 86.3396 19.8375C86.0286 19.5157 85.5351 19.3548 84.8594 19.3548C84.3445 19.3548 83.8725 19.4675 83.4434 19.6927C83.0251 19.9073 82.6818 20.1915 82.4137 20.5455C82.1455 20.8887 81.99 21.2695 81.9471 21.6879L81.931 20.819C81.9846 20.4221 82.1026 20.0467 82.285 19.6927C82.4673 19.328 82.7087 19.0062 83.009 18.7273C83.3094 18.4377 83.6633 18.2124 84.071 18.0515C84.4786 17.8906 84.9291 17.8102 85.4225 17.8102ZM93.3485 24.7611C92.5976 24.7611 91.9165 24.627 91.305 24.3588C90.7043 24.0907 90.227 23.6991 89.873 23.1842C89.5298 22.6694 89.3582 22.0526 89.3582 21.3339C89.3582 20.6152 89.5244 19.9931 89.8569 19.4675C90.2002 18.9419 90.6722 18.5342 91.2729 18.2446C91.8843 17.955 92.5762 17.8102 93.3485 17.8102C93.5737 17.8102 93.7883 17.8263 93.9921 17.8585C94.2066 17.8906 94.4104 17.9335 94.6035 17.9872L98.3525 18.0033V19.4996C97.8376 19.5104 97.3173 19.4406 96.7917 19.2905C96.2769 19.1296 95.821 18.9633 95.4241 18.7917L95.3758 18.6951C95.7405 18.8775 96.0677 19.1028 96.3573 19.3709C96.6576 19.6284 96.8936 19.9233 97.0653 20.2559C97.2369 20.5884 97.3227 20.9638 97.3227 21.3822C97.3227 22.0901 97.1511 22.6962 96.8078 23.2003C96.4753 23.7045 96.0087 24.0907 95.408 24.3588C94.818 24.627 94.1315 24.7611 93.3485 24.7611ZM95.9229 29.2663V28.8962C95.9229 28.3706 95.7673 28.0005 95.4563 27.786C95.1452 27.5715 94.7108 27.4642 94.153 27.4642H91.9808C91.5518 27.4642 91.1817 27.4266 90.8706 27.3516C90.5703 27.2872 90.3289 27.1853 90.1466 27.0459C89.9642 26.9171 89.8301 26.7616 89.7443 26.5792C89.6585 26.4076 89.6156 26.2145 89.6156 26C89.6156 25.5709 89.7443 25.2491 90.0018 25.0346C90.2699 24.8201 90.6185 24.6806 91.0476 24.6163C91.4874 24.5519 91.9486 24.5412 92.4313 24.5841L93.3485 24.7611C92.7156 24.7825 92.2329 24.8415 91.9004 24.9381C91.5786 25.0239 91.4177 25.2009 91.4177 25.469C91.4177 25.6299 91.482 25.7586 91.6108 25.8552C91.7395 25.9517 91.9218 26 92.1578 26H94.4426C95.0969 26 95.6708 26.0751 96.1642 26.2253C96.6576 26.3862 97.0384 26.649 97.3066 27.0137C97.5855 27.3891 97.725 27.8986 97.725 28.5422V29.2663H95.9229ZM93.3485 23.3612C93.7775 23.3612 94.1583 23.2808 94.4909 23.1199C94.8234 22.959 95.0862 22.7284 95.2793 22.428C95.4724 22.1277 95.5689 21.763 95.5689 21.3339C95.5689 20.9048 95.4724 20.5348 95.2793 20.2237C95.0862 19.9126 94.8234 19.6766 94.4909 19.5157C94.1583 19.3548 93.7775 19.2744 93.3485 19.2744C92.9301 19.2744 92.5493 19.3548 92.2061 19.5157C91.8736 19.6766 91.6108 19.9126 91.4177 20.2237C91.2246 20.524 91.1281 20.8941 91.1281 21.3339C91.1281 21.763 91.2246 22.1277 91.4177 22.428C91.6108 22.7284 91.8736 22.959 92.2061 23.1199C92.5386 23.2808 92.9194 23.3612 93.3485 23.3612ZM103.151 26.177C102.26 26.177 101.461 26.0161 100.753 25.6943C100.045 25.3725 99.4875 24.9005 99.0799 24.2784C98.6723 23.6562 98.4685 22.9 98.4685 22.0097C98.4685 21.1301 98.6723 20.3792 99.0799 19.7571C99.4875 19.1242 100.045 18.6415 100.753 18.309C101.461 17.9765 102.26 17.8102 103.151 17.8102C104.041 17.8102 104.835 17.9765 105.532 18.309C106.229 18.6415 106.776 19.1242 107.173 19.7571C107.581 20.3792 107.785 21.1301 107.785 22.0097C107.785 22.9 107.581 23.6562 107.173 24.2784C106.776 24.9005 106.229 25.3725 105.532 25.6943C104.835 26.0161 104.041 26.177 103.151 26.177ZM103.151 24.7128C103.666 24.7128 104.138 24.6109 104.567 24.4071C104.996 24.2033 105.334 23.8976 105.58 23.49C105.838 23.0823 105.966 22.5889 105.966 22.0097C105.966 21.4304 105.838 20.937 105.58 20.5294C105.334 20.1218 104.996 19.8107 104.567 19.5962C104.148 19.3709 103.676 19.2583 103.151 19.2583C102.625 19.2583 102.148 19.3656 101.719 19.5801C101.29 19.7946 100.941 20.1057 100.673 20.5133C100.415 20.9209 100.287 21.4197 100.287 22.0097C100.287 22.5889 100.415 23.0823 100.673 23.49C100.93 23.8976 101.274 24.2033 101.703 24.4071C102.142 24.6109 102.625 24.7128 103.151 24.7128ZM113.84 15.5737C114.966 15.5737 115.91 15.7131 116.672 15.992C117.433 16.2709 118.039 16.6517 118.49 17.1344C118.94 17.6064 119.262 18.1534 119.455 18.7756C119.659 19.3977 119.761 20.0521 119.761 20.7386C119.761 21.4358 119.654 22.1009 119.439 22.7337C119.225 23.3666 118.881 23.9298 118.41 24.4232C117.948 24.9059 117.342 25.292 116.591 25.5817C115.84 25.8606 114.923 26 113.84 26H108.836V15.5737H113.84ZM110.67 24.391H113.824C114.618 24.391 115.277 24.2891 115.803 24.0853C116.329 23.8815 116.747 23.608 117.058 23.2647C117.369 22.9107 117.589 22.5192 117.718 22.0901C117.846 21.6503 117.911 21.1998 117.911 20.7386C117.911 20.2773 117.846 19.8375 117.718 19.4192C117.589 18.9901 117.369 18.6093 117.058 18.2768C116.747 17.9335 116.329 17.6654 115.803 17.4723C115.277 17.2685 114.618 17.1666 113.824 17.1666H110.67V24.391ZM121.026 26V15.5737H126.336C127.612 15.5737 128.588 15.815 129.264 16.2977C129.951 16.7697 130.294 17.4562 130.294 18.3572C130.294 18.9365 130.16 19.3977 129.892 19.741C129.634 20.0735 129.264 20.3256 128.781 20.4972C128.299 20.6581 127.73 20.76 127.076 20.8029L127.14 20.7064C127.612 20.7171 128.057 20.76 128.476 20.8351C128.905 20.8995 129.28 21.0175 129.602 21.1891C129.935 21.3607 130.192 21.6021 130.374 21.9131C130.567 22.2135 130.664 22.605 130.664 23.0877C130.664 23.7313 130.503 24.2623 130.181 24.6806C129.859 25.099 129.414 25.4208 128.846 25.646C128.277 25.8606 127.623 25.9785 126.883 26H121.026ZM122.86 24.4393H126.609C127.307 24.4393 127.848 24.3213 128.234 24.0853C128.621 23.8386 128.814 23.4578 128.814 22.9429C128.814 22.5353 128.696 22.2403 128.46 22.0579C128.224 21.8649 127.918 21.7415 127.542 21.6879C127.178 21.6342 126.786 21.6074 126.368 21.6074H122.86V24.4393ZM122.86 20.0789H126.223C126.92 20.0789 127.457 19.9609 127.832 19.7249C128.218 19.4782 128.411 19.092 128.411 18.5664C128.411 18.0515 128.218 17.6868 127.832 17.4723C127.457 17.247 126.963 17.1344 126.352 17.1344H122.86V20.0789Z" fill="#515253"/>
</g>
<defs>
<clipPath id="clip0_1042_144">
<rect width="133" height="45" fill="white"/>
</clipPath>
<clipPath id="clip1_1042_144">
<rect width="44" height="44" fill="white" transform="translate(0 0.5)"/>
</clipPath>
</defs>
</svg>
