<svg width="110" height="45" viewBox="0 0 110 45" fill="none" xmlns="http://www.w3.org/2000/svg">
<g clip-path="url(#clip0_1042_153)">
<g clip-path="url(#clip1_1042_153)">
<g clip-path="url(#clip2_1042_153)">
<path d="M32.6549 41.2572C32.4913 41.3439 32.505 41.3714 32.6617 41.2916C32.7126 41.271 32.7553 41.2421 32.7924 41.2077C32.7924 41.1789 32.7924 41.1789 32.6549 41.2572ZM32.9849 41.0785C32.9065 41.1431 32.9065 41.1431 33 41.1005C33.0495 41.0716 33.0935 41.0441 33.0935 41.0359C33.0935 40.9987 33.0715 41.007 32.9849 41.0785ZM33.1994 40.9492C33.121 41.0139 33.121 41.0139 33.2145 40.9712C33.2654 40.9424 33.308 40.9121 33.308 40.9052C33.308 40.8709 33.286 40.8777 33.1994 40.9492ZM33.4166 40.8214C33.3382 40.886 33.3383 40.886 33.429 40.842C33.4799 40.8145 33.5225 40.7856 33.5225 40.7774C33.5225 40.743 33.5005 40.7499 33.4166 40.8214ZM33.7095 40.6275C33.5596 40.7279 33.5074 40.7925 33.6449 40.721C33.737 40.6646 33.8937 40.5409 33.8662 40.5409C33.8071 40.5629 33.7576 40.6 33.7081 40.6275H33.7095ZM20.5604 0.0154774C20.46 0.0223524 20.1589 0.0498524 19.8949 0.0718524C13.6414 0.638352 7.79075 4.00435 4.08238 9.18948C2.03225 12.0316 0.70125 15.333 0.199375 18.7994C0.022 20.0094 0 20.3669 0 22.0072C0 23.6462 0.022 23.9982 0.199375 25.2082C1.397 33.4734 7.2765 40.4116 15.246 42.9829C16.6801 43.4407 18.183 43.757 19.8949 43.9509C20.5604 44.0224 23.4383 44.0224 24.1038 43.9509C27.0628 43.6209 29.5611 42.8907 32.0334 41.6299C32.4129 41.4374 32.4844 41.3865 32.4335 41.3439C31.2235 39.7475 30.0355 38.1497 28.8461 36.5382L25.3303 31.7904L20.9261 25.266C19.4576 23.0825 17.9836 20.9045 16.4862 18.743C16.4711 18.743 16.4519 21.6429 16.4436 25.1794C16.4285 31.3737 16.4285 31.6254 16.3501 31.7684C16.2717 31.9402 16.1425 32.0832 15.9706 32.163C15.8345 32.2276 15.7121 32.2414 15.0618 32.2414H14.3179L14.124 32.1204C14.003 32.042 13.9026 31.9334 13.838 31.8055L13.7445 31.6116L13.7514 22.989L13.7665 14.3664L13.9026 14.1945C13.9893 14.0886 14.0965 14.002 14.2175 13.9374C14.3976 13.8507 14.4691 13.837 15.213 13.837C16.0861 13.837 16.2305 13.8714 16.4601 14.123C18.2421 16.7795 20.0186 19.4429 21.7662 22.1145C24.6249 26.4485 28.5271 32.3624 30.4453 35.2636L33.9336 40.5422L34.1055 40.4281C35.7816 39.3102 37.3065 37.9792 38.6224 36.4612C41.3944 33.2877 43.1929 29.3841 43.802 25.2179C43.9794 24.0079 44.0014 23.649 44.0014 22.01C44.0014 20.3696 43.9794 20.019 43.802 18.809C42.6044 10.5439 36.7249 3.6056 28.7554 1.03298C27.2649 0.561352 25.7317 0.239602 24.1794 0.0746024C23.7627 0.0319774 20.9193 -0.0188976 20.5618 0.0182274L20.5604 0.0154774ZM29.5625 13.3214C29.7701 13.4204 29.9269 13.6074 29.9984 13.8219C30.0355 13.9374 30.0424 16.3285 30.0355 21.7144L30.0204 29.4474L28.6605 27.3574L27.2924 25.266V19.6519C27.2924 16.0122 27.3075 13.9717 27.3268 13.8714C27.3914 13.6417 27.5481 13.4492 27.7571 13.3282C27.9276 13.2416 27.9936 13.2347 28.6743 13.2347C29.3109 13.2347 29.4195 13.2416 29.5625 13.3214Z" fill="#515253"/>
</g>
</g>
<path d="M55.2663 29V15.9752H57.4733L63.5153 25.1559V15.9752H65.7223V29H63.5153L57.4733 19.8193V29H55.2663ZM71.7874 29.2714C70.7985 29.2714 69.9302 29.0573 69.1825 28.6292C68.4347 28.201 67.8498 27.6071 67.4277 26.8473C67.0117 26.0875 66.8036 25.2132 66.8036 24.2242C66.8036 23.1569 67.0086 22.2313 67.4187 21.4474C67.8287 20.6575 68.3986 20.0454 69.1282 19.6113C69.8578 19.1771 70.702 18.96 71.6608 18.96C72.6738 18.96 73.5331 19.1982 74.2386 19.6746C74.9502 20.1449 75.4778 20.8113 75.8215 21.6735C76.1652 22.5358 76.2948 23.5519 76.2104 24.7217H74.0487V23.9258C74.0426 22.8645 73.8557 22.0896 73.4879 21.6012C73.12 21.1128 72.5412 20.8685 71.7512 20.8685C70.8588 20.8685 70.1955 21.1459 69.7613 21.7007C69.3272 22.2494 69.1101 23.0544 69.1101 24.1157C69.1101 25.1046 69.3272 25.8704 69.7613 26.4131C70.1955 26.9558 70.8286 27.2272 71.6608 27.2272C72.1975 27.2272 72.6588 27.1096 73.0447 26.8744C73.4366 26.6332 73.7381 26.2865 73.9492 25.8342L76.1019 26.4855C75.728 27.3659 75.1491 28.0503 74.3652 28.5387C73.5874 29.0271 72.7281 29.2714 71.7874 29.2714ZM68.4227 24.7217V23.0755H75.1431V24.7217H68.4227ZM75.8854 29L79.4581 24.0614L75.9577 19.2314H78.5265L80.7244 22.3519L82.8862 19.2314H85.455L81.9546 24.0614L85.5454 29H82.9766L80.7244 25.7709L78.4541 29H75.8854ZM91.8084 29C91.1632 29.1206 90.53 29.1719 89.9089 29.1538C89.2939 29.1417 88.7421 29.0301 88.2537 28.8191C87.7653 28.602 87.3944 28.2613 87.1412 27.797C86.9181 27.3749 86.8005 26.9438 86.7884 26.5036C86.7763 26.0634 86.7703 25.5659 86.7703 25.0112V16.5179H88.9411V24.8845C88.9411 25.2765 88.9441 25.6202 88.9502 25.9157C88.9622 26.2111 89.0255 26.4523 89.1401 26.6393C89.3572 27.0011 89.7039 27.2031 90.1803 27.2453C90.6567 27.2875 91.1994 27.2634 91.8084 27.1729V29ZM84.9975 20.9409V19.2314H91.8084V20.9409H84.9975ZM93.3662 29V26.7659H95.6004V29H93.3662ZM96.1469 33.3416V31.2974H96.6082C97.1388 31.2974 97.5157 31.1738 97.7388 30.9266C97.9619 30.6794 98.0735 30.3145 98.0735 29.8321V19.2314H100.244V30.809C100.244 31.5989 100.012 32.217 99.5478 32.6632C99.0895 33.1155 98.4503 33.3416 97.6303 33.3416H96.1469ZM98.0735 17.748V15.7491H100.244V17.748H98.0735ZM105.673 29.2714C104.467 29.2714 103.487 29 102.733 28.4573C101.979 27.9146 101.521 27.1518 101.358 26.1689L103.583 25.8252C103.698 26.3076 103.951 26.6875 104.343 26.9649C104.735 27.2423 105.23 27.3809 105.827 27.3809C106.351 27.3809 106.755 27.2784 107.039 27.0734C107.328 26.8624 107.473 26.5759 107.473 26.2141C107.473 25.991 107.419 25.8131 107.31 25.6805C107.207 25.5418 106.978 25.4091 106.623 25.2825C106.267 25.1559 105.721 24.9961 104.985 24.8031C104.165 24.586 103.514 24.3539 103.032 24.1067C102.549 23.8534 102.203 23.5549 101.992 23.2112C101.78 22.8675 101.675 22.4514 101.675 21.963C101.675 21.354 101.835 20.8233 102.154 20.3711C102.474 19.9188 102.92 19.5721 103.493 19.3309C104.066 19.0837 104.741 18.96 105.519 18.96C106.279 18.96 106.951 19.0776 107.536 19.3128C108.127 19.548 108.603 19.8826 108.965 20.3168C109.327 20.751 109.55 21.2605 109.635 21.8454L107.409 22.2434C107.355 21.8273 107.165 21.4987 106.84 21.2575C106.52 21.0163 106.092 20.8806 105.555 20.8505C105.043 20.8203 104.63 20.8987 104.316 21.0856C104.003 21.2665 103.846 21.5228 103.846 21.8544C103.846 22.0414 103.909 22.2012 104.036 22.3338C104.162 22.4665 104.416 22.5992 104.795 22.7318C105.181 22.8645 105.754 23.0273 106.514 23.2202C107.292 23.4192 107.913 23.6484 108.377 23.9077C108.848 24.1609 109.185 24.4654 109.39 24.8212C109.601 25.177 109.707 25.6081 109.707 26.1146C109.707 27.0975 109.348 27.8694 108.631 28.4302C107.919 28.991 106.933 29.2714 105.673 29.2714Z" fill="#515253"/>
</g>
<defs>
<clipPath id="clip0_1042_153">
<rect width="110" height="45" fill="white"/>
</clipPath>
<clipPath id="clip1_1042_153">
<rect width="44" height="44" fill="white" transform="translate(0 0.5)"/>
</clipPath>
<clipPath id="clip2_1042_153">
<rect width="44" height="44" fill="white"/>
</clipPath>
</defs>
</svg>
