<svg width="110" height="45" viewBox="0 0 110 45" fill="none" xmlns="http://www.w3.org/2000/svg">
<g clip-path="url(#clip0_1042_153)">
<g clip-path="url(#clip1_1042_153)">
<g clip-path="url(#clip2_1042_153)">
<path d="M32.6549 41.2572C32.4912 41.3438 32.505 41.3714 32.6618 41.2916C32.7126 41.271 32.7553 41.2421 32.7924 41.2077C32.7924 41.1789 32.7924 41.1789 32.6549 41.2572ZM32.9849 41.0785C32.9065 41.1431 32.9065 41.1431 33 41.1005C33.0495 41.0716 33.0935 41.0441 33.0935 41.0359C33.0935 40.9987 33.0715 41.007 32.9849 41.0785ZM33.1994 40.9492C33.121 41.0139 33.121 41.0139 33.2145 40.9712C33.2654 40.9424 33.308 40.9121 33.308 40.9052C33.308 40.8709 33.286 40.8777 33.1994 40.9492ZM33.4166 40.8214C33.3382 40.886 33.3382 40.886 33.429 40.842C33.4799 40.8145 33.5225 40.7856 33.5225 40.7774C33.5225 40.743 33.5005 40.7499 33.4166 40.8214ZM33.7095 40.6275C33.5596 40.7279 33.5074 40.7925 33.6449 40.721C33.737 40.6646 33.8937 40.5409 33.8662 40.5409C33.8071 40.5629 33.7576 40.6 33.7081 40.6275H33.7095ZM20.5604 0.0154774C20.46 0.0223524 20.1589 0.0498524 19.8949 0.0718524C13.6414 0.638352 7.79075 4.00435 4.08238 9.18948C2.03225 12.0316 0.70125 15.333 0.199375 18.7994C0.022 20.0094 0 20.3668 0 22.0072C0 23.6462 0.022 23.9982 0.199375 25.2082C1.397 33.4734 7.2765 40.4116 15.246 42.9829C16.6801 43.4407 18.183 43.757 19.8949 43.9509C20.5604 44.0224 23.4383 44.0224 24.1038 43.9509C27.0628 43.6209 29.5611 42.8907 32.0334 41.6298C32.4129 41.4374 32.4844 41.3865 32.4335 41.3439C31.2235 39.7475 30.0355 38.1497 28.8461 36.5382L25.3303 31.7904L20.9261 25.266C19.4576 23.0825 17.9836 20.9045 16.4862 18.743C16.4711 18.743 16.4519 21.6429 16.4436 25.1794C16.4285 31.3737 16.4285 31.6254 16.3501 31.7684C16.2717 31.9402 16.1425 32.0832 15.9706 32.163C15.8345 32.2276 15.7121 32.2414 15.0618 32.2414H14.3179L14.124 32.1204C14.003 32.042 13.9026 31.9334 13.838 31.8055L13.7445 31.6116L13.7514 22.989L13.7665 14.3664L13.9026 14.1945C13.9893 14.0886 14.0965 14.002 14.2175 13.9374C14.3976 13.8507 14.4691 13.837 15.213 13.837C16.0861 13.837 16.2305 13.8714 16.4601 14.123C18.2421 16.7795 20.0186 19.4429 21.7663 22.1145C24.6249 26.4485 28.5271 32.3624 30.4452 35.2636L33.9336 40.5422L34.1055 40.4281C35.7816 39.3102 37.3065 37.9792 38.6224 36.4612C41.3944 33.2877 43.1929 29.3841 43.802 25.2179C43.9794 24.0079 44.0014 23.649 44.0014 22.01C44.0014 20.3696 43.9794 20.019 43.802 18.809C42.6044 10.5439 36.7249 3.6056 28.7554 1.03298C27.2649 0.561352 25.7317 0.239602 24.1794 0.0746024C23.7627 0.0319774 20.9193 -0.0188976 20.5618 0.0182274L20.5604 0.0154774ZM29.5625 13.3214C29.7701 13.4204 29.9269 13.6074 29.9984 13.8219C30.0355 13.9374 30.0424 16.3285 30.0355 21.7144L30.0204 29.4474L28.6605 27.3574L27.2924 25.266V19.6519C27.2924 16.0122 27.3075 13.9717 27.3268 13.8714C27.3914 13.6417 27.5481 13.4492 27.7571 13.3282C27.9276 13.2416 27.9936 13.2347 28.6742 13.2347C29.3109 13.2347 29.4195 13.2416 29.5625 13.3214Z" fill="#515253"/>
</g>
</g>
<path d="M64.8929 24.1014L64.3459 24.3105V15.5737H66.164V26H64.3459L56.5261 17.5206L57.0893 17.3114V26H55.255V15.5737H57.0893L64.8929 24.1014ZM74.3053 23.3612H76.027C75.9411 23.9083 75.7266 24.3964 75.3834 24.8254C75.0508 25.2438 74.5949 25.5763 74.0157 25.823C73.4365 26.059 72.7446 26.177 71.9401 26.177C71.0283 26.177 70.2131 26.0107 69.4944 25.6782C68.7757 25.3349 68.2126 24.8522 67.805 24.2301C67.3974 23.608 67.1935 22.8678 67.1935 22.0097C67.1935 21.1623 67.392 20.4221 67.7889 19.7893C68.1858 19.1564 68.7328 18.6683 69.4301 18.3251C70.138 17.9818 70.9532 17.8102 71.8757 17.8102C72.8304 17.8102 73.6242 17.9818 74.2571 18.3251C74.9007 18.6576 75.378 19.1617 75.6891 19.8375C76.0001 20.5026 76.1289 21.3446 76.0752 22.3637H69.0117C69.0654 22.8142 69.2102 23.2218 69.4461 23.5865C69.6929 23.9405 70.0254 24.2194 70.4437 24.4232C70.8621 24.6163 71.3501 24.7128 71.9079 24.7128C72.5301 24.7128 73.0503 24.5894 73.4686 24.3427C73.8977 24.096 74.1766 23.7689 74.3053 23.3612ZM71.8275 19.2583C71.0981 19.2583 70.4974 19.4406 70.0254 19.8053C69.5534 20.1593 69.2477 20.6152 69.1083 21.173H74.2731C74.2302 20.5723 73.9889 20.1057 73.5491 19.7732C73.1093 19.4299 72.5354 19.2583 71.8275 19.2583ZM84.6909 17.9872L80.9259 22.4119L78.094 26H75.9058L79.8639 21.3339L82.5188 17.9872H84.6909ZM75.9058 17.9872H78.1101L80.942 21.3339L84.9001 26H82.7119L79.7835 22.4441L75.9058 17.9872ZM84.8766 17.9872H90.5403V19.4514H84.8766V17.9872ZM86.8074 15.8311H88.6095V26H86.8074V15.8311ZM92.699 24.2623V26H90.559V24.2623H92.699ZM94.0318 17.9872H95.8339V29.218H94.0318V17.9872ZM95.9787 14.5922V16.3138H93.8387V14.5922H95.9787ZM96.7824 23.3612H98.4397C98.5255 23.7689 98.7454 24.1014 99.0994 24.3588C99.4534 24.6055 99.9307 24.7289 100.531 24.7289C100.918 24.7289 101.218 24.686 101.432 24.6002C101.658 24.5144 101.813 24.3964 101.899 24.2462C101.996 24.096 102.044 23.9244 102.044 23.7313C102.044 23.4953 101.974 23.313 101.835 23.1842C101.706 23.0555 101.513 22.9483 101.255 22.8624C100.998 22.7766 100.676 22.7015 100.29 22.6372C99.8932 22.5406 99.5016 22.4334 99.1155 22.3154C98.7293 22.1974 98.3807 22.0526 98.0696 21.881C97.7586 21.6986 97.5118 21.4733 97.3295 21.2052C97.1579 20.9263 97.0721 20.5884 97.0721 20.1915C97.0721 19.8268 97.1525 19.4996 97.3134 19.21C97.485 18.9097 97.721 18.6576 98.0214 18.4538C98.3217 18.25 98.6757 18.0944 99.0833 17.9872C99.4909 17.8692 99.9361 17.8102 100.419 17.8102C101.116 17.8102 101.695 17.9228 102.156 18.1481C102.628 18.3733 102.982 18.6898 103.218 19.0974C103.465 19.505 103.589 19.9716 103.589 20.4972H102.012C101.926 20.0682 101.76 19.7571 101.513 19.564C101.266 19.3709 100.896 19.2744 100.403 19.2744C99.9093 19.2744 99.5338 19.3602 99.2764 19.5318C99.0189 19.7034 98.8902 19.9394 98.8902 20.2398C98.8902 20.465 98.9707 20.6474 99.1316 20.7868C99.3032 20.9156 99.5445 21.0282 99.8556 21.1247C100.167 21.2213 100.531 21.3178 100.95 21.4143C101.336 21.5216 101.701 21.6342 102.044 21.7522C102.387 21.8595 102.693 21.999 102.961 22.1706C103.24 22.3315 103.46 22.546 103.621 22.8142C103.782 23.0823 103.862 23.4149 103.862 23.8118C103.862 24.3052 103.728 24.7289 103.46 25.0829C103.202 25.4368 102.827 25.7104 102.333 25.9035C101.84 26.0858 101.245 26.177 100.547 26.177C99.9361 26.177 99.4051 26.1073 98.9546 25.9678C98.5148 25.8284 98.1447 25.646 97.8444 25.4208C97.5548 25.1955 97.3295 24.9541 97.1686 24.6967C97.0077 24.4393 96.8951 24.1926 96.8307 23.9566C96.7771 23.7206 96.761 23.5221 96.7824 23.3612Z" fill="#515253"/>
</g>
<defs>
<clipPath id="clip0_1042_153">
<rect width="110" height="45" fill="white"/>
</clipPath>
<clipPath id="clip1_1042_153">
<rect width="44" height="44" fill="white" transform="translate(0 0.5)"/>
</clipPath>
<clipPath id="clip2_1042_153">
<rect width="44" height="44" fill="white"/>
</clipPath>
</defs>
</svg>
