<svg width="143" height="45" viewBox="0 0 143 45" fill="none" xmlns="http://www.w3.org/2000/svg">
<g clip-path="url(#clip0_1042_113)">
<g clip-path="url(#clip1_1042_113)">
<path d="M32.4746 4.03809H6.52542C2.95737 4.03809 0.0380859 6.95737 0.0380859 10.5254V36.4747C0.0380859 40.0427 2.95737 42.962 6.52542 42.962H32.4747C36.0427 42.962 38.962 40.0427 38.962 36.4747V10.5254C38.9619 6.95737 36.0426 4.03809 32.4746 4.03809ZM18.6872 23.8446C17.3362 25.1956 15.2129 25.83 12.8141 25.83C12.1799 25.83 11.6009 25.8022 11.1596 25.7195V32.7231H7.79596V14.387C9.00915 14.1665 10.6912 14.0009 12.9795 14.0009C15.4613 14.0009 17.2811 14.5248 18.4668 15.5176C19.5698 16.4276 20.2865 17.8889 20.2865 19.626C20.2865 21.3907 19.7351 22.8519 18.6872 23.8446ZM25.7446 32.9991C24.1178 32.9991 22.6565 32.613 21.6638 32.0614L22.3255 29.6075C23.0975 30.0762 24.559 30.5726 25.7722 30.5726C27.261 30.5726 27.923 29.966 27.923 29.0836C27.923 28.1738 27.3716 27.7049 25.7171 27.1259C23.0974 26.2159 21.9949 24.7822 22.0224 23.2105C22.0224 20.8392 23.98 18.9918 27.0957 18.9918C28.5848 18.9918 29.8807 19.378 30.6526 19.7913L29.9908 22.1902C29.4118 21.8595 28.3363 21.4182 27.1508 21.4182C25.9375 21.4182 25.2758 21.9973 25.2758 22.8244C25.2758 23.6793 25.91 24.093 27.6196 24.6996C30.046 25.5818 31.1765 26.8225 31.2041 28.808C31.204 31.2344 29.3016 32.9991 25.7446 32.9991ZM16.8949 19.7638C16.8949 21.9421 15.3507 23.1829 12.8141 23.1829C12.1248 23.1829 11.5733 23.1553 11.1596 23.0451V16.7583C11.5183 16.6757 12.18 16.593 13.1176 16.593C15.4613 16.593 16.8949 17.6959 16.8949 19.7638Z" fill="#515253"/>
</g>
<path d="M55.2663 29V15.9752H60.6481C60.7747 15.9752 60.9375 15.9812 61.1365 15.9933C61.3355 15.9993 61.5194 16.0174 61.6883 16.0476C62.442 16.1621 63.0631 16.4124 63.5515 16.7983C64.046 17.1842 64.4108 17.6726 64.646 18.2636C64.8872 18.8485 65.0078 19.4997 65.0078 20.2173C65.0078 20.9288 64.8872 21.5801 64.646 22.171C64.4048 22.7559 64.0369 23.2413 63.5425 23.6273C63.054 24.0132 62.436 24.2634 61.6883 24.378C61.5194 24.4021 61.3325 24.4202 61.1275 24.4323C60.9285 24.4443 60.7687 24.4504 60.6481 24.4504H57.4461V29H55.2663ZM57.4461 22.4152H60.5576C60.6782 22.4152 60.8139 22.4092 60.9647 22.3971C61.1154 22.3851 61.2541 22.361 61.3807 22.3248C61.7425 22.2343 62.0259 22.0745 62.231 21.8454C62.442 21.6163 62.5897 21.357 62.6742 21.0675C62.7646 20.7781 62.8098 20.4947 62.8098 20.2173C62.8098 19.9399 62.7646 19.6565 62.6742 19.3671C62.5897 19.0716 62.442 18.8093 62.231 18.5802C62.0259 18.351 61.7425 18.1912 61.3807 18.1008C61.2541 18.0646 61.1154 18.0435 60.9647 18.0375C60.8139 18.0254 60.6782 18.0194 60.5576 18.0194H57.4461V22.4152ZM72.672 29V24.2966C72.672 23.9891 72.6509 23.6484 72.6087 23.2745C72.5665 22.9007 72.467 22.5419 72.3102 22.1982C72.1594 21.8484 71.9303 21.562 71.6228 21.3389C71.3213 21.1158 70.9112 21.0042 70.3927 21.0042C70.1153 21.0042 69.8409 21.0494 69.5696 21.1399C69.2982 21.2303 69.051 21.3871 68.8279 21.6102C68.6108 21.8273 68.4359 22.1288 68.3033 22.5147C68.1706 22.8946 68.1043 23.3831 68.1043 23.98L66.8108 23.4283C66.8108 22.5961 66.9706 21.8424 67.2902 21.167C67.6158 20.4917 68.0922 19.955 68.7193 19.557C69.3464 19.153 70.1183 18.951 71.0348 18.951C71.7584 18.951 72.3554 19.0716 72.8258 19.3128C73.2961 19.554 73.67 19.8615 73.9473 20.2354C74.2247 20.6093 74.4297 21.0072 74.5624 21.4293C74.6951 21.8514 74.7795 22.2524 74.8157 22.6323C74.8579 23.0062 74.879 23.3107 74.879 23.5459V29H72.672ZM65.8973 29V15.9752H67.842V22.8313H68.1043V29H65.8973ZM80.6493 29.2714C79.6724 29.2714 78.8192 29.0513 78.0895 28.6111C77.3599 28.1709 76.7931 27.5649 76.3891 26.793C75.9911 26.0151 75.7921 25.1227 75.7921 24.1157C75.7921 23.0906 75.9971 22.1921 76.4072 21.4203C76.8172 20.6484 77.387 20.0454 78.1167 19.6113C78.8463 19.1771 79.6905 18.96 80.6493 18.96C81.6321 18.96 82.4884 19.1801 83.218 19.6203C83.9477 20.0605 84.5145 20.6696 84.9185 21.4474C85.3225 22.2193 85.5245 23.1087 85.5245 24.1157C85.5245 25.1287 85.3195 26.0242 84.9095 26.8021C84.5054 27.5739 83.9386 28.1799 83.209 28.6201C82.4794 29.0543 81.6261 29.2714 80.6493 29.2714ZM80.6493 27.2272C81.5176 27.2272 82.1628 26.9377 82.5849 26.3589C83.007 25.78 83.218 25.0323 83.218 24.1157C83.218 23.169 83.004 22.4152 82.5758 21.8544C82.1477 21.2876 81.5055 21.0042 80.6493 21.0042C80.0643 21.0042 79.5819 21.1369 79.2021 21.4022C78.8282 21.6615 78.5508 22.0263 78.3699 22.4966C78.189 22.961 78.0986 23.5006 78.0986 24.1157C78.0986 25.0624 78.3126 25.8192 78.7408 26.386C79.1749 26.9468 79.8111 27.2272 80.6493 27.2272ZM92.3384 29C91.6932 29.1206 91.06 29.1719 90.4389 29.1538C89.8239 29.1417 89.2721 29.0301 88.7837 28.8191C88.2952 28.602 87.9244 28.2613 87.6711 27.797C87.448 27.3749 87.3304 26.9438 87.3184 26.5036C87.3063 26.0634 87.3003 25.5659 87.3003 25.0112V16.5179H89.4711V24.8845C89.4711 25.2765 89.4741 25.6202 89.4801 25.9157C89.4922 26.2111 89.5555 26.4523 89.6701 26.6393C89.8872 27.0011 90.2339 27.2031 90.7103 27.2453C91.1866 27.2875 91.7293 27.2634 92.3384 27.1729V29ZM85.5275 20.9409V19.2314H92.3384V20.9409H85.5275ZM97.3542 29.2714C96.3774 29.2714 95.5241 29.0513 94.7945 28.6111C94.0649 28.1709 93.4981 27.5649 93.094 26.793C92.6961 26.0151 92.4971 25.1227 92.4971 24.1157C92.4971 23.0906 92.7021 22.1921 93.1121 21.4203C93.5222 20.6484 94.092 20.0454 94.8216 19.6113C95.5513 19.1771 96.3955 18.96 97.3542 18.96C98.3371 18.96 99.1934 19.1801 99.923 19.6203C100.653 20.0605 101.219 20.6696 101.623 21.4474C102.027 22.2193 102.229 23.1087 102.229 24.1157C102.229 25.1287 102.024 26.0242 101.614 26.8021C101.21 27.5739 100.644 28.1799 99.914 28.6201C99.1843 29.0543 98.3311 29.2714 97.3542 29.2714ZM97.3542 27.2272C98.2226 27.2272 98.8678 26.9377 99.2899 26.3589C99.712 25.78 99.923 25.0323 99.923 24.1157C99.923 23.169 99.709 22.4152 99.2808 21.8544C98.8527 21.2876 98.2105 21.0042 97.3542 21.0042C96.7693 21.0042 96.2869 21.1369 95.907 21.4022C95.5332 21.6615 95.2558 22.0263 95.0749 22.4966C94.894 22.961 94.8036 23.5006 94.8036 24.1157C94.8036 25.0624 95.0176 25.8192 95.4457 26.386C95.8799 26.9468 96.5161 27.2272 97.3542 27.2272ZM106.86 29.2714C105.654 29.2714 104.674 29 103.92 28.4573C103.167 27.9146 102.708 27.1518 102.546 26.1689L104.771 25.8252C104.885 26.3076 105.138 26.6875 105.53 26.9649C105.922 27.2423 106.417 27.3809 107.014 27.3809C107.538 27.3809 107.942 27.2784 108.226 27.0734C108.515 26.8624 108.66 26.5759 108.66 26.2141C108.66 25.991 108.606 25.8131 108.497 25.6805C108.395 25.5418 108.165 25.4091 107.81 25.2825C107.454 25.1559 106.908 24.9961 106.173 24.8031C105.352 24.586 104.701 24.3539 104.219 24.1067C103.736 23.8534 103.39 23.5549 103.179 23.2112C102.968 22.8675 102.862 22.4514 102.862 21.963C102.862 21.354 103.022 20.8233 103.341 20.3711C103.661 19.9188 104.107 19.5721 104.68 19.3309C105.253 19.0837 105.928 18.96 106.706 18.96C107.466 18.96 108.138 19.0776 108.723 19.3128C109.314 19.548 109.791 19.8826 110.152 20.3168C110.514 20.751 110.737 21.2605 110.822 21.8454L108.597 22.2434C108.542 21.8273 108.352 21.4987 108.027 21.2575C107.707 21.0163 107.279 20.8806 106.742 20.8505C106.23 20.8203 105.817 20.8987 105.503 21.0856C105.19 21.2665 105.033 21.5228 105.033 21.8544C105.033 22.0414 105.096 22.2012 105.223 22.3338C105.349 22.4665 105.603 22.5992 105.983 22.7318C106.369 22.8645 106.941 23.0273 107.701 23.2202C108.479 23.4192 109.1 23.6484 109.564 23.9077C110.035 24.1609 110.372 24.4654 110.577 24.8212C110.789 25.177 110.894 25.6081 110.894 26.1146C110.894 27.0975 110.535 27.8694 109.818 28.4302C109.106 28.991 108.12 29.2714 106.86 29.2714ZM118.727 29V24.2966C118.727 23.9891 118.706 23.6484 118.664 23.2745C118.622 22.9007 118.522 22.5419 118.365 22.1982C118.215 21.8484 117.986 21.562 117.678 21.3389C117.377 21.1158 116.967 21.0042 116.448 21.0042C116.171 21.0042 115.896 21.0494 115.625 21.1399C115.354 21.2303 115.106 21.3871 114.883 21.6102C114.666 21.8273 114.491 22.1288 114.359 22.5147C114.226 22.8946 114.16 23.3831 114.16 23.98L112.866 23.4283C112.866 22.5961 113.026 21.8424 113.346 21.167C113.671 20.4917 114.148 19.955 114.775 19.557C115.402 19.153 116.174 18.951 117.09 18.951C117.814 18.951 118.411 19.0716 118.881 19.3128C119.351 19.554 119.725 19.8615 120.003 20.2354C120.28 20.6093 120.485 21.0072 120.618 21.4293C120.75 21.8514 120.835 22.2524 120.871 22.6323C120.913 23.0062 120.934 23.3107 120.934 23.5459V29H118.727ZM111.953 29V15.9752H113.897V22.8313H114.16V29H111.953ZM126.705 29.2714C125.728 29.2714 124.874 29.0513 124.145 28.6111C123.415 28.1709 122.848 27.5649 122.444 26.793C122.046 26.0151 121.847 25.1227 121.847 24.1157C121.847 23.0906 122.052 22.1921 122.462 21.4203C122.872 20.6484 123.442 20.0454 124.172 19.6113C124.902 19.1771 125.746 18.96 126.705 18.96C127.687 18.96 128.544 19.1801 129.273 19.6203C130.003 20.0605 130.57 20.6696 130.974 21.4474C131.378 22.2193 131.58 23.1087 131.58 24.1157C131.58 25.1287 131.375 26.0242 130.965 26.8021C130.561 27.5739 129.994 28.1799 129.264 28.6201C128.535 29.0543 127.681 29.2714 126.705 29.2714ZM126.705 27.2272C127.573 27.2272 128.218 26.9377 128.64 26.3589C129.062 25.78 129.273 25.0323 129.273 24.1157C129.273 23.169 129.059 22.4152 128.631 21.8544C128.203 21.2876 127.561 21.0042 126.705 21.0042C126.12 21.0042 125.637 21.1369 125.257 21.4022C124.883 21.6615 124.606 22.0263 124.425 22.4966C124.244 22.961 124.154 23.5006 124.154 24.1157C124.154 25.0624 124.368 25.8192 124.796 26.386C125.23 26.9468 125.866 27.2272 126.705 27.2272ZM137.363 29.2714C136.41 29.2714 135.611 29.0452 134.966 28.593C134.32 28.1407 133.835 27.5257 133.509 26.7478C133.184 25.9639 133.021 25.0865 133.021 24.1157C133.021 23.1328 133.184 22.2524 133.509 21.4746C133.835 20.6967 134.311 20.0846 134.938 19.6384C135.572 19.1862 136.353 18.96 137.281 18.96C138.204 18.96 139.003 19.1862 139.678 19.6384C140.359 20.0846 140.887 20.6967 141.261 21.4746C141.635 22.2464 141.822 23.1268 141.822 24.1157C141.822 25.0926 141.638 25.9699 141.27 26.7478C140.902 27.5257 140.384 28.1407 139.714 28.593C139.045 29.0452 138.261 29.2714 137.363 29.2714ZM132.65 33.3416V19.2314H134.577V26.0875H134.848V33.3416H132.65ZM137.028 27.3176C137.595 27.3176 138.062 27.1759 138.43 26.8925C138.798 26.6091 139.069 26.2262 139.244 25.7438C139.425 25.2554 139.515 24.7127 139.515 24.1157C139.515 23.5248 139.425 22.9881 139.244 22.5057C139.063 22.0173 138.783 21.6313 138.403 21.3479C138.023 21.0585 137.54 20.9138 136.956 20.9138C136.401 20.9138 135.948 21.0494 135.599 21.3208C135.249 21.5861 134.99 21.96 134.821 22.4424C134.658 22.9187 134.577 23.4765 134.577 24.1157C134.577 24.7488 134.658 25.3066 134.821 25.789C134.99 26.2714 135.252 26.6483 135.608 26.9196C135.97 27.185 136.443 27.3176 137.028 27.3176Z" fill="#515253"/>
</g>
<defs>
<clipPath id="clip0_1042_113">
<rect width="143" height="45" fill="white"/>
</clipPath>
<clipPath id="clip1_1042_113">
<rect width="39" height="39" fill="white" transform="translate(0 4)"/>
</clipPath>
</defs>
</svg>
