<svg width="143" height="45" viewBox="0 0 143 45" fill="none" xmlns="http://www.w3.org/2000/svg">
<g clip-path="url(#clip0_1042_113)">
<g clip-path="url(#clip1_1042_113)">
<path d="M32.4746 4.03809H6.52542C2.95737 4.03809 0.0380859 6.95737 0.0380859 10.5254V36.4747C0.0380859 40.0427 2.95737 42.962 6.52542 42.962H32.4747C36.0427 42.962 38.962 40.0427 38.962 36.4747V10.5254C38.9619 6.95737 36.0426 4.03809 32.4746 4.03809ZM18.6872 23.8446C17.3362 25.1956 15.2129 25.83 12.8141 25.83C12.1799 25.83 11.6009 25.8022 11.1596 25.7195V32.7231H7.79596V14.387C9.00915 14.1665 10.6912 14.0009 12.9795 14.0009C15.4613 14.0009 17.2811 14.5248 18.4668 15.5176C19.5698 16.4276 20.2866 17.8889 20.2866 19.626C20.2865 21.3907 19.7351 22.8519 18.6872 23.8446ZM25.7446 32.9991C24.1178 32.9991 22.6565 32.613 21.6638 32.0614L22.3255 29.6075C23.0975 30.0762 24.559 30.5726 25.7722 30.5726C27.261 30.5726 27.923 29.966 27.923 29.0836C27.923 28.1738 27.3716 27.7049 25.7171 27.1259C23.0974 26.2159 21.9949 24.7822 22.0224 23.2105C22.0224 20.8392 23.98 18.9918 27.0957 18.9918C28.5848 18.9918 29.8807 19.378 30.6526 19.7913L29.9908 22.1902C29.4118 21.8595 28.3363 21.4182 27.1508 21.4182C25.9375 21.4182 25.2758 21.9973 25.2758 22.8244C25.2758 23.6793 25.91 24.093 27.6196 24.6996C30.046 25.5818 31.1765 26.8225 31.2041 28.808C31.204 31.2344 29.3016 32.9991 25.7446 32.9991ZM16.8949 19.7638C16.8949 21.9421 15.3507 23.1829 12.8141 23.1829C12.1248 23.1829 11.5733 23.1553 11.1596 23.0451V16.7583C11.5183 16.6757 12.18 16.593 13.1176 16.593C15.4613 16.593 16.8949 17.6959 16.8949 19.7638Z" fill="#515253"/>
</g>
<path d="M56.7997 22.5085V20.9799H61.0152C61.6052 20.9799 62.0772 20.8083 62.4312 20.465C62.7959 20.1218 62.9782 19.6605 62.9782 19.0813C62.9782 18.4806 62.7959 18.014 62.4312 17.6815C62.0772 17.3382 61.6052 17.1666 61.0152 17.1666H57.0571V26H55.2228V15.5737H60.8865C61.4336 15.5737 61.9431 15.6488 62.4151 15.7989C62.887 15.9384 63.3 16.1529 63.654 16.4425C64.0187 16.7322 64.2976 17.0969 64.4907 17.5367C64.6945 17.9657 64.7964 18.4806 64.7964 19.0813C64.7964 19.6713 64.6945 20.1861 64.4907 20.6259C64.2976 21.055 64.0187 21.409 63.654 21.6879C63.3 21.9668 62.887 22.1759 62.4151 22.3154C61.9431 22.4441 61.4336 22.5085 60.8865 22.5085H56.7997ZM72.4677 26V21.3661C72.4677 20.937 72.3926 20.583 72.2424 20.3041C72.103 20.0145 71.8831 19.7946 71.5827 19.6444C71.2824 19.4943 70.8855 19.4192 70.3921 19.4192C69.8986 19.4192 69.4481 19.5265 69.0405 19.741C68.6329 19.9448 68.3004 20.2183 68.0429 20.5616C67.7855 20.9048 67.6353 21.2856 67.5924 21.704L67.5763 20.8029C67.6299 20.4168 67.7479 20.0467 67.9303 19.6927C68.1126 19.328 68.354 19.0062 68.6543 18.7273C68.9547 18.4484 69.3087 18.2285 69.7163 18.0676C70.1239 17.896 70.5744 17.8102 71.0678 17.8102C71.5291 17.8102 71.9528 17.8745 72.339 18.0033C72.7358 18.132 73.0737 18.3251 73.3526 18.5825C73.6422 18.8292 73.8621 19.1403 74.0123 19.5157C74.1732 19.8804 74.2537 20.3041 74.2537 20.7868V26H72.4677ZM65.903 26V14.7692H67.6889V26H65.903ZM79.6976 26.177C78.8073 26.177 78.0082 26.0161 77.3002 25.6943C76.5922 25.3725 76.0345 24.9005 75.6268 24.2784C75.2192 23.6562 75.0154 22.9 75.0154 22.0097C75.0154 21.1301 75.2192 20.3792 75.6268 19.7571C76.0345 19.1242 76.5922 18.6415 77.3002 18.309C78.0082 17.9765 78.8073 17.8102 79.6976 17.8102C80.5879 17.8102 81.3817 17.9765 82.0789 18.309C82.7762 18.6415 83.3232 19.1242 83.7201 19.7571C84.1277 20.3792 84.3315 21.1301 84.3315 22.0097C84.3315 22.9 84.1277 23.6562 83.7201 24.2784C83.3232 24.9005 82.7762 25.3725 82.0789 25.6943C81.3817 26.0161 80.5879 26.177 79.6976 26.177ZM79.6976 24.7128C80.2125 24.7128 80.6845 24.6109 81.1135 24.4071C81.5426 24.2033 81.8805 23.8976 82.1272 23.49C82.3846 23.0823 82.5134 22.5889 82.5134 22.0097C82.5134 21.4304 82.3846 20.937 82.1272 20.5294C81.8805 20.1218 81.5426 19.8107 81.1135 19.5962C80.6952 19.3709 80.2232 19.2583 79.6976 19.2583C79.172 19.2583 78.6947 19.3656 78.2656 19.5801C77.8365 19.7946 77.4879 20.1057 77.2198 20.5133C76.9623 20.9209 76.8336 21.4197 76.8336 22.0097C76.8336 22.5889 76.9623 23.0823 77.2198 23.49C77.4772 23.8976 77.8204 24.2033 78.2495 24.4071C78.6893 24.6109 79.172 24.7128 79.6976 24.7128ZM84.4366 17.9872H90.1003V19.4514H84.4366V17.9872ZM86.3674 15.8311H88.1695V26H86.3674V15.8311ZM94.8386 26.177C93.9482 26.177 93.1491 26.0161 92.4411 25.6943C91.7332 25.3725 91.1754 24.9005 90.7678 24.2784C90.3602 23.6562 90.1564 22.9 90.1564 22.0097C90.1564 21.1301 90.3602 20.3792 90.7678 19.7571C91.1754 19.1242 91.7332 18.6415 92.4411 18.309C93.1491 17.9765 93.9482 17.8102 94.8386 17.8102C95.7289 17.8102 96.5226 17.9765 97.2199 18.309C97.9171 18.6415 98.4642 19.1242 98.8611 19.7571C99.2687 20.3792 99.4725 21.1301 99.4725 22.0097C99.4725 22.9 99.2687 23.6562 98.8611 24.2784C98.4642 24.9005 97.9171 25.3725 97.2199 25.6943C96.5226 26.0161 95.7289 26.177 94.8386 26.177ZM94.8386 24.7128C95.3534 24.7128 95.8254 24.6109 96.2545 24.4071C96.6835 24.2033 97.0214 23.8976 97.2681 23.49C97.5256 23.0823 97.6543 22.5889 97.6543 22.0097C97.6543 21.4304 97.5256 20.937 97.2681 20.5294C97.0214 20.1218 96.6835 19.8107 96.2545 19.5962C95.8361 19.3709 95.3642 19.2583 94.8386 19.2583C94.313 19.2583 93.8356 19.3656 93.4065 19.5801C92.9775 19.7946 92.6289 20.1057 92.3607 20.5133C92.1033 20.9209 91.9745 21.4197 91.9745 22.0097C91.9745 22.5889 92.1033 23.0823 92.3607 23.49C92.6181 23.8976 92.9614 24.2033 93.3905 24.4071C93.8303 24.6109 94.313 24.7128 94.8386 24.7128ZM99.9124 23.3612H101.57C101.656 23.7689 101.875 24.1014 102.229 24.3588C102.583 24.6055 103.061 24.7289 103.661 24.7289C104.048 24.7289 104.348 24.686 104.562 24.6002C104.788 24.5144 104.943 24.3964 105.029 24.2462C105.126 24.096 105.174 23.9244 105.174 23.7313C105.174 23.4953 105.104 23.313 104.965 23.1842C104.836 23.0555 104.643 22.9483 104.385 22.8624C104.128 22.7766 103.806 22.7015 103.42 22.6372C103.023 22.5406 102.632 22.4334 102.245 22.3154C101.859 22.1974 101.511 22.0526 101.2 21.881C100.889 21.6986 100.642 21.4733 100.46 21.2052C100.288 20.9263 100.202 20.5884 100.202 20.1915C100.202 19.8268 100.283 19.4996 100.443 19.21C100.615 18.9097 100.851 18.6576 101.151 18.4538C101.452 18.25 101.806 18.0944 102.213 17.9872C102.621 17.8692 103.066 17.8102 103.549 17.8102C104.246 17.8102 104.825 17.9228 105.287 18.1481C105.758 18.3733 106.112 18.6898 106.348 19.0974C106.595 19.505 106.719 19.9716 106.719 20.4972H105.142C105.056 20.0682 104.89 19.7571 104.643 19.564C104.396 19.3709 104.026 19.2744 103.533 19.2744C103.039 19.2744 102.664 19.3602 102.406 19.5318C102.149 19.7034 102.02 19.9394 102.02 20.2398C102.02 20.465 102.101 20.6474 102.262 20.7868C102.433 20.9156 102.675 21.0282 102.986 21.1247C103.297 21.2213 103.661 21.3178 104.08 21.4143C104.466 21.5216 104.831 21.6342 105.174 21.7522C105.517 21.8595 105.823 21.999 106.091 22.1706C106.37 22.3315 106.59 22.546 106.751 22.8142C106.912 23.0823 106.992 23.4149 106.992 23.8118C106.992 24.3052 106.858 24.7289 106.59 25.0829C106.332 25.4368 105.957 25.7104 105.463 25.9035C104.97 26.0858 104.375 26.177 103.678 26.177C103.066 26.177 102.535 26.1073 102.085 25.9678C101.645 25.8284 101.275 25.646 100.974 25.4208C100.685 25.1955 100.46 24.9541 100.299 24.6967C100.138 24.4393 100.025 24.1926 99.9607 23.9566C99.9071 23.7206 99.891 23.5221 99.9124 23.3612ZM114.531 26V21.3661C114.531 20.937 114.456 20.583 114.306 20.3041C114.166 20.0145 113.946 19.7946 113.646 19.6444C113.346 19.4943 112.949 19.4192 112.455 19.4192C111.962 19.4192 111.512 19.5265 111.104 19.741C110.696 19.9448 110.364 20.2183 110.106 20.5616C109.849 20.9048 109.699 21.2856 109.656 21.704L109.64 20.8029C109.693 20.4168 109.811 20.0467 109.994 19.6927C110.176 19.328 110.417 19.0062 110.718 18.7273C111.018 18.4484 111.372 18.2285 111.78 18.0676C112.187 17.896 112.638 17.8102 113.131 17.8102C113.593 17.8102 114.016 17.8745 114.402 18.0033C114.799 18.132 115.137 18.3251 115.416 18.5825C115.706 18.8292 115.926 19.1403 116.076 19.5157C116.237 19.8804 116.317 20.3041 116.317 20.7868V26H114.531ZM107.966 26V14.7692H109.752V26H107.966ZM121.761 26.177C120.871 26.177 120.072 26.0161 119.364 25.6943C118.656 25.3725 118.098 24.9005 117.69 24.2784C117.283 23.6562 117.079 22.9 117.079 22.0097C117.079 21.1301 117.283 20.3792 117.69 19.7571C118.098 19.1242 118.656 18.6415 119.364 18.309C120.072 17.9765 120.871 17.8102 121.761 17.8102C122.651 17.8102 123.445 17.9765 124.142 18.309C124.84 18.6415 125.387 19.1242 125.784 19.7571C126.191 20.3792 126.395 21.1301 126.395 22.0097C126.395 22.9 126.191 23.6562 125.784 24.2784C125.387 24.9005 124.84 25.3725 124.142 25.6943C123.445 26.0161 122.651 26.177 121.761 26.177ZM121.761 24.7128C122.276 24.7128 122.748 24.6109 123.177 24.4071C123.606 24.2033 123.944 23.8976 124.191 23.49C124.448 23.0823 124.577 22.5889 124.577 22.0097C124.577 21.4304 124.448 20.937 124.191 20.5294C123.944 20.1218 123.606 19.8107 123.177 19.5962C122.759 19.3709 122.287 19.2583 121.761 19.2583C121.235 19.2583 120.758 19.3656 120.329 19.5801C119.9 19.7946 119.551 20.1057 119.283 20.5133C119.026 20.9209 118.897 21.4197 118.897 22.0097C118.897 22.5889 119.026 23.0823 119.283 23.49C119.541 23.8976 119.884 24.2033 120.313 24.4071C120.753 24.6109 121.235 24.7128 121.761 24.7128ZM132.338 26.177C131.683 26.177 131.126 26.0483 130.664 25.7908C130.214 25.5334 129.849 25.1955 129.57 24.7772C129.302 24.3481 129.104 23.8922 128.975 23.4095C128.846 22.9161 128.782 22.4495 128.782 22.0097C128.782 21.4197 128.841 20.8727 128.959 20.3685C129.088 19.8643 129.286 19.4246 129.554 19.0491C129.833 18.663 130.198 18.3626 130.648 18.1481C131.109 17.9228 131.673 17.8102 132.338 17.8102C133.089 17.8102 133.764 17.9925 134.365 18.3572C134.966 18.7112 135.443 19.2047 135.797 19.8375C136.151 20.4597 136.328 21.1837 136.328 22.0097C136.328 22.8356 136.146 23.565 135.781 24.1979C135.427 24.8201 134.95 25.3081 134.349 25.6621C133.748 26.0054 133.078 26.177 132.338 26.177ZM131.807 24.6967C132.343 24.6967 132.815 24.5841 133.223 24.3588C133.63 24.1336 133.947 23.8171 134.172 23.4095C134.397 23.0019 134.51 22.5353 134.51 22.0097C134.51 21.2052 134.274 20.5509 133.802 20.0467C133.33 19.5318 132.665 19.2744 131.807 19.2744C131.27 19.2744 130.788 19.387 130.359 19.6123C129.93 19.8375 129.592 20.154 129.345 20.5616C129.098 20.9585 128.975 21.4412 128.975 22.0097C128.975 22.5246 129.088 22.9858 129.313 23.3934C129.538 23.801 129.86 24.1228 130.278 24.3588C130.697 24.5841 131.206 24.6967 131.807 24.6967ZM127.189 17.9872H128.894L128.975 19.9502V29.218H127.189V17.9872Z" fill="#515253"/>
</g>
<defs>
<clipPath id="clip0_1042_113">
<rect width="143" height="45" fill="white"/>
</clipPath>
<clipPath id="clip1_1042_113">
<rect width="39" height="39" fill="white" transform="translate(0 4)"/>
</clipPath>
</defs>
</svg>
