<svg width="800" height="800" viewBox="0 0 800 800" fill="none" xmlns="http://www.w3.org/2000/svg">
<path d="M354.667 37.5666L82.9002 309.4C70.9952 321.294 61.551 335.417 55.1074 350.963C48.6638 366.508 45.3472 383.172 45.3472 400C45.3472 416.828 48.6638 433.491 55.1074 449.037C61.551 464.583 70.9952 478.706 82.9002 490.6L354.734 762.433C366.627 774.338 380.751 783.783 396.296 790.226C411.842 796.67 428.505 799.986 445.334 799.986C462.162 799.986 478.825 796.67 494.371 790.226C509.917 783.783 524.04 774.338 535.934 762.433L626.567 671.833L535.934 581.233L445.334 671.833L173.467 400L445.3 128.167L626.534 309.4L445.3 490.6L535.934 581.233L717.133 400C729.044 388.106 738.492 373.98 744.939 358.431C751.385 342.883 754.703 326.215 754.703 309.383C754.703 292.551 751.385 275.884 744.939 260.335C738.492 244.786 729.044 230.661 717.133 218.767L535.534 37.5666C523.678 25.6609 509.588 16.2138 494.071 9.76764C478.555 3.32148 461.919 0.00317383 445.117 0.00317383C428.315 0.00317383 411.678 3.32148 396.162 9.76764C380.646 16.2138 366.523 25.6609 354.667 37.5666Z" fill="#98CA3C"/>
</svg>
