<svg width="102" height="45" viewBox="0 0 102 45" fill="none" xmlns="http://www.w3.org/2000/svg">
<g clip-path="url(#clip0_1042_162)">
<g clip-path="url(#clip1_1042_162)">
<g clip-path="url(#clip2_1042_162)">
<path d="M21.5005 26.0323C23.4713 26.0323 25.0689 24.4347 25.0689 22.4639C25.0689 20.4931 23.4713 18.8955 21.5005 18.8955C19.5298 18.8955 17.9321 20.4931 17.9321 22.4639C17.9321 24.4347 19.5298 26.0323 21.5005 26.0323Z" fill="#515253"/>
<path fill-rule="evenodd" clip-rule="evenodd" d="M21.7629 14.9421C27.8471 14.9835 34.485 15.4274 39.0416 19.4906C39.1754 19.6102 39.3045 19.7345 39.4304 19.8628C40.5054 20.9585 41.0672 22.7275 40.1994 24.1834C38.4192 27.1725 34.438 28.4762 30.5835 29.2787C24.8189 30.4788 18.7914 30.4883 13.0292 29.4317C9.71338 28.8228 6.32267 27.7558 3.96632 25.5238C3.04911 24.6552 2.26499 23.5125 2.38771 22.2407C2.58692 20.1831 4.56078 18.8627 6.22227 17.9686C10.837 15.4855 16.4597 14.9301 21.7629 14.9421ZM21.3215 15.8768C15.5648 15.9159 9.33406 16.2832 4.8891 19.964C4.73371 20.0923 4.58389 20.227 4.43966 20.368C4.34642 20.4588 4.25638 20.5537 4.16952 20.6509C3.38938 21.5275 3.12083 22.9355 3.85714 23.9882C4.59824 25.0473 5.72342 25.8115 6.88208 26.4346C11.2155 28.7647 16.3362 29.1783 21.3286 29.1958C26.3832 29.2141 31.5956 28.7535 36.0605 26.445C37.8391 25.5246 39.8408 24.1731 39.7699 22.4327C39.7046 20.8358 38.1475 19.8492 36.9816 19.1448C36.6661 18.9543 36.3418 18.7782 36.0126 18.6125C31.5804 16.3916 26.3864 15.8657 21.3215 15.8768Z" fill="#515253"/>
<path fill-rule="evenodd" clip-rule="evenodd" d="M29.5602 5.5288C31.7859 5.58538 32.9389 8.26129 33.0911 10.2375C33.1214 10.6304 33.1326 11.0248 33.1278 11.4193C33.123 11.8464 33.0999 12.2736 33.0625 12.6991C32.5931 17.968 30.1873 22.9859 27.3544 27.6198C24.5837 32.1524 21.205 36.6723 16.6086 38.7728C15.0889 39.4677 13.2816 39.8964 11.9365 39.1211C10.0925 38.0588 9.89093 35.5742 9.92519 33.6896C9.93396 33.2266 9.96424 32.7636 10.0121 32.3022C10.7205 25.481 14.1781 19.0191 18.5051 13.4521C21.0296 10.2041 24.0331 6.9823 27.7744 5.81568C28.3633 5.6316 28.8311 5.52004 29.5602 5.5288ZM29.4534 6.46274C26.8405 6.50418 24.4945 8.44058 22.417 10.4527C16.9552 15.7416 12.9302 22.7756 11.311 30.1522C11.1858 30.7236 11.0807 31.2989 11.0034 31.8783C10.9436 32.3269 10.8998 32.7779 10.8767 33.2306C10.8583 33.5908 10.852 33.9517 10.8631 34.3127C10.8711 34.5948 10.8894 34.8769 10.9205 35.1574C10.9436 35.3718 10.9747 35.5853 11.0137 35.7973C11.0432 35.9543 11.0775 36.1105 11.1173 36.2659C11.15 36.3918 11.1866 36.5169 11.2281 36.6412C11.554 37.6237 12.3939 38.5625 13.5215 38.5935C16.152 38.6653 18.6287 36.7472 20.7699 34.6625C24.5287 31.0041 27.3297 26.4069 29.518 21.5747C31.2838 17.6732 32.8991 13.4322 31.997 9.13785C31.9628 8.97529 31.9229 8.81432 31.8775 8.65494C31.8401 8.52505 31.7978 8.39675 31.7516 8.27005C31.401 7.3146 30.5762 6.46035 29.4534 6.46274Z" fill="#515253"/>
<path fill-rule="evenodd" clip-rule="evenodd" d="M13.618 5.56404C16.4581 5.61902 19.0089 7.54666 21.2736 9.7054C25.4062 13.6443 28.4543 18.6551 30.7668 23.9288C32.5582 28.0144 34.2061 32.6004 32.7414 36.9115C32.2801 38.2702 31.1126 39.5133 29.5563 39.5452C26.7027 39.6026 24.0579 37.5275 21.7629 35.2939C16.0055 29.6886 11.731 22.2888 10.2664 14.4412C10.1612 13.8802 10.0775 13.3144 10.0201 12.7463C9.97313 12.2825 9.94365 11.8163 9.93568 11.3501C9.9293 10.974 9.93727 10.5979 9.96357 10.2234C9.9811 9.97315 10.0066 9.72452 10.0409 9.47669C10.0735 9.244 10.115 9.01211 10.1668 8.78261C10.201 8.63041 10.2393 8.4798 10.2831 8.32999C10.7126 6.86135 11.8298 5.55288 13.618 5.56404ZM13.5105 6.49877C11.8474 6.53543 11.0864 8.49654 10.9334 9.87274C10.9023 10.1548 10.8832 10.4393 10.8744 10.7238C10.8632 11.0872 10.868 11.4513 10.8863 11.8147C11.1477 17.0733 13.4985 22.1574 16.3354 26.8127C19.0065 31.1955 22.2323 35.5608 26.6693 37.8048C27.9506 38.4527 29.5077 38.9619 30.6146 38.3499C32.0027 37.5817 32.1733 35.7513 32.2474 34.387C32.2673 34.0157 32.2697 33.6427 32.2577 33.2706C32.2434 32.8036 32.2067 32.3374 32.1518 31.8737C31.6402 27.5411 29.7213 23.4411 27.5171 19.5667C24.7743 14.7472 21.4139 9.94366 16.6581 7.4343C15.6732 6.91474 14.607 6.49 13.5105 6.49877Z" fill="#515253"/>
</g>
</g>
<path d="M55.2663 29V15.9752H60.6481C60.7747 15.9752 60.9375 15.9812 61.1365 15.9933C61.3355 15.9993 61.5194 16.0174 61.6883 16.0476C62.442 16.1621 63.0631 16.4124 63.5515 16.7983C64.046 17.1842 64.4108 17.6726 64.646 18.2636C64.8872 18.8485 65.0078 19.4997 65.0078 20.2173C65.0078 21.2786 64.7394 22.1921 64.2028 22.9579C63.6661 23.7177 62.843 24.1881 61.7335 24.369L60.8018 24.4504H57.4461V29H55.2663ZM62.7465 29L60.1777 23.6996L62.3938 23.2112L65.2158 29H62.7465ZM57.4461 22.4152H60.5576C60.6782 22.4152 60.8139 22.4092 60.9647 22.3971C61.1154 22.3851 61.2541 22.361 61.3807 22.3248C61.7425 22.2343 62.0259 22.0745 62.231 21.8454C62.442 21.6163 62.5897 21.357 62.6742 21.0675C62.7646 20.7781 62.8098 20.4947 62.8098 20.2173C62.8098 19.9399 62.7646 19.6565 62.6742 19.3671C62.5897 19.0716 62.442 18.8093 62.231 18.5802C62.0259 18.351 61.7425 18.1912 61.3807 18.1008C61.2541 18.0646 61.1154 18.0435 60.9647 18.0375C60.8139 18.0254 60.6782 18.0194 60.5576 18.0194H57.4461V22.4152ZM70.7451 29.2714C69.7562 29.2714 68.8879 29.0573 68.1402 28.6292C67.3924 28.201 66.8075 27.6071 66.3854 26.8473C65.9694 26.0875 65.7613 25.2132 65.7613 24.2242C65.7613 23.1569 65.9663 22.2313 66.3764 21.4474C66.7864 20.6575 67.3563 20.0454 68.0859 19.6113C68.8155 19.1771 69.6597 18.96 70.6185 18.96C71.6315 18.96 72.4908 19.1982 73.1963 19.6746C73.9079 20.1449 74.4355 20.8113 74.7792 21.6735C75.1229 22.5358 75.2525 23.5519 75.1681 24.7217H73.0064V23.9258C73.0003 22.8645 72.8134 22.0896 72.4456 21.6012C72.0778 21.1128 71.4989 20.8685 70.7089 20.8685C69.8165 20.8685 69.1532 21.1459 68.719 21.7007C68.2849 22.2494 68.0678 23.0544 68.0678 24.1157C68.0678 25.1046 68.2849 25.8704 68.719 26.4131C69.1532 26.9558 69.7864 27.2272 70.6185 27.2272C71.1552 27.2272 71.6165 27.1096 72.0024 26.8744C72.3943 26.6332 72.6958 26.2865 72.9069 25.8342L75.0596 26.4855C74.6857 27.3659 74.1068 28.0503 73.3229 28.5387C72.5451 29.0271 71.6858 29.2714 70.7451 29.2714ZM67.3804 24.7217V23.0755H74.1008V24.7217H67.3804ZM78.8367 29.2714C78.1312 29.2714 77.5342 29.1387 77.0458 28.8734C76.5574 28.602 76.1865 28.2432 75.9333 27.797C75.686 27.3508 75.5624 26.8593 75.5624 26.3227C75.5624 25.8523 75.6408 25.4302 75.7976 25.0564C75.9544 24.6765 76.1956 24.3509 76.5212 24.0795C76.8468 23.8021 77.2689 23.576 77.7875 23.4011C78.1795 23.2745 78.6377 23.1599 79.1623 23.0574C79.693 22.9549 80.2658 22.8615 80.8809 22.777C81.502 22.6866 82.1502 22.5901 82.8256 22.4876L82.0477 22.9308C82.0537 22.2554 81.903 21.758 81.5954 21.4384C81.2879 21.1188 80.7693 20.959 80.0397 20.959C79.5995 20.959 79.1744 21.0615 78.7644 21.2665C78.3543 21.4715 78.0679 21.8243 77.9051 22.3248L75.9152 21.7007C76.1564 20.8746 76.6147 20.2113 77.29 19.7108C77.9714 19.2103 78.888 18.96 80.0397 18.96C80.908 18.96 81.6708 19.1018 82.3281 19.3852C82.9914 19.6686 83.4828 20.1329 83.8024 20.7781C83.9773 21.1218 84.0828 21.4746 84.119 21.8364C84.1552 22.1921 84.1733 22.5811 84.1733 23.0032V29H82.2648V26.8835L82.5814 27.2272C82.1412 27.9327 81.6256 28.4513 81.0347 28.7829C80.4497 29.1085 79.7171 29.2714 78.8367 29.2714ZM79.2709 27.5347C79.7653 27.5347 80.1874 27.4473 80.5372 27.2724C80.8869 27.0975 81.1643 26.8835 81.3693 26.6302C81.5804 26.3769 81.7221 26.1388 81.7944 25.9157C81.909 25.6383 81.9723 25.3217 81.9844 24.9659C82.0025 24.6041 82.0115 24.3117 82.0115 24.0886L82.6808 24.2876C82.0236 24.3901 81.4598 24.4805 80.9894 24.5589C80.5191 24.6373 80.1151 24.7127 79.7774 24.785C79.4397 24.8514 79.1412 24.9267 78.8819 25.0112C78.6287 25.1016 78.4146 25.2071 78.2398 25.3277C78.0649 25.4483 77.9292 25.587 77.8327 25.7438C77.7423 25.9006 77.6971 26.0845 77.6971 26.2955C77.6971 26.5367 77.7574 26.7508 77.878 26.9377C77.9986 27.1186 78.1734 27.2634 78.4026 27.3719C78.6377 27.4804 78.9272 27.5347 79.2709 27.5347ZM89.8657 29.2714C88.8587 29.2714 87.9994 29.0482 87.2879 28.602C86.5763 28.1498 86.0306 27.5347 85.6507 26.7568C85.2769 25.979 85.0869 25.0986 85.0809 24.1157C85.0869 23.1147 85.2829 22.2283 85.6688 21.4565C86.0608 20.6786 86.6155 20.0696 87.3331 19.6294C88.0507 19.1832 88.9039 18.96 89.8928 18.96C91.0023 18.96 91.94 19.2404 92.7058 19.8012C93.4777 20.356 93.9812 21.1158 94.2163 22.0806L92.0455 22.6685C91.8767 22.1439 91.5963 21.7369 91.2043 21.4474C90.8124 21.152 90.3662 21.0042 89.8657 21.0042C89.2989 21.0042 88.8315 21.1399 88.4637 21.4112C88.0959 21.6766 87.8245 22.0444 87.6497 22.5147C87.4748 22.9851 87.3874 23.5187 87.3874 24.1157C87.3874 25.0443 87.5954 25.7951 88.0115 26.3679C88.4275 26.9408 89.0456 27.2272 89.8657 27.2272C90.4446 27.2272 90.8998 27.0945 91.2315 26.8292C91.5692 26.5639 91.8224 26.181 91.9913 25.6805L94.2163 26.178C93.9148 27.1729 93.3872 27.9387 92.6335 28.4754C91.8797 29.006 90.9571 29.2714 89.8657 29.2714ZM100.85 29C100.205 29.1206 99.5715 29.1719 98.9504 29.1538C98.3353 29.1417 97.7836 29.0301 97.2952 28.8191C96.8067 28.602 96.4359 28.2613 96.1826 27.797C95.9595 27.3749 95.8419 26.9438 95.8299 26.5036C95.8178 26.0634 95.8118 25.5659 95.8118 25.0112V16.5179H97.9826V24.8845C97.9826 25.2765 97.9856 25.6202 97.9916 25.9157C98.0037 26.2111 98.067 26.4523 98.1816 26.6393C98.3987 27.0011 98.7454 27.2031 99.2217 27.2453C99.6981 27.2875 100.241 27.2634 100.85 27.1729V29ZM94.039 20.9409V19.2314H100.85V20.9409H94.039Z" fill="#515253"/>
</g>
<defs>
<clipPath id="clip0_1042_162">
<rect width="102" height="45" fill="white"/>
</clipPath>
<clipPath id="clip1_1042_162">
<rect width="44" height="44" fill="white" transform="translate(0 0.5)"/>
</clipPath>
<clipPath id="clip2_1042_162">
<rect width="51" height="51" fill="white" transform="translate(-4 -3)"/>
</clipPath>
</defs>
</svg>
