<svg width="102" height="45" viewBox="0 0 102 45" fill="none" xmlns="http://www.w3.org/2000/svg">
<g clip-path="url(#clip0_1042_162)">
<g clip-path="url(#clip1_1042_162)">
<g clip-path="url(#clip2_1042_162)">
<path d="M21.5005 26.0323C23.4713 26.0323 25.0689 24.4347 25.0689 22.4639C25.0689 20.4931 23.4713 18.8955 21.5005 18.8955C19.5298 18.8955 17.9321 20.4931 17.9321 22.4639C17.9321 24.4347 19.5298 26.0323 21.5005 26.0323Z" fill="#515253"/>
<path fill-rule="evenodd" clip-rule="evenodd" d="M21.7629 14.9421C27.8471 14.9835 34.485 15.4274 39.0416 19.4906C39.1754 19.6102 39.3045 19.7345 39.4304 19.8628C40.5054 20.9585 41.0672 22.7275 40.1994 24.1834C38.4192 27.1725 34.438 28.4762 30.5835 29.2787C24.8189 30.4788 18.7914 30.4883 13.0292 29.4317C9.71338 28.8228 6.32267 27.7558 3.96632 25.5238C3.04911 24.6552 2.26499 23.5125 2.38771 22.2407C2.58692 20.1831 4.56078 18.8627 6.22227 17.9686C10.837 15.4855 16.4597 14.9301 21.7629 14.9421ZM21.3215 15.8768C15.5648 15.9159 9.33406 16.2832 4.8891 19.964C4.73371 20.0923 4.58389 20.227 4.43966 20.368C4.34642 20.4588 4.25638 20.5537 4.16952 20.6509C3.38938 21.5275 3.12083 22.9355 3.85714 23.9882C4.59824 25.0473 5.72342 25.8115 6.88208 26.4346C11.2155 28.7647 16.3362 29.1783 21.3286 29.1958C26.3832 29.2141 31.5956 28.7535 36.0605 26.445C37.8391 25.5246 39.8408 24.1731 39.7699 22.4327C39.7046 20.8358 38.1475 19.8492 36.9816 19.1448C36.6661 18.9543 36.3418 18.7782 36.0126 18.6125C31.5804 16.3916 26.3864 15.8657 21.3215 15.8768Z" fill="#515253"/>
<path fill-rule="evenodd" clip-rule="evenodd" d="M29.5602 5.5288C31.7859 5.58538 32.9389 8.26129 33.0911 10.2375C33.1214 10.6304 33.1326 11.0248 33.1278 11.4193C33.123 11.8464 33.0999 12.2736 33.0625 12.6991C32.5931 17.968 30.1873 22.9859 27.3544 27.6198C24.5837 32.1524 21.205 36.6723 16.6086 38.7728C15.0889 39.4677 13.2816 39.8964 11.9365 39.1211C10.0925 38.0588 9.89093 35.5742 9.92519 33.6896C9.93396 33.2266 9.96424 32.7636 10.0121 32.3022C10.7205 25.481 14.1781 19.0191 18.5051 13.4521C21.0296 10.2041 24.0331 6.9823 27.7744 5.81568C28.3633 5.6316 28.8311 5.52004 29.5602 5.5288ZM29.4534 6.46274C26.8405 6.50418 24.4945 8.44058 22.417 10.4527C16.9552 15.7416 12.9302 22.7756 11.311 30.1522C11.1858 30.7236 11.0807 31.2989 11.0034 31.8783C10.9436 32.3269 10.8998 32.7779 10.8767 33.2306C10.8583 33.5908 10.852 33.9517 10.8631 34.3127C10.8711 34.5948 10.8894 34.8769 10.9205 35.1574C10.9436 35.3718 10.9747 35.5853 11.0137 35.7973C11.0432 35.9543 11.0775 36.1105 11.1173 36.2659C11.15 36.3918 11.1866 36.5169 11.2281 36.6412C11.554 37.6237 12.3939 38.5625 13.5215 38.5935C16.152 38.6653 18.6287 36.7472 20.7699 34.6625C24.5287 31.0041 27.3297 26.4069 29.518 21.5747C31.2838 17.6732 32.8991 13.4322 31.997 9.13785C31.9628 8.97529 31.9229 8.81432 31.8775 8.65494C31.8401 8.52505 31.7978 8.39675 31.7516 8.27005C31.401 7.3146 30.5762 6.46035 29.4534 6.46274Z" fill="#515253"/>
<path fill-rule="evenodd" clip-rule="evenodd" d="M13.618 5.56404C16.4581 5.61902 19.0089 7.54666 21.2736 9.7054C25.4062 13.6443 28.4543 18.6551 30.7668 23.9288C32.5582 28.0144 34.2061 32.6004 32.7414 36.9115C32.2801 38.2702 31.1126 39.5133 29.5563 39.5452C26.7027 39.6026 24.0579 37.5275 21.7629 35.2939C16.0055 29.6886 11.731 22.2888 10.2664 14.4412C10.1612 13.8802 10.0775 13.3144 10.0201 12.7463C9.97313 12.2825 9.94365 11.8163 9.93568 11.3501C9.9293 10.974 9.93727 10.5979 9.96357 10.2234C9.9811 9.97315 10.0066 9.72452 10.0409 9.47669C10.0735 9.244 10.115 9.01211 10.1668 8.78261C10.201 8.63041 10.2393 8.4798 10.2831 8.32999C10.7126 6.86135 11.8298 5.55288 13.618 5.56404ZM13.5105 6.49877C11.8474 6.53543 11.0864 8.49654 10.9334 9.87274C10.9023 10.1548 10.8832 10.4393 10.8744 10.7238C10.8632 11.0872 10.868 11.4513 10.8863 11.8147C11.1477 17.0733 13.4985 22.1574 16.3354 26.8127C19.0065 31.1955 22.2323 35.5608 26.6693 37.8048C27.9506 38.4527 29.5077 38.9619 30.6146 38.3499C32.0027 37.5817 32.1733 35.7513 32.2474 34.387C32.2673 34.0157 32.2697 33.6427 32.2577 33.2706C32.2434 32.8036 32.2067 32.3374 32.1518 31.8737C31.6402 27.5411 29.7213 23.4411 27.5171 19.5667C24.7743 14.7472 21.4139 9.94366 16.6581 7.4343C15.6732 6.91474 14.607 6.49 13.5105 6.49877Z" fill="#515253"/>
</g>
</g>
<path d="M55.255 26V15.5737H61.4175C62.1898 15.5737 62.8602 15.6863 63.4287 15.9116C63.9973 16.1261 64.437 16.464 64.7481 16.9252C65.0592 17.3758 65.2147 17.955 65.2147 18.663C65.2147 19.1349 65.1343 19.5425 64.9734 19.8858C64.8125 20.2183 64.5872 20.4919 64.2976 20.7064C64.008 20.9209 63.6701 21.0872 63.2839 21.2052C62.9085 21.3232 62.5062 21.3983 62.0772 21.4304L61.9163 21.3178C62.6028 21.3285 63.1713 21.3929 63.6218 21.5109C64.0723 21.6182 64.4156 21.8273 64.6516 22.1384C64.8876 22.4387 65.0056 22.8839 65.0056 23.4739V26H63.1874V23.5704C63.1874 23.1628 63.1123 22.8464 62.9621 22.6211C62.8227 22.3851 62.576 22.2242 62.222 22.1384C61.8787 22.0419 61.3853 21.9936 60.7417 21.9936H57.0893V26H55.255ZM57.0893 20.4972H61.4175C62.0611 20.4972 62.5492 20.3363 62.8817 20.0145C63.2142 19.6927 63.3805 19.269 63.3805 18.7434C63.3805 18.2393 63.2142 17.8531 62.8817 17.5849C62.5492 17.306 62.0611 17.1666 61.4175 17.1666H57.0893V20.4972ZM73.0483 23.3612H74.7699C74.6841 23.9083 74.4696 24.3964 74.1263 24.8254C73.7938 25.2438 73.3379 25.5763 72.7587 25.823C72.1794 26.059 71.4876 26.177 70.6831 26.177C69.7713 26.177 68.9561 26.0107 68.2374 25.6782C67.5187 25.3349 66.9556 24.8522 66.5479 24.2301C66.1403 23.608 65.9365 22.8678 65.9365 22.0097C65.9365 21.1623 66.135 20.4221 66.5318 19.7893C66.9287 19.1564 67.4758 18.6683 68.173 18.3251C68.881 17.9818 69.6962 17.8102 70.6187 17.8102C71.5734 17.8102 72.3672 17.9818 73 18.3251C73.6436 18.6576 74.121 19.1617 74.432 19.8375C74.7431 20.5026 74.8718 21.3446 74.8182 22.3637H67.7547C67.8083 22.8142 67.9531 23.2218 68.1891 23.5865C68.4358 23.9405 68.7684 24.2194 69.1867 24.4232C69.605 24.6163 70.0931 24.7128 70.6509 24.7128C71.273 24.7128 71.7933 24.5894 72.2116 24.3427C72.6407 24.096 72.9196 23.7689 73.0483 23.3612ZM70.5704 19.2583C69.841 19.2583 69.2403 19.4406 68.7684 19.8053C68.2964 20.1593 67.9907 20.6152 67.8512 21.173H73.0161C72.9732 20.5723 72.7319 20.1057 72.2921 19.7732C71.8523 19.4299 71.2784 19.2583 70.5704 19.2583ZM79.1786 26.177C78.4492 26.177 77.7788 26 77.1673 25.646C76.5666 25.292 76.0839 24.804 75.7192 24.1818C75.3653 23.549 75.1883 22.8249 75.1883 22.0097C75.1883 21.173 75.3706 20.4436 75.7353 19.8214C76.1 19.1886 76.5935 18.6951 77.2156 18.3412C77.8378 17.9872 78.535 17.8102 79.3073 17.8102C80.1654 17.8102 80.8466 17.9979 81.3507 18.3733C81.8549 18.7488 82.2142 19.2529 82.4288 19.8858C82.6433 20.5187 82.7506 21.2266 82.7506 22.0097C82.7506 22.4495 82.6862 22.9161 82.5575 23.4095C82.4288 23.8922 82.225 24.3427 81.9461 24.7611C81.6779 25.1794 81.3132 25.5227 80.8519 25.7908C80.4014 26.0483 79.8436 26.177 79.1786 26.177ZM79.7256 24.6967C80.3263 24.6967 80.8359 24.5841 81.2542 24.3588C81.6833 24.1228 82.0051 23.801 82.2196 23.3934C82.4449 22.9858 82.5575 22.5246 82.5575 22.0097C82.5575 21.4412 82.4449 20.9585 82.2196 20.5616C81.9943 20.154 81.6725 19.8429 81.2542 19.6284C80.8359 19.4031 80.3263 19.2905 79.7256 19.2905C78.8675 19.2905 78.2025 19.5425 77.7305 20.0467C77.2585 20.5509 77.0225 21.2052 77.0225 22.0097C77.0225 22.5353 77.1352 23.0019 77.3604 23.4095C77.5964 23.8171 77.9182 24.1336 78.3258 24.3588C78.7334 24.5841 79.2 24.6967 79.7256 24.6967ZM82.5575 17.9872H84.3596V26H82.6862C82.6862 26 82.6755 25.8981 82.654 25.6943C82.6326 25.4905 82.6111 25.2438 82.5897 24.9541C82.5682 24.6538 82.5575 24.3695 82.5575 24.1014V17.9872ZM94.1425 22.8946C94.0782 23.5811 93.8583 24.1711 93.4828 24.6645C93.1074 25.158 92.6033 25.5334 91.9704 25.7908C91.3482 26.0483 90.6296 26.177 89.8143 26.177C88.9347 26.177 88.1356 26.0161 87.4169 25.6943C86.709 25.3725 86.1458 24.9005 85.7275 24.2784C85.3091 23.6562 85.1 22.9 85.1 22.0097C85.1 21.1194 85.3091 20.3631 85.7275 19.741C86.1458 19.1188 86.709 18.6415 87.4169 18.309C88.1356 17.9765 88.9347 17.8102 89.8143 17.8102C90.6296 17.8102 91.3482 17.9443 91.9704 18.2124C92.5925 18.4699 93.0913 18.8399 93.4668 19.3226C93.8422 19.8053 94.0621 20.39 94.1264 21.0765H92.4853C92.3029 20.5079 91.9704 20.0682 91.4877 19.7571C91.0157 19.4353 90.4579 19.2744 89.8143 19.2744C89.2887 19.2744 88.806 19.3816 88.3662 19.5962C87.9264 19.8 87.5725 20.1057 87.3043 20.5133C87.0468 20.9102 86.9181 21.409 86.9181 22.0097C86.9181 22.5996 87.0468 23.0984 87.3043 23.506C87.5725 23.9137 87.9264 24.2194 88.3662 24.4232C88.806 24.6163 89.2887 24.7128 89.8143 24.7128C90.5223 24.7128 91.1015 24.5573 91.552 24.2462C92.0133 23.9244 92.3297 23.4739 92.5014 22.8946H94.1425ZM94.3483 17.9872H100.012V19.4514H94.3483V17.9872ZM96.2791 15.8311H98.0812V26H96.2791V15.8311Z" fill="#515253"/>
</g>
<defs>
<clipPath id="clip0_1042_162">
<rect width="102" height="45" fill="white"/>
</clipPath>
<clipPath id="clip1_1042_162">
<rect width="44" height="44" fill="white" transform="translate(0 0.5)"/>
</clipPath>
<clipPath id="clip2_1042_162">
<rect width="51" height="51" fill="white" transform="translate(-4 -3)"/>
</clipPath>
</defs>
</svg>
