<svg width="120" height="45" viewBox="0 0 120 45" fill="none" xmlns="http://www.w3.org/2000/svg">
<g clip-path="url(#clip0_1042_136)">
<g clip-path="url(#clip1_1042_136)">
<path d="M11.0625 19.4062C12.5208 13.5729 16.1667 10.6562 22 10.6562C30.75 10.6562 31.8438 17.2187 36.2188 18.3125C39.1354 19.0417 41.6875 17.9479 43.875 15.0312C42.4167 20.8646 38.7708 23.7812 32.9375 23.7812C24.1875 23.7812 23.0937 17.2187 18.7187 16.125C15.8021 15.3958 13.25 16.4896 11.0625 19.4062ZM0.125 32.5312C1.58333 26.6979 5.22917 23.7812 11.0625 23.7812C19.8125 23.7812 20.9063 30.3437 25.2813 31.4375C28.1979 32.1667 30.75 31.0729 32.9375 28.1562C31.4792 33.9896 27.8333 36.9062 22 36.9062C13.25 36.9062 12.1563 30.3437 7.78125 29.25C4.86458 28.5208 2.3125 29.6146 0.125 32.5312Z" fill="#515253"/>
</g>
<path d="M58.3959 29V18.0194H54.1809V15.9752H64.7907V18.0194H60.5757V29H58.3959ZM66.792 29.2714C66.0865 29.2714 65.4896 29.1387 65.0011 28.8734C64.5127 28.602 64.1418 28.2432 63.8886 27.797C63.6414 27.3508 63.5177 26.8593 63.5177 26.3227C63.5177 25.8523 63.5961 25.4302 63.7529 25.0564C63.9097 24.6765 64.1509 24.3509 64.4765 24.0795C64.8021 23.8021 65.2242 23.576 65.7428 23.4011C66.1348 23.2745 66.593 23.1599 67.1177 23.0574C67.6483 22.9549 68.2211 22.8615 68.8362 22.777C69.4573 22.6866 70.1055 22.5901 70.7809 22.4876L70.003 22.9308C70.009 22.2554 69.8583 21.758 69.5508 21.4384C69.2432 21.1188 68.7246 20.959 67.995 20.959C67.5548 20.959 67.1297 21.0615 66.7197 21.2665C66.3096 21.4715 66.0232 21.8243 65.8604 22.3248L63.8705 21.7007C64.1117 20.8746 64.57 20.2113 65.2453 19.7108C65.9267 19.2103 66.8433 18.96 67.995 18.96C68.8633 18.96 69.6261 19.1018 70.2834 19.3852C70.9467 19.6686 71.4381 20.1329 71.7577 20.7781C71.9326 21.1218 72.0381 21.4746 72.0743 21.8364C72.1105 22.1921 72.1286 22.5811 72.1286 23.0032V29H70.2201V26.8835L70.5367 27.2272C70.0965 27.9327 69.5809 28.4513 68.99 28.7829C68.4051 29.1085 67.6724 29.2714 66.792 29.2714ZM67.2262 27.5347C67.7207 27.5347 68.1428 27.4473 68.4925 27.2724C68.8422 27.0975 69.1196 26.8835 69.3246 26.6302C69.5357 26.3769 69.6774 26.1388 69.7497 25.9157C69.8643 25.6383 69.9276 25.3217 69.9397 24.9659C69.9578 24.6041 69.9668 24.3117 69.9668 24.0886L70.6362 24.2876C69.9789 24.3901 69.4151 24.4805 68.9447 24.5589C68.4744 24.6373 68.0704 24.7127 67.7327 24.785C67.395 24.8514 67.0965 24.9267 66.8373 25.0112C66.584 25.1016 66.3699 25.2071 66.1951 25.3277C66.0202 25.4483 65.8845 25.587 65.788 25.7438C65.6976 25.9006 65.6524 26.0845 65.6524 26.2955C65.6524 26.5367 65.7127 26.7508 65.8333 26.9377C65.9539 27.1186 66.1287 27.2634 66.3579 27.3719C66.593 27.4804 66.8825 27.5347 67.2262 27.5347ZM73.7598 17.748V15.7491H75.9396V17.748H73.7598ZM73.7598 29V19.2314H75.9396V29H73.7598ZM77.9254 29V15.7038H80.1053V29H77.9254ZM83.9905 29L81.0057 19.2133L83.1403 19.2314L85.0488 25.4996L86.9844 19.2314H88.8206L90.7472 25.4996L92.6647 19.2314H94.7993L91.8145 29H90.114L87.898 22.2796L85.691 29H83.9905ZM95.708 17.748V15.7491H97.8879V17.748H95.708ZM95.708 29V19.2314H97.8879V29H95.708ZM106.449 29V24.2966C106.449 23.9891 106.428 23.6484 106.386 23.2745C106.344 22.9007 106.244 22.5419 106.088 22.1982C105.937 21.8484 105.708 21.562 105.4 21.3389C105.099 21.1158 104.689 21.0042 104.17 21.0042C103.893 21.0042 103.618 21.0494 103.347 21.1399C103.076 21.2303 102.828 21.3871 102.605 21.6102C102.388 21.8273 102.213 22.1288 102.081 22.5147C101.948 22.8946 101.882 23.3831 101.882 23.98L100.588 23.4283C100.588 22.5961 100.748 21.8424 101.068 21.167C101.393 20.4917 101.87 19.955 102.497 19.557C103.124 19.153 103.896 18.951 104.812 18.951C105.536 18.951 106.133 19.0716 106.603 19.3128C107.074 19.554 107.447 19.8615 107.725 20.2354C108.002 20.6093 108.207 21.0072 108.34 21.4293C108.472 21.8514 108.557 22.2524 108.593 22.6323C108.635 23.0062 108.656 23.3107 108.656 23.5459V29H106.449ZM99.6747 29V19.2314H101.619V22.2615H101.882V29H99.6747ZM113.87 29.2714C112.971 29.2714 112.187 29.0452 111.518 28.593C110.849 28.1407 110.33 27.5257 109.962 26.7478C109.594 25.9699 109.411 25.0926 109.411 24.1157C109.411 23.1268 109.594 22.2464 109.962 21.4746C110.336 20.6967 110.864 20.0846 111.545 19.6384C112.227 19.1862 113.029 18.96 113.951 18.96C114.88 18.96 115.658 19.1862 116.285 19.6384C116.918 20.0846 117.397 20.6967 117.723 21.4746C118.048 22.2524 118.211 23.1328 118.211 24.1157C118.211 25.0865 118.048 25.9639 117.723 26.7478C117.397 27.5257 116.912 28.1407 116.267 28.593C115.621 29.0452 114.822 29.2714 113.87 29.2714ZM114.204 27.3176C114.789 27.3176 115.26 27.185 115.615 26.9196C115.977 26.6483 116.239 26.2714 116.402 25.789C116.571 25.3066 116.656 24.7488 116.656 24.1157C116.656 23.4765 116.571 22.9187 116.402 22.4424C116.239 21.96 115.983 21.5861 115.633 21.3208C115.284 21.0494 114.831 20.9138 114.277 20.9138C113.692 20.9138 113.209 21.0585 112.83 21.3479C112.45 21.6313 112.169 22.0173 111.988 22.5057C111.807 22.9881 111.717 23.5248 111.717 24.1157C111.717 24.7127 111.804 25.2554 111.979 25.7438C112.16 26.2262 112.435 26.6091 112.802 26.8925C113.17 27.1759 113.638 27.3176 114.204 27.3176ZM116.656 29V22.1439H116.384V15.9752H118.582V29H116.656Z" fill="#515253"/>
</g>
<defs>
<clipPath id="clip0_1042_136">
<rect width="120" height="45" fill="white"/>
</clipPath>
<clipPath id="clip1_1042_136">
<rect width="44" height="44" fill="white" transform="translate(0 0.5)"/>
</clipPath>
</defs>
</svg>
