<svg width="120" height="45" viewBox="0 0 120 45" fill="none" xmlns="http://www.w3.org/2000/svg">
<g clip-path="url(#clip0_1042_136)">
<g clip-path="url(#clip1_1042_136)">
<path d="M11.0625 19.4062C12.5208 13.5729 16.1667 10.6562 22 10.6562C30.75 10.6562 31.8438 17.2187 36.2188 18.3125C39.1354 19.0417 41.6875 17.9479 43.875 15.0312C42.4167 20.8646 38.7708 23.7812 32.9375 23.7812C24.1875 23.7812 23.0938 17.2188 18.7188 16.125C15.8021 15.3958 13.25 16.4896 11.0625 19.4062ZM0.125 32.5312C1.58333 26.6979 5.22917 23.7812 11.0625 23.7812C19.8125 23.7812 20.9062 30.3437 25.2812 31.4375C28.1979 32.1667 30.75 31.0729 32.9375 28.1562C31.4792 33.9896 27.8333 36.9062 22 36.9062C13.25 36.9062 12.1562 30.3438 7.78125 29.25C4.86458 28.5208 2.3125 29.6146 0.125 32.5312Z" fill="#515253"/>
</g>
<path d="M54.2896 15.5737H64.2976V17.1505H54.2896V15.5737ZM58.3926 16.9574H60.2107V26H58.3926V16.9574ZM67.0042 26.177C66.2748 26.177 65.6044 26 64.993 25.646C64.3923 25.292 63.9096 24.804 63.5449 24.1818C63.1909 23.549 63.0139 22.8249 63.0139 22.0097C63.0139 21.173 63.1963 20.4436 63.561 19.8214C63.9257 19.1886 64.4191 18.6951 65.0413 18.3412C65.6634 17.9872 66.3606 17.8102 67.133 17.8102C67.9911 17.8102 68.6722 17.9979 69.1764 18.3733C69.6805 18.7488 70.0399 19.2529 70.2544 19.8858C70.469 20.5187 70.5762 21.2266 70.5762 22.0097C70.5762 22.4495 70.5119 22.9161 70.3831 23.4095C70.2544 23.8922 70.0506 24.3427 69.7717 24.7611C69.5036 25.1794 69.1388 25.5227 68.6776 25.7908C68.2271 26.0483 67.6693 26.177 67.0042 26.177ZM67.5513 24.6967C68.152 24.6967 68.6615 24.5841 69.0799 24.3588C69.5089 24.1228 69.8307 23.801 70.0453 23.3934C70.2705 22.9858 70.3831 22.5246 70.3831 22.0097C70.3831 21.4412 70.2705 20.9585 70.0453 20.5616C69.82 20.154 69.4982 19.8429 69.0799 19.6284C68.6615 19.4031 68.152 19.2905 67.5513 19.2905C66.6932 19.2905 66.0281 19.5425 65.5561 20.0467C65.0842 20.5509 64.8482 21.2052 64.8482 22.0097C64.8482 22.5353 64.9608 23.0019 65.1861 23.4095C65.4221 23.8171 65.7439 24.1336 66.1515 24.3588C66.5591 24.5841 67.0257 24.6967 67.5513 24.6967ZM70.3831 17.9872H72.1852V26H70.5119C70.5119 26 70.5011 25.8981 70.4797 25.6943C70.4582 25.4905 70.4368 25.2438 70.4153 24.9541C70.3939 24.6538 70.3831 24.3695 70.3831 24.1014V17.9872ZM75.4357 14.5922V16.3138H73.2957V14.5922H75.4357ZM73.4566 17.9872H75.2587V26H73.4566V17.9872ZM76.7543 14.7692H78.5403V26H76.7543V14.7692ZM89.4631 24.6484L88.9321 24.6323L91.2652 17.9872H93.2282L90.1067 26H88.4173L85.9233 19.3226H86.4865L83.9282 26H82.2387L79.1816 17.9872H81.1446L83.4133 24.6484H82.8823L85.1671 17.9872H87.2588L89.4631 24.6484ZM95.8058 14.5922V16.3138H93.6659V14.5922H95.8058ZM93.8268 17.9872H95.6289V26H93.8268V17.9872ZM96.9636 17.9872H98.7496V26H96.9636V17.9872ZM102.128 17.8102C102.59 17.8102 103.013 17.8745 103.4 18.0033C103.796 18.132 104.134 18.3304 104.413 18.5986C104.703 18.856 104.923 19.1778 105.073 19.564C105.234 19.9502 105.314 20.406 105.314 20.9316V26H103.528V21.2856C103.528 20.6313 103.367 20.1486 103.046 19.8375C102.735 19.5157 102.241 19.3548 101.565 19.3548C101.05 19.3548 100.578 19.4675 100.149 19.6927C99.731 19.9073 99.3878 20.1915 99.1196 20.5455C98.8515 20.8887 98.6959 21.2695 98.653 21.6879L98.6369 20.819C98.6906 20.4221 98.8086 20.0467 98.9909 19.6927C99.1733 19.328 99.4146 19.0062 99.715 18.7273C100.015 18.4377 100.369 18.2124 100.777 18.0515C101.185 17.8906 101.635 17.8102 102.128 17.8102ZM110.054 26.177C109.314 26.177 108.638 26 108.027 25.646C107.426 25.292 106.949 24.804 106.595 24.1818C106.241 23.549 106.064 22.8249 106.064 22.0097C106.064 21.173 106.236 20.4436 106.579 19.8214C106.933 19.1886 107.405 18.6951 107.995 18.3412C108.596 17.9872 109.282 17.8102 110.054 17.8102C110.73 17.8102 111.299 17.9228 111.76 18.1481C112.221 18.3626 112.586 18.663 112.854 19.0491C113.122 19.4246 113.315 19.8643 113.433 20.3685C113.562 20.8727 113.626 21.4197 113.626 22.0097C113.626 22.4495 113.562 22.9161 113.433 23.4095C113.305 23.8922 113.101 24.3427 112.822 24.7611C112.554 25.1794 112.189 25.5227 111.728 25.7908C111.277 26.0483 110.719 26.177 110.054 26.177ZM110.601 24.6967C111.202 24.6967 111.712 24.5841 112.13 24.3588C112.559 24.1228 112.881 23.801 113.095 23.3934C113.321 22.9858 113.433 22.5246 113.433 22.0097C113.433 21.4412 113.321 20.9585 113.095 20.5616C112.87 20.154 112.548 19.8375 112.13 19.6123C111.712 19.387 111.202 19.2744 110.601 19.2744C109.743 19.2744 109.078 19.5318 108.606 20.0467C108.134 20.5509 107.898 21.2052 107.898 22.0097C107.898 22.5353 108.011 23.0019 108.236 23.4095C108.472 23.8171 108.794 24.1336 109.202 24.3588C109.609 24.5841 110.076 24.6967 110.601 24.6967ZM113.433 14.7692H115.235V26H113.562C113.541 25.7533 113.514 25.4476 113.482 25.0829C113.449 24.7182 113.433 24.391 113.433 24.1014V14.7692Z" fill="#515253"/>
</g>
<defs>
<clipPath id="clip0_1042_136">
<rect width="120" height="45" fill="white"/>
</clipPath>
<clipPath id="clip1_1042_136">
<rect width="44" height="44" fill="white" transform="translate(0 0.5)"/>
</clipPath>
</defs>
</svg>
