<svg width="50" height="38" viewBox="0 0 50 38" fill="none" xmlns="http://www.w3.org/2000/svg">
<rect y="-12" width="50" height="50" rx="25" fill="#F7F7FA"/>
<path d="M17 15C18.1046 15 19 14.1046 19 13C19 11.8954 18.1046 11 17 11C15.8954 11 15 11.8954 15 13C15 14.1046 15.8954 15 17 15Z" fill="#5D4FB6"/>
<path d="M25 15C26.1046 15 27 14.1046 27 13C27 11.8954 26.1046 11 25 11C23.8954 11 23 11.8954 23 13C23 14.1046 23.8954 15 25 15Z" fill="#5D4FB6"/>
<path d="M33 15C34.1046 15 35 14.1046 35 13C35 11.8954 34.1046 11 33 11C31.8954 11 31 11.8954 31 13C31 14.1046 31.8954 15 33 15Z" fill="#5D4FB6"/>
</svg>
