<svg width="145" height="45" viewBox="0 0 145 45" fill="none" xmlns="http://www.w3.org/2000/svg">
<g clip-path="url(#clip0_1042_104)">
<g clip-path="url(#clip1_1042_104)">
<g clip-path="url(#clip2_1042_104)">
<path d="M0 5.8125C0 3.15463 2.15463 1 4.8125 1H39.1875C41.8454 1 44 3.15463 44 5.8125V11.3125C44 12.4516 43.0766 13.375 41.9375 13.375C40.7984 13.375 39.875 12.4516 39.875 11.3125V5.8125C39.875 5.43281 39.5673 5.125 39.1875 5.125H4.8125C4.43281 5.125 4.125 5.43281 4.125 5.8125V40.1875C4.125 40.5673 4.43281 40.875 4.8125 40.875H41.9375C43.0766 40.875 44 41.7984 44 42.9375C44 44.0766 43.0766 45 41.9375 45H4.8125C2.15463 45 0 42.8454 0 40.1875V5.8125ZM13.0625 18.875C13.0625 17.7359 13.9859 16.8125 15.125 16.8125H25.4375C26.5766 16.8125 27.5 17.7359 27.5 18.875C27.5 20.0141 26.5766 20.9375 25.4375 20.9375H22.6875V35.375C22.6875 36.5141 21.7641 37.4375 20.625 37.4375C19.4859 37.4375 18.5625 36.5141 18.5625 35.375V20.9375H15.125C13.9859 20.9375 13.0625 20.0141 13.0625 18.875ZM31.0082 19.0953C32.1596 17.7245 33.9644 16.8125 36.4375 16.8125C38.7335 16.8125 40.4657 17.5981 41.6333 18.8332C42.4157 19.661 42.3789 20.9664 41.5511 21.7489C40.7234 22.5313 39.418 22.4946 38.6356 21.6668C38.3334 21.3472 37.7311 20.9375 36.4375 20.9375C35.0606 20.9375 34.4592 21.4005 34.1668 21.7484C33.8069 22.1768 33.6875 22.714 33.6875 23C33.6875 23.286 33.8069 23.8232 34.1668 24.2516C34.4592 24.5995 35.0606 25.0625 36.4375 25.0625C36.6457 25.0625 36.8467 25.0933 37.0359 25.1507C38.8594 25.4103 40.2377 26.2244 41.1793 27.3453C42.2631 28.6356 42.625 30.161 42.625 31.25C42.625 32.339 42.2631 33.8644 41.1793 35.1547C40.0279 36.5256 38.2231 37.4375 35.75 37.4375C33.454 37.4375 31.7218 36.6518 30.5542 35.4168C29.7718 34.589 29.8086 33.2836 30.6364 32.501C31.4641 31.7186 32.7695 31.7555 33.5519 32.5832C33.8541 32.9028 34.4564 33.3125 35.75 33.3125C37.1269 33.3125 37.7283 32.8494 38.0207 32.5015C38.3806 32.0731 38.5 31.536 38.5 31.25C38.5 30.964 38.3806 30.4269 38.0207 29.9985C37.7283 29.6506 37.1269 29.1875 35.75 29.1875C35.5418 29.1875 35.3408 29.1567 35.1516 29.0992C33.3281 28.8396 31.9498 28.0256 31.0082 26.9047C29.9244 25.6143 29.5625 24.089 29.5625 23C29.5625 21.911 29.9244 20.3857 31.0082 19.0953Z" fill="#515253"/>
</g>
</g>
<path d="M58.3959 29V18.0194H54.1809V15.9752H64.7907V18.0194H60.5757V29H58.3959ZM65.3448 33.3416L67.2262 28.1769L67.2624 29.6965L63.0022 19.2314H65.2725L68.2935 26.9739H67.7146L70.6542 19.2314H72.8341L67.389 33.3416H65.3448ZM77.9729 29.2714C77.0202 29.2714 76.2212 29.0452 75.576 28.593C74.9308 28.1407 74.4454 27.5257 74.1198 26.7478C73.7941 25.9639 73.6313 25.0865 73.6313 24.1157C73.6313 23.1328 73.7941 22.2524 74.1198 21.4746C74.4454 20.6967 74.9217 20.0846 75.5489 19.6384C76.182 19.1862 76.9629 18.96 77.8915 18.96C78.8141 18.96 79.6131 19.1862 80.2884 19.6384C80.9698 20.0846 81.4975 20.6967 81.8713 21.4746C82.2452 22.2464 82.4321 23.1268 82.4321 24.1157C82.4321 25.0926 82.2482 25.9699 81.8804 26.7478C81.5125 27.5257 80.994 28.1407 80.3246 28.593C79.6553 29.0452 78.8714 29.2714 77.9729 29.2714ZM73.2605 33.3416V19.2314H75.1871V26.0875H75.4584V33.3416H73.2605ZM77.6383 27.3176C78.2051 27.3176 78.6724 27.1759 79.0402 26.8925C79.4081 26.6091 79.6794 26.2262 79.8543 25.7438C80.0352 25.2554 80.1256 24.7127 80.1256 24.1157C80.1256 23.5248 80.0352 22.9881 79.8543 22.5057C79.6734 22.0173 79.393 21.6313 79.0131 21.3479C78.6332 21.0585 78.1508 20.9138 77.5659 20.9138C77.0111 20.9138 76.5589 21.0494 76.2092 21.3208C75.8594 21.5861 75.6001 21.96 75.4313 22.4424C75.2685 22.9187 75.1871 23.4765 75.1871 24.1157C75.1871 24.7488 75.2685 25.3066 75.4313 25.789C75.6001 26.2714 75.8624 26.6483 76.2182 26.9196C76.58 27.185 77.0534 27.3176 77.6383 27.3176ZM87.9624 29.2714C86.9735 29.2714 86.1052 29.0573 85.3575 28.6292C84.6097 28.201 84.0248 27.6071 83.6027 26.8473C83.1867 26.0875 82.9786 25.2132 82.9786 24.2242C82.9786 23.1569 83.1836 22.2313 83.5937 21.4474C84.0037 20.6575 84.5736 20.0454 85.3032 19.6113C86.0328 19.1771 86.877 18.96 87.8358 18.96C88.8488 18.96 89.7081 19.1982 90.4136 19.6746C91.1252 20.1449 91.6528 20.8113 91.9965 21.6735C92.3402 22.5358 92.4698 23.5519 92.3854 24.7217H90.2237V23.9258C90.2176 22.8645 90.0307 22.0896 89.6629 21.6012C89.2951 21.1128 88.7162 20.8685 87.9262 20.8685C87.0338 20.8685 86.3705 21.1459 85.9363 21.7007C85.5022 22.2494 85.2851 23.0544 85.2851 24.1157C85.2851 25.1046 85.5022 25.8704 85.9363 26.4131C86.3705 26.9558 87.0037 27.2272 87.8358 27.2272C88.3725 27.2272 88.8338 27.1096 89.2197 26.8744C89.6116 26.6332 89.9131 26.2865 90.1242 25.8342L92.2769 26.4855C91.903 27.3659 91.3241 28.0503 90.5402 28.5387C89.7624 29.0271 88.9031 29.2714 87.9624 29.2714ZM84.5977 24.7217V23.0755H91.3181V24.7217H84.5977ZM98.3201 29.2714C97.3673 29.2714 96.5081 29.1055 95.7423 28.7739C94.9825 28.4422 94.3554 27.9689 93.8609 27.3538C93.3725 26.7327 93.0619 25.9971 92.9293 25.1468L95.1905 24.8031C95.3835 25.575 95.7784 26.1719 96.3754 26.594C96.9784 27.0161 97.6719 27.2272 98.4558 27.2272C98.9201 27.2272 99.3572 27.1548 99.7673 27.0101C100.177 26.8654 100.509 26.6543 100.762 26.3769C101.022 26.0996 101.151 25.7589 101.151 25.3549C101.151 25.174 101.121 25.0081 101.061 24.8574C101 24.7006 100.91 24.5619 100.789 24.4413C100.675 24.3207 100.524 24.2122 100.337 24.1157C100.156 24.0132 99.9452 23.9258 99.704 23.8534L96.3392 22.8584C96.0498 22.774 95.7362 22.6625 95.3985 22.5238C95.0669 22.3791 94.7503 22.1831 94.4488 21.9359C94.1533 21.6826 93.9091 21.363 93.7162 20.9771C93.5292 20.5851 93.4358 20.1027 93.4358 19.5299C93.4358 18.6917 93.6468 17.9892 94.0689 17.4224C94.4971 16.8495 95.0699 16.4214 95.7875 16.138C96.5111 15.8546 97.3131 15.7159 98.1934 15.7219C99.0859 15.728 99.8818 15.8817 100.581 16.1832C101.281 16.4787 101.866 16.9098 102.336 17.4767C102.806 18.0435 103.138 18.7279 103.331 19.5299L100.988 19.9369C100.892 19.4786 100.705 19.0897 100.428 18.7701C100.156 18.4445 99.8215 18.1973 99.4236 18.0284C99.0316 17.8596 98.6125 17.7691 98.1663 17.7571C97.7322 17.751 97.3281 17.8174 96.9543 17.9561C96.5865 18.0887 96.288 18.2817 96.0588 18.5349C95.8357 18.7882 95.7242 19.0837 95.7242 19.4213C95.7242 19.7409 95.8206 20.0032 96.0136 20.2083C96.2066 20.4072 96.4447 20.567 96.7282 20.6876C97.0176 20.8022 97.3101 20.8987 97.6055 20.9771L99.9391 21.6283C100.259 21.7127 100.618 21.8273 101.015 21.972C101.413 22.1168 101.796 22.3188 102.164 22.578C102.532 22.8373 102.834 23.178 103.069 23.6001C103.31 24.0222 103.431 24.5589 103.431 25.2101C103.431 25.8855 103.289 26.4795 103.005 26.992C102.728 27.4985 102.351 27.9206 101.875 28.2583C101.398 28.596 100.853 28.8492 100.238 29.0181C99.6286 29.1869 98.9894 29.2714 98.3201 29.2714ZM108.726 29.2714C107.719 29.2714 106.86 29.0482 106.148 28.602C105.437 28.1498 104.891 27.5347 104.511 26.7568C104.137 25.979 103.947 25.0986 103.941 24.1157C103.947 23.1147 104.143 22.2283 104.529 21.4565C104.921 20.6786 105.476 20.0696 106.193 19.6294C106.911 19.1832 107.764 18.96 108.753 18.96C109.863 18.96 110.8 19.2404 111.566 19.8012C112.338 20.356 112.841 21.1158 113.077 22.0806L110.906 22.6685C110.737 22.1439 110.457 21.7369 110.065 21.4474C109.673 21.152 109.226 21.0042 108.726 21.0042C108.159 21.0042 107.692 21.1399 107.324 21.4112C106.956 21.6766 106.685 22.0444 106.51 22.5147C106.335 22.9851 106.248 23.5187 106.248 24.1157C106.248 25.0443 106.456 25.7951 106.872 26.3679C107.288 26.9408 107.906 27.2272 108.726 27.2272C109.305 27.2272 109.76 27.0945 110.092 26.8292C110.429 26.5639 110.683 26.181 110.852 25.6805L113.077 26.178C112.775 27.1729 112.247 27.9387 111.494 28.4754C110.74 29.006 109.817 29.2714 108.726 29.2714ZM113.985 29V19.2314H115.911V21.6102L115.676 21.3027C115.797 20.9771 115.956 20.6816 116.155 20.4163C116.36 20.1449 116.605 19.9218 116.888 19.747C117.129 19.5842 117.395 19.4575 117.684 19.3671C117.979 19.2706 118.281 19.2133 118.589 19.1952C118.896 19.1711 119.195 19.1832 119.484 19.2314V21.2665C119.195 21.1821 118.86 21.155 118.48 21.1851C118.106 21.2153 117.768 21.3208 117.467 21.5017C117.165 21.6645 116.918 21.8725 116.725 22.1258C116.538 22.3791 116.4 22.6685 116.309 22.9941C116.219 23.3137 116.173 23.6604 116.173 24.0343V29H113.985ZM120.486 17.748V15.7491H122.666V17.748H120.486ZM120.486 29V19.2314H122.666V29H120.486ZM129.166 29.2714C128.213 29.2714 127.414 29.0452 126.769 28.593C126.123 28.1407 125.638 27.5257 125.312 26.7478C124.987 25.9639 124.824 25.0865 124.824 24.1157C124.824 23.1328 124.987 22.2524 125.312 21.4746C125.638 20.6967 126.114 20.0846 126.741 19.6384C127.375 19.1862 128.155 18.96 129.084 18.96C130.007 18.96 130.806 19.1862 131.481 19.6384C132.162 20.0846 132.69 20.6967 133.064 21.4746C133.438 22.2464 133.625 23.1268 133.625 24.1157C133.625 25.0926 133.441 25.9699 133.073 26.7478C132.705 27.5257 132.187 28.1407 131.517 28.593C130.848 29.0452 130.064 29.2714 129.166 29.2714ZM124.453 33.3416V19.2314H126.38V26.0875H126.651V33.3416H124.453ZM128.831 27.3176C129.398 27.3176 129.865 27.1759 130.233 26.8925C130.601 26.6091 130.872 26.2262 131.047 25.7438C131.228 25.2554 131.318 24.7127 131.318 24.1157C131.318 23.5248 131.228 22.9881 131.047 22.5057C130.866 22.0173 130.586 21.6313 130.206 21.3479C129.826 21.0585 129.343 20.9138 128.758 20.9138C128.204 20.9138 127.751 21.0494 127.402 21.3208C127.052 21.5861 126.793 21.96 126.624 22.4424C126.461 22.9187 126.38 23.4765 126.38 24.1157C126.38 24.7488 126.461 25.3066 126.624 25.789C126.793 26.2714 127.055 26.6483 127.411 26.9196C127.773 27.185 128.246 27.3176 128.831 27.3176ZM140.439 29C139.794 29.1206 139.161 29.1719 138.54 29.1538C137.925 29.1417 137.373 29.0301 136.885 28.8191C136.396 28.602 136.025 28.2613 135.772 27.797C135.549 27.3749 135.431 26.9438 135.419 26.5036C135.407 26.0634 135.401 25.5659 135.401 25.0112V16.5179H137.572V24.8845C137.572 25.2765 137.575 25.6202 137.581 25.9157C137.593 26.2111 137.657 26.4523 137.771 26.6393C137.988 27.0011 138.335 27.2031 138.811 27.2453C139.288 27.2875 139.83 27.2634 140.439 27.1729V29ZM133.629 20.9409V19.2314H140.439V20.9409H133.629Z" fill="#515253"/>
</g>
<defs>
<clipPath id="clip0_1042_104">
<rect width="145" height="45" fill="white"/>
</clipPath>
<clipPath id="clip1_1042_104">
<rect width="44" height="44" fill="white" transform="translate(0 0.5)"/>
</clipPath>
<clipPath id="clip2_1042_104">
<rect width="44" height="44" fill="white" transform="translate(0 1)"/>
</clipPath>
</defs>
</svg>
