<svg width="145" height="45" viewBox="0 0 145 45" fill="none" xmlns="http://www.w3.org/2000/svg">
<g clip-path="url(#clip0_1042_104)">
<g clip-path="url(#clip1_1042_104)">
<g clip-path="url(#clip2_1042_104)">
<path d="M0 5.8125C0 3.15463 2.15463 1 4.8125 1H39.1875C41.8454 1 44 3.15463 44 5.8125V11.3125C44 12.4516 43.0765 13.375 41.9375 13.375C40.7985 13.375 39.875 12.4516 39.875 11.3125V5.8125C39.875 5.43281 39.5673 5.125 39.1875 5.125H4.8125C4.43281 5.125 4.125 5.43281 4.125 5.8125V40.1875C4.125 40.5673 4.43281 40.875 4.8125 40.875H41.9375C43.0765 40.875 44 41.7985 44 42.9375C44 44.0765 43.0765 45 41.9375 45H4.8125C2.15463 45 0 42.8454 0 40.1875V5.8125ZM13.0625 18.875C13.0625 17.7359 13.9859 16.8125 15.125 16.8125H25.4375C26.5766 16.8125 27.5 17.7359 27.5 18.875C27.5 20.0141 26.5766 20.9375 25.4375 20.9375H22.6875V35.375C22.6875 36.514 21.7641 37.4375 20.625 37.4375C19.4859 37.4375 18.5625 36.514 18.5625 35.375V20.9375H15.125C13.9859 20.9375 13.0625 20.0141 13.0625 18.875ZM31.0082 19.0953C32.1596 17.7245 33.9644 16.8125 36.4375 16.8125C38.7335 16.8125 40.4657 17.5981 41.6334 18.8332C42.4157 19.661 42.3789 20.9664 41.5511 21.7489C40.7234 22.5313 39.4179 22.4946 38.6356 21.6668C38.3334 21.3472 37.7311 20.9375 36.4375 20.9375C35.0606 20.9375 34.4592 21.4005 34.1668 21.7484C33.8069 22.1768 33.6875 22.714 33.6875 23C33.6875 23.286 33.8069 23.8232 34.1668 24.2516C34.4592 24.5995 35.0606 25.0625 36.4375 25.0625C36.6457 25.0625 36.8467 25.0933 37.0359 25.1507C38.8594 25.4103 40.2377 26.2244 41.1793 27.3453C42.2631 28.6356 42.625 30.161 42.625 31.25C42.625 32.339 42.2631 33.8644 41.1793 35.1547C40.0279 36.5256 38.2231 37.4375 35.75 37.4375C33.454 37.4375 31.7218 36.6518 30.5542 35.4168C29.7718 34.5891 29.8086 33.2836 30.6364 32.501C31.4641 31.7186 32.7696 31.7555 33.5519 32.5832C33.8541 32.9028 34.4564 33.3125 35.75 33.3125C37.1269 33.3125 37.7283 32.8494 38.0207 32.5015C38.3806 32.0731 38.5 31.536 38.5 31.25C38.5 30.964 38.3806 30.4269 38.0207 29.9985C37.7283 29.6506 37.1269 29.1875 35.75 29.1875C35.5418 29.1875 35.3408 29.1567 35.1516 29.0992C33.3281 28.8396 31.9498 28.0256 31.0082 26.9047C29.9244 25.6143 29.5625 24.089 29.5625 23C29.5625 21.911 29.9244 20.3857 31.0082 19.0953Z" fill="#515253"/>
</g>
</g>
<path d="M54.2896 15.5737H64.2976V17.1505H54.2896V15.5737ZM58.3926 16.9574H60.2107V26H58.3926V16.9574ZM63.1482 17.9872H65.0629L68.297 25.6782L66.7523 26L63.1482 17.9872ZM72.0781 17.9872L66.9293 29.218H65.0468L67.2511 24.8254L70.1634 17.9872H72.0781ZM77.7071 26.177C77.0528 26.177 76.495 26.0483 76.0337 25.7908C75.5832 25.5334 75.2185 25.1955 74.9396 24.7772C74.6715 24.3481 74.473 23.8922 74.3443 23.4095C74.2156 22.9161 74.1512 22.4495 74.1512 22.0097C74.1512 21.4197 74.2102 20.8727 74.3282 20.3685C74.4569 19.8643 74.6554 19.4246 74.9235 19.0491C75.2024 18.663 75.5671 18.3626 76.0177 18.1481C76.4789 17.9228 77.0421 17.8102 77.7071 17.8102C78.458 17.8102 79.1338 17.9925 79.7344 18.3572C80.3351 18.7112 80.8125 19.2047 81.1665 19.8375C81.5204 20.4597 81.6974 21.1837 81.6974 22.0097C81.6974 22.8356 81.5151 23.565 81.1504 24.1979C80.7964 24.8201 80.3191 25.3081 79.7184 25.6621C79.1177 26.0054 78.4472 26.177 77.7071 26.177ZM77.1761 24.6967C77.7125 24.6967 78.1844 24.5841 78.5921 24.3588C78.9997 24.1336 79.3161 23.8171 79.5414 23.4095C79.7666 23.0019 79.8793 22.5353 79.8793 22.0097C79.8793 21.2052 79.6433 20.5509 79.1713 20.0467C78.6993 19.5318 78.0343 19.2744 77.1761 19.2744C76.6398 19.2744 76.1571 19.387 75.728 19.6123C75.299 19.8375 74.9611 20.154 74.7144 20.5616C74.4677 20.9585 74.3443 21.4412 74.3443 22.0097C74.3443 22.5246 74.4569 22.9858 74.6822 23.3934C74.9074 23.801 75.2292 24.1228 75.6476 24.3588C76.0659 24.5841 76.5754 24.6967 77.1761 24.6967ZM72.5583 17.9872H74.2638L74.3443 19.9502V29.218H72.5583V17.9872ZM89.1792 23.3612H90.9008C90.815 23.9083 90.6004 24.3964 90.2572 24.8254C89.9247 25.2438 89.4688 25.5763 88.8895 25.823C88.3103 26.059 87.6184 26.177 86.8139 26.177C85.9022 26.177 85.0869 26.0107 84.3682 25.6782C83.6496 25.3349 83.0864 24.8522 82.6788 24.2301C82.2712 23.608 82.0674 22.8678 82.0674 22.0097C82.0674 21.1623 82.2658 20.4221 82.6627 19.7893C83.0596 19.1564 83.6066 18.6683 84.3039 18.3251C85.0118 17.9818 85.8271 17.8102 86.7496 17.8102C87.7042 17.8102 88.498 17.9818 89.1309 18.3251C89.7745 18.6576 90.2518 19.1617 90.5629 19.8375C90.874 20.5026 91.0027 21.3446 90.9491 22.3637H83.8855C83.9392 22.8142 84.084 23.2218 84.32 23.5865C84.5667 23.9405 84.8992 24.2194 85.3176 24.4232C85.7359 24.6163 86.224 24.7128 86.7817 24.7128C87.4039 24.7128 87.9241 24.5894 88.3425 24.3427C88.7715 24.096 89.0504 23.7689 89.1792 23.3612ZM86.7013 19.2583C85.9719 19.2583 85.3712 19.4406 84.8992 19.8053C84.4272 20.1593 84.1215 20.6152 83.9821 21.173H89.147C89.1041 20.5723 88.8627 20.1057 88.4229 19.7732C87.9831 19.4299 87.4093 19.2583 86.7013 19.2583ZM91.303 22.5406H93.089C93.1319 22.9375 93.2875 23.2969 93.5556 23.6187C93.8345 23.9298 94.1992 24.1765 94.6497 24.3588C95.111 24.5304 95.6366 24.6163 96.2266 24.6163C96.7522 24.6163 97.1866 24.5519 97.5299 24.4232C97.8731 24.2945 98.1252 24.1175 98.2861 23.8922C98.4577 23.6562 98.5435 23.3827 98.5435 23.0716C98.5435 22.7605 98.4416 22.5192 98.2378 22.3476C98.0447 22.1652 97.7444 22.015 97.3368 21.897C96.9292 21.7683 96.4089 21.645 95.7761 21.527C95.2504 21.4304 94.7409 21.3017 94.2475 21.1408C93.7541 20.9799 93.3089 20.7761 92.912 20.5294C92.5259 20.2827 92.2202 19.9823 91.9949 19.6284C91.7696 19.2637 91.657 18.8346 91.657 18.3412C91.657 17.7834 91.8125 17.2792 92.1236 16.8287C92.4454 16.3782 92.9174 16.0242 93.5395 15.7668C94.1617 15.5093 94.9179 15.3806 95.8082 15.3806C97.1705 15.3806 98.211 15.697 98.9297 16.3299C99.6484 16.9521 99.997 17.7995 99.9755 18.8721H98.2217C98.1895 18.1963 97.9428 17.7083 97.4816 17.4079C97.0203 17.1076 96.4357 16.9574 95.7278 16.9574C95.0949 16.9574 94.5639 17.07 94.1349 17.2953C93.7058 17.5206 93.4913 17.8853 93.4913 18.3894C93.4913 18.604 93.5395 18.7917 93.6361 18.9526C93.7433 19.1028 93.915 19.2422 94.151 19.3709C94.3869 19.4889 94.7087 19.6069 95.1164 19.7249C95.5347 19.8322 96.0442 19.9502 96.6449 20.0789C97.1598 20.1647 97.6425 20.2827 98.093 20.4329C98.5435 20.583 98.9351 20.7707 99.2676 20.996C99.6108 21.2213 99.879 21.5109 100.072 21.8649C100.265 22.2188 100.362 22.6533 100.362 23.1682C100.362 23.7581 100.212 24.2837 99.9112 24.745C99.6108 25.1955 99.1496 25.5548 98.5274 25.823C97.916 26.0804 97.1222 26.2092 96.1461 26.2092C95.406 26.2092 94.757 26.1234 94.1992 25.9517C93.6522 25.7694 93.1856 25.5388 92.7994 25.2599C92.4132 24.9702 92.1022 24.6592 91.8662 24.3266C91.6409 23.9941 91.48 23.6723 91.3835 23.3612C91.2977 23.0394 91.2708 22.7659 91.303 22.5406ZM109.818 22.8946C109.753 23.5811 109.533 24.1711 109.158 24.6645C108.783 25.158 108.278 25.5334 107.646 25.7908C107.023 26.0483 106.305 26.177 105.49 26.177C104.61 26.177 103.811 26.0161 103.092 25.6943C102.384 25.3725 101.821 24.9005 101.403 24.2784C100.984 23.6562 100.775 22.9 100.775 22.0097C100.775 21.1194 100.984 20.3631 101.403 19.741C101.821 19.1188 102.384 18.6415 103.092 18.309C103.811 17.9765 104.61 17.8102 105.49 17.8102C106.305 17.8102 107.023 17.9443 107.646 18.2124C108.268 18.4699 108.767 18.8399 109.142 19.3226C109.517 19.8053 109.737 20.39 109.802 21.0765H108.16C107.978 20.5079 107.646 20.0682 107.163 19.7571C106.691 19.4353 106.133 19.2744 105.49 19.2744C104.964 19.2744 104.481 19.3816 104.041 19.5962C103.602 19.8 103.248 20.1057 102.979 20.5133C102.722 20.9102 102.593 21.409 102.593 22.0097C102.593 22.5996 102.722 23.0984 102.979 23.506C103.248 23.9137 103.602 24.2194 104.041 24.4232C104.481 24.6163 104.964 24.7128 105.49 24.7128C106.197 24.7128 106.777 24.5573 107.227 24.2462C107.688 23.9244 108.005 23.4739 108.177 22.8946H109.818ZM110.587 17.9872H112.373V26H110.587V17.9872ZM115.269 19.5157C114.69 19.5157 114.191 19.6391 113.772 19.8858C113.365 20.1325 113.038 20.4329 112.791 20.7868C112.544 21.1408 112.373 21.4841 112.276 21.8166L112.26 20.9156C112.271 20.7976 112.308 20.6206 112.373 20.3846C112.437 20.1379 112.534 19.8697 112.662 19.5801C112.802 19.2905 112.984 19.0116 113.209 18.7434C113.445 18.4645 113.73 18.2393 114.062 18.0676C114.405 17.896 114.808 17.8102 115.269 17.8102V19.5157ZM117.908 14.5922V16.3138H115.768V14.5922H117.908ZM115.929 17.9872H117.731V26H115.929V17.9872ZM124.214 26.177C123.56 26.177 123.002 26.0483 122.541 25.7908C122.09 25.5334 121.726 25.1955 121.447 24.7772C121.178 24.3481 120.98 23.8922 120.851 23.4095C120.723 22.9161 120.658 22.4495 120.658 22.0097C120.658 21.4197 120.717 20.8727 120.835 20.3685C120.964 19.8643 121.162 19.4246 121.431 19.0491C121.709 18.663 122.074 18.3626 122.525 18.1481C122.986 17.9228 123.549 17.8102 124.214 17.8102C124.965 17.8102 125.641 17.9925 126.241 18.3572C126.842 18.7112 127.319 19.2047 127.673 19.8375C128.027 20.4597 128.204 21.1837 128.204 22.0097C128.204 22.8356 128.022 23.565 127.657 24.1979C127.303 24.8201 126.826 25.3081 126.225 25.6621C125.625 26.0054 124.954 26.177 124.214 26.177ZM123.683 24.6967C124.219 24.6967 124.691 24.5841 125.099 24.3588C125.507 24.1336 125.823 23.8171 126.048 23.4095C126.274 23.0019 126.386 22.5353 126.386 22.0097C126.386 21.2052 126.15 20.5509 125.678 20.0467C125.206 19.5318 124.541 19.2744 123.683 19.2744C123.147 19.2744 122.664 19.387 122.235 19.6123C121.806 19.8375 121.468 20.154 121.221 20.5616C120.975 20.9585 120.851 21.4412 120.851 22.0097C120.851 22.5246 120.964 22.9858 121.189 23.3934C121.414 23.801 121.736 24.1228 122.155 24.3588C122.573 24.5841 123.082 24.6967 123.683 24.6967ZM119.065 17.9872H120.771L120.851 19.9502V29.218H119.065V17.9872ZM128.43 17.9872H134.093V19.4514H128.43V17.9872ZM130.36 15.8311H132.162V26H130.36V15.8311Z" fill="#515253"/>
</g>
<defs>
<clipPath id="clip0_1042_104">
<rect width="145" height="45" fill="white"/>
</clipPath>
<clipPath id="clip1_1042_104">
<rect width="44" height="44" fill="white" transform="translate(0 0.5)"/>
</clipPath>
<clipPath id="clip2_1042_104">
<rect width="44" height="44" fill="white" transform="translate(0 1)"/>
</clipPath>
</defs>
</svg>
