<svg width="142" height="45" viewBox="0 0 142 45" fill="none" xmlns="http://www.w3.org/2000/svg">
<g clip-path="url(#clip0_1042_97)">
<g clip-path="url(#clip1_1042_97)">
<path fill-rule="evenodd" clip-rule="evenodd" d="M41.305 11.9447C41.3996 12.6465 41.4524 13.3964 41.4524 14.206C41.4524 18.0736 41.0938 18.2915 33.0594 41.5169C39.6 37.7021 44 30.6158 44 22.5C44 18.6742 43.0232 15.0775 41.305 11.9447ZM22.3872 24.425L15.785 43.6041C20.24 44.9153 24.9612 44.7818 29.3062 43.255C29.2468 43.1604 29.194 43.0588 29.15 42.951L22.3872 24.425ZM36.8522 21.3893C36.8522 18.6701 35.8754 16.7862 35.0372 15.321C33.924 13.5082 32.8768 11.9754 32.8768 10.1626C32.8768 8.1408 34.4124 6.25781 36.5728 6.25781C36.6696 6.25781 36.762 6.2706 36.8566 6.275C32.9428 2.689 27.7288 0.5 22 0.5C14.3154 0.5 7.55261 4.44204 3.61901 10.415C5.02041 10.459 6.90139 10.4771 10.8988 10.1647C12.0846 10.0943 12.2232 11.8362 11.0396 11.9748C11.0396 11.9748 9.8472 12.116 8.5206 12.1864L16.533 36.0169L21.3466 21.5762L17.919 12.1843C16.7354 12.1161 15.6134 11.9748 15.6134 11.9748C14.4276 11.9044 14.5662 10.0922 15.752 10.1626C20.2994 10.5124 22.627 10.5388 27.4098 10.1626C28.5956 10.0922 28.7364 11.834 27.5506 11.9748C27.5506 11.9748 26.356 12.1161 25.0316 12.1843L32.9824 35.8343C36.1218 25.3447 36.8522 23.5893 36.8522 21.3893ZM0 22.5C0 31.2076 5.06 38.7338 12.3992 42.3L1.90519 13.5464C0.684194 16.2832 0 19.31 0 22.5Z" fill="#515253"/>
</g>
<path d="M58.4891 26L54.3218 15.5737H56.317L59.8568 24.745H59.2775L62.6564 15.5737H64.732L68.1109 24.745H67.5317L71.0715 15.5737H73.0345L68.9154 26H66.7594L63.4287 16.8448H63.9758L60.6291 26H58.4891ZM76.8567 26.177C75.9664 26.177 75.1673 26.0161 74.4593 25.6943C73.7514 25.3725 73.1936 24.9005 72.786 24.2784C72.3783 23.6562 72.1745 22.9 72.1745 22.0097C72.1745 21.1301 72.3783 20.3792 72.786 19.7571C73.1936 19.1242 73.7514 18.6415 74.4593 18.309C75.1673 17.9765 75.9664 17.8102 76.8567 17.8102C77.747 17.8102 78.5408 17.9765 79.238 18.309C79.9353 18.6415 80.4823 19.1242 80.8792 19.7571C81.2868 20.3792 81.4906 21.1301 81.4906 22.0097C81.4906 22.9 81.2868 23.6562 80.8792 24.2784C80.4823 24.9005 79.9353 25.3725 79.238 25.6943C78.5408 26.0161 77.747 26.177 76.8567 26.177ZM76.8567 24.7128C77.3716 24.7128 77.8436 24.6109 78.2726 24.4071C78.7017 24.2033 79.0396 23.8976 79.2863 23.49C79.5438 23.0823 79.6725 22.5889 79.6725 22.0097C79.6725 21.4304 79.5438 20.937 79.2863 20.5294C79.0396 20.1218 78.7017 19.8107 78.2726 19.5962C77.8543 19.3709 77.3823 19.2583 76.8567 19.2583C76.3311 19.2583 75.8538 19.3656 75.4247 19.5801C74.9956 19.7946 74.647 20.1057 74.3789 20.5133C74.1214 20.9209 73.9927 21.4197 73.9927 22.0097C73.9927 22.5889 74.1214 23.0823 74.3789 23.49C74.6363 23.8976 74.9796 24.2033 75.4086 24.4071C75.8484 24.6109 76.3311 24.7128 76.8567 24.7128ZM82.2846 17.9872H84.0706V26H82.2846V17.9872ZM86.9668 19.5157C86.3875 19.5157 85.8887 19.6391 85.4704 19.8858C85.0628 20.1325 84.7356 20.4329 84.4889 20.7868C84.2422 21.1408 84.0706 21.4841 83.974 21.8166L83.9579 20.9156C83.9687 20.7976 84.0062 20.6206 84.0706 20.3846C84.1349 20.1379 84.2315 19.8697 84.3602 19.5801C84.4996 19.2905 84.682 19.0116 84.9073 18.7434C85.1432 18.4645 85.4275 18.2393 85.76 18.0676C86.1033 17.896 86.5055 17.8102 86.9668 17.8102V19.5157ZM91.0858 26.177C90.3457 26.177 89.6699 26 89.0585 25.646C88.4578 25.292 87.9804 24.804 87.6265 24.1818C87.2725 23.549 87.0955 22.8249 87.0955 22.0097C87.0955 21.173 87.2671 20.4436 87.6104 19.8214C87.9644 19.1886 88.4363 18.6951 89.0263 18.3412C89.627 17.9872 90.3135 17.8102 91.0858 17.8102C91.7616 17.8102 92.3301 17.9228 92.7914 18.1481C93.2526 18.3626 93.6173 18.663 93.8855 19.0491C94.1536 19.4246 94.3467 19.8643 94.4647 20.3685C94.5934 20.8727 94.6578 21.4197 94.6578 22.0097C94.6578 22.4495 94.5934 22.9161 94.4647 23.4095C94.336 23.8922 94.1322 24.3427 93.8533 24.7611C93.5851 25.1794 93.2204 25.5227 92.7592 25.7908C92.3087 26.0483 91.7509 26.177 91.0858 26.177ZM91.6329 24.6967C92.2336 24.6967 92.7431 24.5841 93.1614 24.3588C93.5905 24.1228 93.9123 23.801 94.1268 23.3934C94.3521 22.9858 94.4647 22.5246 94.4647 22.0097C94.4647 21.4412 94.3521 20.9585 94.1268 20.5616C93.9016 20.154 93.5798 19.8375 93.1614 19.6123C92.7431 19.387 92.2336 19.2744 91.6329 19.2744C90.7747 19.2744 90.1097 19.5318 89.6377 20.0467C89.1657 20.5509 88.9298 21.2052 88.9298 22.0097C88.9298 22.5353 89.0424 23.0019 89.2676 23.4095C89.5036 23.8171 89.8254 24.1336 90.233 24.3588C90.6407 24.5841 91.1073 24.6967 91.6329 24.6967ZM94.4647 14.7692H96.2668V26H94.5934C94.572 25.7533 94.5452 25.4476 94.513 25.0829C94.4808 24.7182 94.4647 24.391 94.4647 24.1014V14.7692ZM99.5419 22.5085V20.9799H103.757C104.347 20.9799 104.819 20.8083 105.173 20.465C105.538 20.1218 105.72 19.6605 105.72 19.0813C105.72 18.4806 105.538 18.014 105.173 17.6815C104.819 17.3382 104.347 17.1666 103.757 17.1666H99.7993V26H97.965V15.5737H103.629C104.176 15.5737 104.685 15.6488 105.157 15.7989C105.629 15.9384 106.042 16.1529 106.396 16.4425C106.761 16.7322 107.04 17.0969 107.233 17.5367C107.437 17.9657 107.539 18.4806 107.539 19.0813C107.539 19.6713 107.437 20.1861 107.233 20.6259C107.04 21.055 106.761 21.409 106.396 21.6879C106.042 21.9668 105.629 22.1759 105.157 22.3154C104.685 22.4441 104.176 22.5085 103.629 22.5085H99.5419ZM108.484 17.9872H110.27V26H108.484V17.9872ZM113.166 19.5157C112.587 19.5157 112.088 19.6391 111.67 19.8858C111.262 20.1325 110.935 20.4329 110.689 20.7868C110.442 21.1408 110.27 21.4841 110.174 21.8166L110.158 20.9156C110.168 20.7976 110.206 20.6206 110.27 20.3846C110.335 20.1379 110.431 19.8697 110.56 19.5801C110.699 19.2905 110.882 19.0116 111.107 18.7434C111.343 18.4645 111.627 18.2393 111.96 18.0676C112.303 17.896 112.705 17.8102 113.166 17.8102V19.5157ZM120.407 23.3612H122.129C122.043 23.9083 121.828 24.3964 121.485 24.8254C121.152 25.2438 120.697 25.5763 120.117 25.823C119.538 26.059 118.846 26.177 118.042 26.177C117.13 26.177 116.315 26.0107 115.596 25.6782C114.877 25.3349 114.314 24.8522 113.907 24.2301C113.499 23.608 113.295 22.8678 113.295 22.0097C113.295 21.1623 113.494 20.4221 113.891 19.7893C114.287 19.1564 114.834 18.6683 115.532 18.3251C116.24 17.9818 117.055 17.8102 117.977 17.8102C118.932 17.8102 119.726 17.9818 120.359 18.3251C121.002 18.6576 121.48 19.1617 121.791 19.8375C122.102 20.5026 122.23 21.3446 122.177 22.3637H115.113C115.167 22.8142 115.312 23.2218 115.548 23.5865C115.794 23.9405 116.127 24.2194 116.545 24.4232C116.964 24.6163 117.452 24.7128 118.01 24.7128C118.632 24.7128 119.152 24.5894 119.57 24.3427C119.999 24.096 120.278 23.7689 120.407 23.3612ZM117.929 19.2583C117.2 19.2583 116.599 19.4406 116.127 19.8053C115.655 20.1593 115.349 20.6152 115.21 21.173H120.375C120.332 20.5723 120.091 20.1057 119.651 19.7732C119.211 19.4299 118.637 19.2583 117.929 19.2583ZM122.611 23.3612H124.269C124.354 23.7689 124.574 24.1014 124.928 24.3588C125.282 24.6055 125.76 24.7289 126.36 24.7289C126.746 24.7289 127.047 24.686 127.261 24.6002C127.487 24.5144 127.642 24.3964 127.728 24.2462C127.824 24.096 127.873 23.9244 127.873 23.7313C127.873 23.4953 127.803 23.313 127.664 23.1842C127.535 23.0555 127.342 22.9483 127.084 22.8624C126.827 22.7766 126.505 22.7015 126.119 22.6372C125.722 22.5406 125.33 22.4334 124.944 22.3154C124.558 22.1974 124.21 22.0526 123.898 21.881C123.587 21.6986 123.341 21.4733 123.158 21.2052C122.987 20.9263 122.901 20.5884 122.901 20.1915C122.901 19.8268 122.981 19.4996 123.142 19.21C123.314 18.9097 123.55 18.6576 123.85 18.4538C124.151 18.25 124.505 18.0944 124.912 17.9872C125.32 17.8692 125.765 17.8102 126.248 17.8102C126.945 17.8102 127.524 17.9228 127.985 18.1481C128.457 18.3733 128.811 18.6898 129.047 19.0974C129.294 19.505 129.417 19.9716 129.417 20.4972H127.841C127.755 20.0682 127.588 19.7571 127.342 19.564C127.095 19.3709 126.725 19.2744 126.232 19.2744C125.738 19.2744 125.363 19.3602 125.105 19.5318C124.848 19.7034 124.719 19.9394 124.719 20.2398C124.719 20.465 124.8 20.6474 124.96 20.7868C125.132 20.9156 125.373 21.0282 125.684 21.1247C125.996 21.2213 126.36 21.3178 126.779 21.4143C127.165 21.5216 127.529 21.6342 127.873 21.7522C128.216 21.8595 128.522 21.999 128.79 22.1706C129.069 22.3315 129.289 22.546 129.45 22.8142C129.61 23.0823 129.691 23.4149 129.691 23.8118C129.691 24.3052 129.557 24.7289 129.289 25.0829C129.031 25.4368 128.656 25.7104 128.162 25.9035C127.669 26.0858 127.074 26.177 126.376 26.177C125.765 26.177 125.234 26.1073 124.783 25.9678C124.344 25.8284 123.974 25.646 123.673 25.4208C123.384 25.1955 123.158 24.9541 122.997 24.6967C122.837 24.4393 122.724 24.1926 122.66 23.9566C122.606 23.7206 122.59 23.5221 122.611 23.3612ZM130.15 23.3612H131.808C131.893 23.7689 132.113 24.1014 132.467 24.3588C132.821 24.6055 133.299 24.7289 133.899 24.7289C134.285 24.7289 134.586 24.686 134.8 24.6002C135.026 24.5144 135.181 24.3964 135.267 24.2462C135.363 24.096 135.412 23.9244 135.412 23.7313C135.412 23.4953 135.342 23.313 135.203 23.1842C135.074 23.0555 134.881 22.9483 134.623 22.8624C134.366 22.7766 134.044 22.7015 133.658 22.6372C133.261 22.5406 132.87 22.4334 132.483 22.3154C132.097 22.1974 131.749 22.0526 131.438 21.881C131.126 21.6986 130.88 21.4733 130.697 21.2052C130.526 20.9263 130.44 20.5884 130.44 20.1915C130.44 19.8268 130.52 19.4996 130.681 19.21C130.853 18.9097 131.089 18.6576 131.389 18.4538C131.69 18.25 132.044 18.0944 132.451 17.9872C132.859 17.8692 133.304 17.8102 133.787 17.8102C134.484 17.8102 135.063 17.9228 135.524 18.1481C135.996 18.3733 136.35 18.6898 136.586 19.0974C136.833 19.505 136.956 19.9716 136.956 20.4972H135.38C135.294 20.0682 135.128 19.7571 134.881 19.564C134.634 19.3709 134.264 19.2744 133.771 19.2744C133.277 19.2744 132.902 19.3602 132.644 19.5318C132.387 19.7034 132.258 19.9394 132.258 20.2398C132.258 20.465 132.339 20.6474 132.499 20.7868C132.671 20.9156 132.912 21.0282 133.224 21.1247C133.535 21.2213 133.899 21.3178 134.318 21.4143C134.704 21.5216 135.069 21.6342 135.412 21.7522C135.755 21.8595 136.061 21.999 136.329 22.1706C136.608 22.3315 136.828 22.546 136.989 22.8142C137.149 23.0823 137.23 23.4149 137.23 23.8118C137.23 24.3052 137.096 24.7289 136.828 25.0829C136.57 25.4368 136.195 25.7104 135.701 25.9035C135.208 26.0858 134.613 26.177 133.915 26.177C133.304 26.177 132.773 26.1073 132.322 25.9678C131.883 25.8284 131.513 25.646 131.212 25.4208C130.923 25.1955 130.697 24.9541 130.536 24.6967C130.376 24.4393 130.263 24.1926 130.199 23.9566C130.145 23.7206 130.129 23.5221 130.15 23.3612Z" fill="#515253"/>
</g>
<defs>
<clipPath id="clip0_1042_97">
<rect width="142" height="45" fill="white"/>
</clipPath>
<clipPath id="clip1_1042_97">
<rect width="44" height="44" fill="white" transform="translate(0 0.5)"/>
</clipPath>
</defs>
</svg>
