<svg width="142" height="45" viewBox="0 0 142 45" fill="none" xmlns="http://www.w3.org/2000/svg">
<g clip-path="url(#clip0_1042_97)">
<g clip-path="url(#clip1_1042_97)">
<path fill-rule="evenodd" clip-rule="evenodd" d="M41.305 11.9447C41.3996 12.6465 41.4524 13.3964 41.4524 14.206C41.4524 18.0736 41.0938 18.2915 33.0594 41.5169C39.6 37.7021 44 30.6158 44 22.5C44 18.6742 43.0232 15.0775 41.305 11.9447ZM22.3872 24.425L15.785 43.6041C20.24 44.9153 24.9612 44.7818 29.3062 43.255C29.2468 43.1604 29.194 43.0588 29.15 42.951L22.3872 24.425ZM36.8522 21.3893C36.8522 18.6701 35.8754 16.7862 35.0372 15.321C33.924 13.5082 32.8768 11.9754 32.8768 10.1626C32.8768 8.1408 34.4124 6.25781 36.5728 6.25781C36.6696 6.25781 36.762 6.2706 36.8566 6.275C32.9428 2.689 27.7288 0.5 22 0.5C14.3154 0.5 7.55261 4.44204 3.61901 10.415C5.02041 10.459 6.90139 10.4771 10.8988 10.1647C12.0846 10.0943 12.2232 11.8362 11.0396 11.9748C11.0396 11.9748 9.8472 12.116 8.5206 12.1864L16.533 36.0169L21.3466 21.5762L17.919 12.1843C16.7354 12.1161 15.6134 11.9748 15.6134 11.9748C14.4276 11.9044 14.5662 10.0922 15.752 10.1626C20.2994 10.5124 22.627 10.5388 27.4098 10.1626C28.5956 10.0922 28.7364 11.834 27.5506 11.9748C27.5506 11.9748 26.356 12.1161 25.0316 12.1843L32.9824 35.8343C36.1218 25.3447 36.8522 23.5893 36.8522 21.3893ZM0 22.5C0 31.2076 5.06 38.7338 12.3992 42.3L1.90519 13.5464C0.684194 16.2832 0 19.31 0 22.5Z" fill="#515253"/>
</g>
<path d="M58.016 29L54.208 15.9752H56.4964L59.0923 25.382L61.6792 15.9933L63.9676 15.9752L66.5635 25.382L69.1504 15.9752H71.4388L67.6399 29H65.4872L62.8189 19.7379L60.1687 29H58.016ZM75.247 29.2714C74.2701 29.2714 73.4169 29.0513 72.6873 28.6111C71.9576 28.1709 71.3908 27.5649 70.9868 26.793C70.5888 26.0151 70.3898 25.1227 70.3898 24.1157C70.3898 23.0906 70.5948 22.1921 71.0049 21.4203C71.4149 20.6484 71.9848 20.0454 72.7144 19.6113C73.444 19.1771 74.2882 18.96 75.247 18.96C76.2299 18.96 77.0861 19.1801 77.8158 19.6203C78.5454 20.0605 79.1122 20.6696 79.5162 21.4474C79.9202 22.2193 80.1222 23.1087 80.1222 24.1157C80.1222 25.1287 79.9172 26.0242 79.5072 26.8021C79.1032 27.5739 78.5364 28.1799 77.8067 28.6201C77.0771 29.0543 76.2238 29.2714 75.247 29.2714ZM75.247 27.2272C76.1153 27.2272 76.7605 26.9377 77.1826 26.3589C77.6047 25.78 77.8158 25.0323 77.8158 24.1157C77.8158 23.169 77.6017 22.4152 77.1736 21.8544C76.7454 21.2876 76.1032 21.0042 75.247 21.0042C74.6621 21.0042 74.1797 21.1369 73.7998 21.4022C73.4259 21.6615 73.1485 22.0263 72.9676 22.4966C72.7867 22.961 72.6963 23.5006 72.6963 24.1157C72.6963 25.0624 72.9104 25.8192 73.3385 26.386C73.7727 26.9468 74.4088 27.2272 75.247 27.2272ZM81.2106 29V19.2314H83.1372V21.6102L82.902 21.3027C83.0226 20.9771 83.1824 20.6816 83.3814 20.4163C83.5864 20.1449 83.8306 19.9218 84.1141 19.747C84.3553 19.5842 84.6206 19.4575 84.91 19.3671C85.2055 19.2706 85.507 19.2133 85.8145 19.1952C86.122 19.1711 86.4205 19.1832 86.71 19.2314V21.2665C86.4205 21.1821 86.0859 21.155 85.706 21.1851C85.3321 21.2153 84.9944 21.3208 84.6929 21.5017C84.3914 21.6645 84.1442 21.8725 83.9512 22.1258C83.7643 22.3791 83.6256 22.6685 83.5352 22.9941C83.4447 23.3137 83.3995 23.6604 83.3995 24.0343V29H81.2106ZM91.2713 29.2714C90.3729 29.2714 89.589 29.0452 88.9196 28.593C88.2503 28.1407 87.7317 27.5257 87.3639 26.7478C86.9961 25.9699 86.8122 25.0926 86.8122 24.1157C86.8122 23.1268 86.9961 22.2464 87.3639 21.4746C87.7378 20.6967 88.2654 20.0846 88.9468 19.6384C89.6282 19.1862 90.4302 18.96 91.3527 18.96C92.2814 18.96 93.0592 19.1862 93.6864 19.6384C94.3195 20.0846 94.7989 20.6967 95.1245 21.4746C95.4501 22.2524 95.6129 23.1328 95.6129 24.1157C95.6129 25.0865 95.4501 25.9639 95.1245 26.7478C94.7989 27.5257 94.3135 28.1407 93.6683 28.593C93.0231 29.0452 92.2241 29.2714 91.2713 29.2714ZM91.606 27.3176C92.1909 27.3176 92.6613 27.185 93.017 26.9196C93.3788 26.6483 93.6411 26.2714 93.8039 25.789C93.9728 25.3066 94.0572 24.7488 94.0572 24.1157C94.0572 23.4765 93.9728 22.9187 93.8039 22.4424C93.6411 21.96 93.3849 21.5861 93.0351 21.3208C92.6854 21.0494 92.2331 20.9138 91.6784 20.9138C91.0935 20.9138 90.6111 21.0585 90.2312 21.3479C89.8513 21.6313 89.5709 22.0173 89.39 22.5057C89.2091 22.9881 89.1186 23.5248 89.1186 24.1157C89.1186 24.7127 89.2061 25.2554 89.3809 25.7438C89.5618 26.2262 89.8362 26.6091 90.204 26.8925C90.5719 27.1759 91.0392 27.3176 91.606 27.3176ZM94.0572 29V22.1439H93.7858V15.9752H95.9838V29H94.0572ZM97.6153 29V15.9752H102.997C103.124 15.9752 103.286 15.9812 103.485 15.9933C103.684 15.9993 103.868 16.0174 104.037 16.0476C104.791 16.1621 105.412 16.4124 105.9 16.7983C106.395 17.1842 106.76 17.6726 106.995 18.2636C107.236 18.8485 107.357 19.4997 107.357 20.2173C107.357 20.9288 107.236 21.5801 106.995 22.171C106.754 22.7559 106.386 23.2413 105.891 23.6273C105.403 24.0132 104.785 24.2634 104.037 24.378C103.868 24.4021 103.681 24.4202 103.476 24.4323C103.277 24.4443 103.118 24.4504 102.997 24.4504H99.7951V29H97.6153ZM99.7951 22.4152H102.907C103.027 22.4152 103.163 22.4092 103.314 22.3971C103.464 22.3851 103.603 22.361 103.73 22.3248C104.091 22.2343 104.375 22.0745 104.58 21.8454C104.791 21.6163 104.939 21.357 105.023 21.0675C105.114 20.7781 105.159 20.4947 105.159 20.2173C105.159 19.9399 105.114 19.6565 105.023 19.3671C104.939 19.0716 104.791 18.8093 104.58 18.5802C104.375 18.351 104.091 18.1912 103.73 18.1008C103.603 18.0646 103.464 18.0435 103.314 18.0375C103.163 18.0254 103.027 18.0194 102.907 18.0194H99.7951V22.4152ZM108.264 29V19.2314H110.191V21.6102L109.956 21.3027C110.076 20.9771 110.236 20.6816 110.435 20.4163C110.64 20.1449 110.884 19.9218 111.168 19.747C111.409 19.5842 111.674 19.4575 111.964 19.3671C112.259 19.2706 112.561 19.2133 112.868 19.1952C113.176 19.1711 113.474 19.1832 113.764 19.2314V21.2665C113.474 21.1821 113.14 21.155 112.76 21.1851C112.386 21.2153 112.048 21.3208 111.747 21.5017C111.445 21.6645 111.198 21.8725 111.005 22.1258C110.818 22.3791 110.679 22.6685 110.589 22.9941C110.498 23.3137 110.453 23.6604 110.453 24.0343V29H108.264ZM118.85 29.2714C117.861 29.2714 116.992 29.0573 116.245 28.6292C115.497 28.201 114.912 27.6071 114.49 26.8473C114.074 26.0875 113.866 25.2132 113.866 24.2242C113.866 23.1569 114.071 22.2313 114.481 21.4474C114.891 20.6575 115.461 20.0454 116.19 19.6113C116.92 19.1771 117.764 18.96 118.723 18.96C119.736 18.96 120.595 19.1982 121.301 19.6746C122.012 20.1449 122.54 20.8113 122.884 21.6735C123.227 22.5358 123.357 23.5519 123.273 24.7217H121.111V23.9258C121.105 22.8645 120.918 22.0896 120.55 21.6012C120.182 21.1128 119.603 20.8685 118.814 20.8685C117.921 20.8685 117.258 21.1459 116.824 21.7007C116.389 22.2494 116.172 23.0544 116.172 24.1157C116.172 25.1046 116.389 25.8704 116.824 26.4131C117.258 26.9558 117.891 27.2272 118.723 27.2272C119.26 27.2272 119.721 27.1096 120.107 26.8744C120.499 26.6332 120.8 26.2865 121.011 25.8342L123.164 26.4855C122.79 27.3659 122.211 28.0503 121.428 28.5387C120.65 29.0271 119.79 29.2714 118.85 29.2714ZM115.485 24.7217V23.0755H122.205V24.7217H115.485ZM128.158 29.2714C126.952 29.2714 125.972 29 125.218 28.4573C124.465 27.9146 124.006 27.1518 123.844 26.1689L126.069 25.8252C126.183 26.3076 126.437 26.6875 126.829 26.9649C127.22 27.2423 127.715 27.3809 128.312 27.3809C128.836 27.3809 129.241 27.2784 129.524 27.0734C129.813 26.8624 129.958 26.5759 129.958 26.2141C129.958 25.991 129.904 25.8131 129.795 25.6805C129.693 25.5418 129.464 25.4091 129.108 25.2825C128.752 25.1559 128.206 24.9961 127.471 24.8031C126.651 24.586 125.999 24.3539 125.517 24.1067C125.035 23.8534 124.688 23.5549 124.477 23.2112C124.266 22.8675 124.16 22.4514 124.16 21.963C124.16 21.354 124.32 20.8233 124.64 20.3711C124.959 19.9188 125.405 19.5721 125.978 19.3309C126.551 19.0837 127.226 18.96 128.004 18.96C128.764 18.96 129.436 19.0776 130.021 19.3128C130.612 19.548 131.089 19.8826 131.451 20.3168C131.812 20.751 132.035 21.2605 132.12 21.8454L129.895 22.2434C129.84 21.8273 129.651 21.4987 129.325 21.2575C129.005 21.0163 128.577 20.8806 128.041 20.8505C127.528 20.8203 127.115 20.8987 126.801 21.0856C126.488 21.2665 126.331 21.5228 126.331 21.8544C126.331 22.0414 126.394 22.2012 126.521 22.3338C126.648 22.4665 126.901 22.5992 127.281 22.7318C127.667 22.8645 128.24 23.0273 128.999 23.2202C129.777 23.4192 130.398 23.6484 130.863 23.9077C131.333 24.1609 131.671 24.4654 131.876 24.8212C132.087 25.177 132.192 25.6081 132.192 26.1146C132.192 27.0975 131.833 27.8694 131.116 28.4302C130.404 28.991 129.418 29.2714 128.158 29.2714ZM137.041 29.2714C135.835 29.2714 134.855 29 134.101 28.4573C133.347 27.9146 132.889 27.1518 132.726 26.1689L134.951 25.8252C135.066 26.3076 135.319 26.6875 135.711 26.9649C136.103 27.2423 136.597 27.3809 137.194 27.3809C137.719 27.3809 138.123 27.2784 138.406 27.0734C138.696 26.8624 138.841 26.5759 138.841 26.2141C138.841 25.991 138.786 25.8131 138.678 25.6805C138.575 25.5418 138.346 25.4091 137.99 25.2825C137.635 25.1559 137.089 24.9961 136.353 24.8031C135.533 24.586 134.882 24.3539 134.399 24.1067C133.917 23.8534 133.57 23.5549 133.359 23.2112C133.148 22.8675 133.043 22.4514 133.043 21.963C133.043 21.354 133.202 20.8233 133.522 20.3711C133.842 19.9188 134.288 19.5721 134.861 19.3309C135.434 19.0837 136.109 18.96 136.887 18.96C137.647 18.96 138.319 19.0776 138.904 19.3128C139.495 19.548 139.971 19.8826 140.333 20.3168C140.695 20.751 140.918 21.2605 141.002 21.8454L138.777 22.2434C138.723 21.8273 138.533 21.4987 138.207 21.2575C137.888 21.0163 137.46 20.8806 136.923 20.8505C136.41 20.8203 135.997 20.8987 135.684 21.0856C135.37 21.2665 135.214 21.5228 135.214 21.8544C135.214 22.0414 135.277 22.2012 135.403 22.3338C135.53 22.4665 135.783 22.5992 136.163 22.7318C136.549 22.8645 137.122 23.0273 137.882 23.2202C138.66 23.4192 139.281 23.6484 139.745 23.9077C140.215 24.1609 140.553 24.4654 140.758 24.8212C140.969 25.177 141.075 25.6081 141.075 26.1146C141.075 27.0975 140.716 27.8694 139.998 28.4302C139.287 28.991 138.301 29.2714 137.041 29.2714Z" fill="#515253"/>
</g>
<defs>
<clipPath id="clip0_1042_97">
<rect width="142" height="45" fill="white"/>
</clipPath>
<clipPath id="clip1_1042_97">
<rect width="44" height="44" fill="white" transform="translate(0 0.5)"/>
</clipPath>
</defs>
</svg>
